999
dxflib 2.0.4.8
  0
SECTION
  2
HEADER
  9
$ACADVER
  1
AC1015
  9
$HANDSEED
  5
FFFF
  9
$DIMADEC
 70
2
  9
$GRIDUNIT
 10
0.0
 20
0.0
  9
$DIMASZ
 40
0.1
  9
$DIMGAP
 40
0.025
  9
$LUNITS
 70
2
  9
$AUPREC
 70
2
  9
$SPLINESEGS
 70
8
  9
$INSUNITS
 70
1
  9
$DIMEXO
 40
0.025
  9
$DIMLUNIT
 70
2
  9
$GRIDMODE
 70
1
  9
$DIMTXT
 40
0.1
  9
$LUPREC
 70
4
  9
$PSVPSCALE
 40
1.0
  9
$DIMSTYLE
  2
Standard
  9
$PLIMMIN
 10
0.0
 20
0.0
  9
$PLIMMAX
 10
11.0
 20
8.5
  9
$PINSBASE
 10
5.171108829273896
 20
4.262992410098807
 30
0.0
  9
$DIMEXE
 40
0.05
  9
$DIMAUNIT
 70
0
  9
$AUNITS
 70
0
  0
ENDSEC
  0
SECTION
  2
TABLES
  0
TABLE
  2
VPORT
  5
8
100
AcDbSymbolTable
 70
1
  0
VPORT
  5
30
100
AcDbSymbolTableRecord
100
AcDbViewportTableRecord
  2
*Active
 70
0
 10
0.0
 20
0.0
 11
1.0
 21
1.0
 12
286.3055555555554861
 22
148.5
 13
0.0
 23
0.0
 14
10.0
 24
10.0
 15
10.0
 25
10.0
 16
0.0
 26
0.0
 36
1.0
 17
0.0
 27
0.0
 37
0.0
 40
297.0
 41
1.92798353909465
 42
50.0
 43
0.0
 44
0.0
 50
0.0
 51
0.0
 71
0
 72
100
 73
1
 74
3
 75
1
 76
1
 77
0
 78
0
281
0
 65
1
110
0.0
120
0.0
130
0.0
111
1.0
121
0.0
131
0.0
112
0.0
122
1.0
132
0.0
 79
0
146
0.0
  0
ENDTAB
  0
TABLE
  2
LTYPE
  5
5
100
AcDbSymbolTable
 70
21
  0
LTYPE
  5
14
100
AcDbSymbolTableRecord
100
AcDbLinetypeTableRecord
  2
ByBlock
 70
0
  3

 72
65
 73
0
 40
0.0
  0
LTYPE
  5
15
100
AcDbSymbolTableRecord
100
AcDbLinetypeTableRecord
  2
ByLayer
 70
0
  3

 72
65
 73
0
 40
0.0
  0
LTYPE
  5
16
100
AcDbSymbolTableRecord
100
AcDbLinetypeTableRecord
  2
CONTINUOUS
 70
0
  3
Solid line
 72
65
 73
0
 40
0.0
  0
LTYPE
  5
31
100
AcDbSymbolTableRecord
100
AcDbLinetypeTableRecord
  2
DOT
 70
0
  3
Dot . . . . . . . . . . . . . . . . . . . . . .
 72
65
 73
2
 40
6.3499999999999996
 49
0.0
 74
0
 49
-6.3499999999999996
 74
0
  0
LTYPE
  5
32
100
AcDbSymbolTableRecord
100
AcDbLinetypeTableRecord
  2
DOT2
 70
0
  3
Dot (.5x) .....................................
 72
65
 73
2
 40
3.1749999999999998
 49
0.0
 74
0
 49
-3.1749999999999998
 74
0
  0
LTYPE
  5
33
100
AcDbSymbolTableRecord
100
AcDbLinetypeTableRecord
  2
DOTX2
 70
0
  3
Dot (2x) .  .  .  .  .  .  .  .  .  .  .  .  .
 72
65
 73
2
 40
12.6999999999999993
 49
0.0
 74
0
 49
-12.6999999999999993
 74
0
  0
LTYPE
  5
34
100
AcDbSymbolTableRecord
100
AcDbLinetypeTableRecord
  2
DASHED
 70
0
  3
Dashed __ __ __ __ __ __ __ __ __ __ __ __ __ _
 72
65
 73
2
 40
19.0500000000000007
 49
12.6999999999999993
 74
0
 49
-6.3499999999999996
 74
0
  0
LTYPE
  5
35
100
AcDbSymbolTableRecord
100
AcDbLinetypeTableRecord
  2
DASHED2
 70
0
  3
Dashed (.5x) _ _ _ _ _ _ _ _ _ _ _ _ _ _ _ _ _
 72
65
 73
2
 40
9.5250000000000004
 49
6.3499999999999996
 74
0
 49
-3.1749999999999998
 74
0
  0
LTYPE
  5
36
100
AcDbSymbolTableRecord
100
AcDbLinetypeTableRecord
  2
DASHEDX2
 70
0
  3
Dashed (2x) ____  ____  ____  ____  ____  ___
 72
65
 73
2
 40
38.1000000000000014
 49
25.3999999999999986
 74
0
 49
-12.6999999999999993
 74
0
  0
LTYPE
  5
37
100
AcDbSymbolTableRecord
100
AcDbLinetypeTableRecord
  2
DASHDOT
 70
0
  3
Dash dot __ . __ . __ . __ . __ . __ . __ . __
 72
65
 73
4
 40
25.3999999999999986
 49
12.6999999999999993
 74
0
 49
-6.3499999999999996
 74
0
 49
0.0
 74
0
 49
-6.3499999999999996
 74
0
  0
LTYPE
  5
38
100
AcDbSymbolTableRecord
100
AcDbLinetypeTableRecord
  2
DASHDOT2
 70
0
  3
Dash dot (.5x) _._._._._._._._._._._._._._._.
 72
65
 73
4
 40
12.6999999999999993
 49
6.3499999999999996
 74
0
 49
-3.1749999999999998
 74
0
 49
0.0
 74
0
 49
-3.1749999999999998
 74
0
  0
LTYPE
  5
39
100
AcDbSymbolTableRecord
100
AcDbLinetypeTableRecord
  2
DASHDOTX2
 70
0
  3
Dash dot (2x) ____  .  ____  .  ____  .  ___
 72
65
 73
4
 40
50.7999999999999972
 49
25.3999999999999986
 74
0
 49
-12.6999999999999993
 74
0
 49
0.0
 74
0
 49
-12.6999999999999993
 74
0
  0
LTYPE
  5
3A
100
AcDbSymbolTableRecord
100
AcDbLinetypeTableRecord
  2
DIVIDE
 70
0
  3
Divide ____ . . ____ . . ____ . . ____ . . ____
 72
65
 73
6
 40
31.75
 49
12.6999999999999993
 74
0
 49
-6.3499999999999996
 74
0
 49
0.0
 74
0
 49
-6.3499999999999996
 74
0
 49
0.0
 74
0
 49
-6.3499999999999996
 74
0
  0
LTYPE
  5
3B
100
AcDbSymbolTableRecord
100
AcDbLinetypeTableRecord
  2
DIVIDE2
 70
0
  3
Divide (.5x) __..__..__..__..__..__..__..__.._
 72
65
 73
6
 40
15.875
 49
6.3499999999999996
 74
0
 49
-3.1749999999999998
 74
0
 49
0.0
 74
0
 49
-3.1749999999999998
 74
0
 49
0.0
 74
0
 49
-3.1749999999999998
 74
0
  0
LTYPE
  5
3C
100
AcDbSymbolTableRecord
100
AcDbLinetypeTableRecord
  2
DIVIDEX2
 70
0
  3
Divide (2x) ________  .  .  ________  .  .  _
 72
65
 73
6
 40
63.5
 49
25.3999999999999986
 74
0
 49
-12.6999999999999993
 74
0
 49
0.0
 74
0
 49
-12.6999999999999993
 74
0
 49
0.0
 74
0
 49
-12.6999999999999993
 74
0
  0
LTYPE
  5
3D
100
AcDbSymbolTableRecord
100
AcDbLinetypeTableRecord
  2
CENTER
 70
0
  3
Center ____ _ ____ _ ____ _ ____ _ ____ _ ____
 72
65
 73
4
 40
50.7999999999999972
 49
31.75
 74
0
 49
-6.3499999999999996
 74
0
 49
6.3499999999999996
 74
0
 49
-6.3499999999999996
 74
0
  0
LTYPE
  5
3E
100
AcDbSymbolTableRecord
100
AcDbLinetypeTableRecord
  2
CENTER2
 70
0
  3
Center (.5x) ___ _ ___ _ ___ _ ___ _ ___ _ ___
 72
65
 73
4
 40
28.5749999999999993
 49
19.0500000000000007
 74
0
 49
-3.1749999999999998
 74
0
 49
3.1749999999999998
 74
0
 49
-3.1749999999999998
 74
0
  0
LTYPE
  5
3F
100
AcDbSymbolTableRecord
100
AcDbLinetypeTableRecord
  2
CENTERX2
 70
0
  3
Center (2x) ________  __  ________  __  _____
 72
65
 73
4
 40
101.5999999999999943
 49
63.5
 74
0
 49
-12.6999999999999993
 74
0
 49
12.6999999999999993
 74
0
 49
-12.6999999999999993
 74
0
  0
LTYPE
  5
40
100
AcDbSymbolTableRecord
100
AcDbLinetypeTableRecord
  2
BORDER
 70
0
  3
Border __ __ . __ __ . __ __ . __ __ . __ __ .
 72
65
 73
6
 40
44.4500000000000028
 49
12.6999999999999993
 74
0
 49
-6.3499999999999996
 74
0
 49
12.6999999999999993
 74
0
 49
-6.3499999999999996
 74
0
 49
0.0
 74
0
 49
-6.3499999999999996
 74
0
  0
LTYPE
  5
41
100
AcDbSymbolTableRecord
100
AcDbLinetypeTableRecord
  2
BORDER2
 70
0
  3
Border (.5x) __.__.__.__.__.__.__.__.__.__.__.
 72
65
 73
6
 40
22.2250000000000014
 49
6.3499999999999996
 74
0
 49
-3.1749999999999998
 74
0
 49
6.3499999999999996
 74
0
 49
-3.1749999999999998
 74
0
 49
0.0
 74
0
 49
-3.1749999999999998
 74
0
  0
LTYPE
  5
42
100
AcDbSymbolTableRecord
100
AcDbLinetypeTableRecord
  2
BORDERX2
 70
0
  3
Border (2x) ____  ____  .  ____  ____  .  ___
 72
65
 73
6
 40
88.9000000000000057
 49
25.3999999999999986
 74
0
 49
-12.6999999999999993
 74
0
 49
25.3999999999999986
 74
0
 49
-12.6999999999999993
 74
0
 49
0.0
 74
0
 49
-12.6999999999999993
 74
0
  0
ENDTAB
  0
TABLE
  2
LAYER
  5
2
100
AcDbSymbolTable
 70
4
  0
LAYER
  5
10
100
AcDbSymbolTableRecord
100
AcDbLayerTableRecord
  2
0
 70
0
 62
7
  6
CONTINUOUS
370
0
390
F
  0
LAYER
  5
43
100
AcDbSymbolTableRecord
100
AcDbLayerTableRecord
  2
Servos
 70
5
 62
4
  6
CONTINUOUS
370
0
390
F
  0
LAYER
  5
44
100
AcDbSymbolTableRecord
100
AcDbLayerTableRecord
  2
notes
 70
1
 62
7
  6
CONTINUOUS
370
0
390
F
  0
LAYER
  5
45
100
AcDbSymbolTableRecord
100
AcDbLayerTableRecord
  2
Sectioning Lines
 70
0
 62
7
  6
CONTINUOUS
370
0
390
F
  0
ENDTAB
  0
TABLE
  2
STYLE
  5
3
100
AcDbSymbolTable
 70
1
  0
STYLE
  5
11
100
AcDbSymbolTableRecord
100
AcDbTextStyleTableRecord
  2
Standard
 70
0
 40
0.0
 41
0.75
 50
0.0
 71
0
 42
2.5
  3
txt
  4

  0
ENDTAB
  0
TABLE
  2
VIEW
  5
6
100
AcDbSymbolTable
 70
0
  0
ENDTAB
  0
TABLE
  2
UCS
  5
7
100
AcDbSymbolTable
 70
0
  0
ENDTAB
  0
TABLE
  2
APPID
  5
9
100
AcDbSymbolTable
 70
1
  0
APPID
  5
12
100
AcDbSymbolTableRecord
100
AcDbRegAppTableRecord
  2
ACAD
 70
0
  0
ENDTAB
  0
TABLE
  2
DIMSTYLE
  5
A
100
AcDbSymbolTable
 70
1
100
AcDbDimStyleTable
 71
0
  0
DIMSTYLE
105
27
100
AcDbSymbolTableRecord
100
AcDbDimStyleTableRecord
  2
Standard
 41
0.1
 42
0.025
 43
3.75
 44
0.05
 70
0
 73
0
 74
0
 77
1
 78
8
140
0.1
141
2.5
143
0.03937007874016
147
0.025
171
3
172
1
271
2
272
2
274
3
278
44
283
0
284
8
340
11
  0
ENDTAB
  0
TABLE
  2
BLOCK_RECORD
  5
1
100
AcDbSymbolTable
 70
1
  0
BLOCK_RECORD
  5
1F
100
AcDbSymbolTableRecord
100
AcDbBlockTableRecord
  2
*Model_Space
340
22
  0
BLOCK_RECORD
  5
1B
100
AcDbSymbolTableRecord
100
AcDbBlockTableRecord
  2
*Paper_Space
340
1E
  0
BLOCK_RECORD
  5
23
100
AcDbSymbolTableRecord
100
AcDbBlockTableRecord
  2
*Paper_Space0
340
26
  0
BLOCK_RECORD
  5
46
100
AcDbSymbolTableRecord
100
AcDbBlockTableRecord
  2
Title_Block-0
340
0
  0
BLOCK_RECORD
  5
47
100
AcDbSymbolTableRecord
100
AcDbBlockTableRecord
  2
6455K35 Bearing
340
0
  0
BLOCK_RECORD
  5
48
100
AcDbSymbolTableRecord
100
AcDbBlockTableRecord
  2
3826T13 Bearing
340
0
  0
BLOCK_RECORD
  5
49
100
AcDbSymbolTableRecord
100
AcDbBlockTableRecord
  2
Servo_Side
340
0
  0
BLOCK_RECORD
  5
4A
100
AcDbSymbolTableRecord
100
AcDbBlockTableRecord
  2
Servo_Front
340
0
  0
BLOCK_RECORD
  5
4B
100
AcDbSymbolTableRecord
100
AcDbBlockTableRecord
  2
letter_border-0
340
0
  0
BLOCK_RECORD
  5
4C
100
AcDbSymbolTableRecord
100
AcDbBlockTableRecord
  2
letter_border-1
340
0
  0
ENDTAB
  0
ENDSEC
  0
SECTION
  2
BLOCKS
  0
BLOCK
  5
20
100
AcDbEntity
  8
0
100
AcDbBlockBegin
  2
*Model_Space
 70
0
 10
0.0
 20
0.0
 30
0.0
  3
*Model_Space
  1

  0
ENDBLK
  5
21
100
AcDbEntity
  8
0
100
AcDbBlockEnd
  0
BLOCK
  5
1C
100
AcDbEntity
 67
1
  8
0
100
AcDbBlockBegin
  2
*Paper_Space
 70
0
 10
0.0
 20
0.0
 30
0.0
  3
*Paper_Space
  1

  0
ENDBLK
  5
1D
100
AcDbEntity
 67
1
  8
0
100
AcDbBlockEnd
  0
BLOCK
  5
24
100
AcDbEntity
  8
0
100
AcDbBlockBegin
  2
*Paper_Space0
 70
0
 10
0.0
 20
0.0
 30
0.0
  3
*Paper_Space0
  1

  0
ENDBLK
  5
25
100
AcDbEntity
  8
0
100
AcDbBlockEnd
  0
BLOCK
  5
4D
100
AcDbEntity
  8
0
100
AcDbBlockBegin
  2
Title_Block-0
 70
0
 10
0.0
 20
0.0
 30
0.0
  3
Title_Block-0
  1

  0
LINE
  5
4E
100
AcDbEntity
100
AcDbLine
  8
0
 62
256
370
18
  6
ByLayer
 10
-0.0000000000000007
 20
0.0
 30
0.0
 11
-0.0000000000000004
 21
1.5
 31
0.0
  0
LINE
  5
4F
100
AcDbEntity
100
AcDbLine
  8
0
 62
256
370
18
  6
ByLayer
 10
-0.0000000000000004
 20
1.5
 30
0.0
 11
3.9999999999999996
 21
1.5
 31
0.0
  0
LINE
  5
50
100
AcDbEntity
100
AcDbLine
  8
0
 62
256
370
18
  6
ByLayer
 10
3.9999999999999987
 20
-0.0000000000000009
 30
0.0
 11
-0.0000000000000007
 21
0.0
 31
0.0
  0
LINE
  5
51
100
AcDbEntity
100
AcDbLine
  8
0
 62
256
370
18
  6
ByLayer
 10
3.9999999999999996
 20
1.5
 30
0.0
 11
3.9999999999999987
 21
-0.0000000000000009
 31
0.0
  0
LINE
  5
52
100
AcDbEntity
100
AcDbLine
  8
0
 62
256
370
18
  6
ByLayer
 10
8.0
 20
-0.0000000000000013
 30
0.0
 11
3.9999999999999987
 21
-0.0000000000000009
 31
0.0
  0
LINE
  5
53
100
AcDbEntity
100
AcDbLine
  8
0
 62
256
370
18
  6
ByLayer
 10
3.9999999999999996
 20
1.5
 30
0.0
 11
8.0
 21
1.5
 31
0.0
  0
LINE
  5
54
100
AcDbEntity
100
AcDbLine
  8
0
 62
256
370
18
  6
ByLayer
 10
3.9999999999999991
 20
0.4999999999999991
 30
0.0
 11
8.0
 21
0.5000000000000036
 31
0.0
  0
LINE
  5
55
100
AcDbEntity
100
AcDbLine
  8
0
 62
256
370
18
  6
ByLayer
 10
3.9999999999999996
 20
1.0000000000000018
 30
0.0
 11
8.0
 21
0.9999999999999964
 31
0.0
  0
LINE
  5
56
100
AcDbEntity
100
AcDbLine
  8
0
 62
256
370
18
  6
ByLayer
 10
8.0
 20
1.5
 30
0.0
 11
8.0
 21
-0.0000000000000013
 31
0.0
  0
LINE
  5
57
100
AcDbEntity
100
AcDbLine
  8
0
 62
256
370
18
  6
ByLayer
 10
6.0
 20
0.9999999999999929
 30
0.0
 11
6.0
 21
0.0000000000000036
 31
0.0
  0
MTEXT
  5
58
100
AcDbEntity
100
AcDbMText
  8
0
 62
256
370
18
  6
ByLayer
 10
4.0999999999999996
 20
1.3999999999999808
 30
0.0
 40
0.1
 41
100.0
 71
1
 72
2
  1
Part\~Name:
  7
normallatin1
 50
0.0
 73
0
 44
1.0
  0
MTEXT
  5
59
100
AcDbEntity
100
AcDbMText
  8
0
 62
256
370
18
  6
ByLayer
 10
4.0999999999999979
 20
0.8999999999999941
 30
0.0
 40
0.1
 41
100.0
 71
1
 72
2
  1
Date:
  7
normallatin1
 50
0.0
 73
0
 44
1.0
  0
MTEXT
  5
5A
100
AcDbEntity
100
AcDbMText
  8
0
 62
256
370
18
  6
ByLayer
 10
4.0999999999999996
 20
0.3999999999999959
 30
0.0
 40
0.1
 41
100.0
 71
1
 72
2
  1
Sheet\~No.:
  7
normallatin1
 50
0.0
 73
0
 44
1.0
  0
MTEXT
  5
5B
100
AcDbEntity
100
AcDbMText
  8
0
 62
256
370
18
  6
ByLayer
 10
6.0999999999999996
 20
0.900000000000003
 30
0.0
 40
0.1
 41
100.0
 71
1
 72
2
  1
Scale:
  7
normallatin1
 50
0.0
 73
0
 44
1.0
  0
MTEXT
  5
5C
100
AcDbEntity
100
AcDbMText
  8
0
 62
256
370
18
  6
ByLayer
 10
6.0999999999999979
 20
0.399999999999995
 30
0.0
 40
0.1
 41
100.0
 71
1
 72
2
  1
No.\~Sheets:
  7
normallatin1
 50
0.0
 73
0
 44
1.0
  0
MTEXT
  5
5D
100
AcDbEntity
100
AcDbMText
  8
0
 62
256
370
18
  6
ByLayer
 10
0.1999999999999992
 20
1.3000000000000007
 30
0.0
 40
0.15
 41
100.0
 71
1
 72
2
  1
STANDARD\~TOLERANCE\PUNLESS\~OTHERWISE\~SPECIFIED\P1\~Plc.\~Dec.\~%%p\~\P2\~Plc.\~Dec.\~%%p\~\P3\~Plc.\~Dec.\~%%p
  7
normallatin1
 50
0.0
 73
0
 44
1.0
  0
ENDBLK
  5
5E
100
AcDbEntity
  8
0
100
AcDbBlockEnd
  0
BLOCK
  5
5F
100
AcDbEntity
  8
0
100
AcDbBlockBegin
  2
6455K35 Bearing
 70
0
 10
0.0
 20
0.0
 30
0.0
  3
6455K35 Bearing
  1

  0
HATCH
  5
60
  8
0
 62
256
370
-1
  6
ByLayer
100
AcDbEntity
100
AcDbHatch
 10
0.0
 20
0.0
 30
0.0
210
0.0
220
0.0
230
1.0
  2
ansi31
 70
0
 71
0
 91
1
 92
1
 93
8
 72
1
 10
0.0
 20
0.5625000000000004
 11
0.3125
 21
0.5625000000000007
 72
1
 10
0.3125
 20
0.5625000000000007
 11
0.3125
 21
0.3125000000000006
 72
1
 10
0.3125
 20
0.3125000000000006
 11
0.0
 21
0.3125000000000006
 72
1
 10
0.0
 20
0.3125000000000006
 11
0.0
 21
0.5625000000000004
 72
1
 10
0.3125
 20
-0.5624999999999996
 11
0.0
 21
-0.5624999999999996
 72
1
 10
0.0
 20
-0.5624999999999996
 11
0.0
 21
-0.3124999999999994
 72
1
 10
0.0
 20
-0.3124999999999994
 11
0.3125
 21
-0.3124999999999995
 72
1
 10
0.3125
 20
-0.3124999999999995
 11
0.3125
 21
-0.5624999999999996
 97
0
 75
0
 76
1
 52
1.5707963267948966
 41
0.005
 77
0
 78
1
 53
45.0
 43
0.0
 44
0.0
 45
-0.0883883476483184
 46
0.0883883476483185
 79
0
 98
0
  0
LINE
  5
61
100
AcDbEntity
100
AcDbLine
  8
0
 62
256
370
-1
  6
ByLayer
 10
0.0
 20
0.5625000000000004
 30
0.0
 11
0.3125
 21
0.5625000000000007
 31
0.0
  0
LINE
  5
62
100
AcDbEntity
100
AcDbLine
  8
0
 62
256
370
-1
  6
ByLayer
 10
0.3125
 20
-0.5624999999999996
 30
0.0
 11
0.0
 21
-0.5624999999999996
 31
0.0
  0
LINE
  5
63
100
AcDbEntity
100
AcDbLine
  8
0
 62
256
370
-1
  6
ByLayer
 10
0.3125
 20
-0.3124999999999995
 30
0.0
 11
0.0
 21
-0.3124999999999994
 31
0.0
  0
LINE
  5
64
100
AcDbEntity
100
AcDbLine
  8
0
 62
256
370
-1
  6
ByLayer
 10
0.0
 20
0.3125000000000006
 30
0.0
 11
0.3125
 21
0.3125000000000006
 31
0.0
  0
LINE
  5
65
100
AcDbEntity
100
AcDbLine
  8
0
 62
256
370
-1
  6
ByLayer
 10
0.3125
 20
0.3125000000000006
 30
0.0
 11
0.3125
 21
-0.3124999999999995
 31
0.0
  0
LINE
  5
66
100
AcDbEntity
100
AcDbLine
  8
0
 62
256
370
-1
  6
ByLayer
 10
0.0
 20
-0.3124999999999994
 30
0.0
 11
0.0
 21
0.3125000000000006
 31
0.0
  0
LINE
  5
67
100
AcDbEntity
100
AcDbLine
  8
0
 62
256
370
-1
  6
ByLayer
 10
0.0
 20
0.3125000000000006
 30
0.0
 11
0.0
 21
0.5625000000000004
 31
0.0
  0
LINE
  5
68
100
AcDbEntity
100
AcDbLine
  8
0
 62
256
370
-1
  6
ByLayer
 10
0.3125
 20
0.5625000000000007
 30
0.0
 11
0.3125
 21
0.3125000000000006
 31
0.0
  0
LINE
  5
69
100
AcDbEntity
100
AcDbLine
  8
0
 62
256
370
-1
  6
ByLayer
 10
0.3125
 20
-0.3124999999999995
 30
0.0
 11
0.3125
 21
-0.5624999999999996
 31
0.0
  0
LINE
  5
6A
100
AcDbEntity
100
AcDbLine
  8
0
 62
256
370
-1
  6
ByLayer
 10
0.0
 20
-0.5624999999999996
 30
0.0
 11
0.0
 21
-0.3124999999999994
 31
0.0
  0
ENDBLK
  5
6B
100
AcDbEntity
  8
0
100
AcDbBlockEnd
  0
BLOCK
  5
6C
100
AcDbEntity
  8
0
100
AcDbBlockBegin
  2
3826T13 Bearing
 70
0
 10
0.0
 20
0.0
 30
0.0
  3
3826T13 Bearing
  1

  0
HATCH
  5
6D
  8
0
 62
256
370
-1
  6
ByLayer
100
AcDbEntity
100
AcDbHatch
 10
0.0
 20
0.0
 30
0.0
210
0.0
220
0.0
230
1.0
  2
ansi31
 70
0
 71
0
 91
1
 92
1
 93
2
 72
2
 10
0.0000000000000009
 20
-0.00625
 40
0.09375
 50
0.0
 51
360.0
 73
1
 72
2
 10
0.0000000000000009
 20
-0.00625
 40
0.1875
 50
0.0
 51
360.0
 73
1
 97
0
 75
0
 76
1
 52
1.5707963267948966
 41
0.005
 77
0
 78
1
 53
45.0
 43
0.0
 44
0.0
 45
-0.0883883476483184
 46
0.0883883476483185
 79
0
 98
0
  0
CIRCLE
  5
6E
100
AcDbEntity
100
AcDbCircle
  8
0
 62
256
370
-1
  6
ByLayer
 10
0.0000000000000009
 20
-0.00625
 30
0.0
 40
0.09375
  0
CIRCLE
  5
6F
100
AcDbEntity
100
AcDbCircle
  8
0
 62
256
370
-1
  6
ByLayer
 10
0.0000000000000009
 20
-0.00625
 30
0.0
 40
0.1875
  0
ENDBLK
  5
70
100
AcDbEntity
  8
0
100
AcDbBlockEnd
  0
BLOCK
  5
71
100
AcDbEntity
  8
0
100
AcDbBlockBegin
  2
Servo_Side
 70
0
 10
0.0
 20
0.0
 30
0.0
  3
Servo_Side
  1

  0
LINE
  5
72
100
AcDbEntity
100
AcDbLine
  8
0
 62
256
370
18
  6
ByLayer
 10
0.0000000000000004
 20
-0.0049999999999999
 30
0.0
 11
0.0000000000000004
 21
-1.5750000000000002
 31
0.0
  0
LINE
  5
73
100
AcDbEntity
100
AcDbLine
  8
0
 62
256
370
18
  6
ByLayer
 10
1.3000000000000003
 20
-0.0049999999999999
 30
0.0
 11
1.2000000000000006
 21
-0.0049999999999999
 31
0.0
  0
LINE
  5
74
100
AcDbEntity
100
AcDbLine
  8
0
 62
256
370
18
  6
ByLayer
 10
1.1000000000000001
 20
-0.0049999999999999
 30
0.0
 11
1.1000000000000001
 21
0.295
 31
0.0
  0
LINE
  5
75
100
AcDbEntity
100
AcDbLine
  8
0
 62
256
370
18
  6
ByLayer
 10
1.1000000000000001
 20
0.295
 30
0.0
 11
1.2000000000000006
 21
0.295
 31
0.0
  0
LINE
  5
76
100
AcDbEntity
100
AcDbLine
  8
0
 62
256
370
18
  6
ByLayer
 10
1.2000000000000006
 20
0.295
 30
0.0
 11
1.2000000000000006
 21
-0.0049999999999999
 31
0.0
  0
LINE
  5
77
100
AcDbEntity
100
AcDbLine
  8
0
 62
256
370
18
  6
ByLayer
 10
1.1000000000000001
 20
-1.5750000000000002
 30
0.0
 11
1.1000000000000001
 21
-1.875
 31
0.0
  0
LINE
  5
78
100
AcDbEntity
100
AcDbLine
  8
0
 62
256
370
18
  6
ByLayer
 10
1.1000000000000001
 20
-1.875
 30
0.0
 11
1.2000000000000006
 21
-1.875
 31
0.0
  0
LINE
  5
79
100
AcDbEntity
100
AcDbLine
  8
0
 62
256
370
18
  6
ByLayer
 10
1.2000000000000006
 20
-1.875
 30
0.0
 11
1.2000000000000006
 21
-1.5750000000000002
 31
0.0
  0
LINE
  5
7A
100
AcDbEntity
100
AcDbLine
  8
0
 62
256
370
18
  6
ByLayer
 10
0.0000000000000004
 20
-1.5750000000000002
 30
0.0
 11
1.1000000000000001
 21
-1.5750000000000002
 31
0.0
  0
LINE
  5
7B
100
AcDbEntity
100
AcDbLine
  8
0
 62
256
370
18
  6
ByLayer
 10
1.1000000000000001
 20
-0.0049999999999999
 30
0.0
 11
0.0000000000000004
 21
-0.0049999999999999
 31
0.0
  0
LINE
  5
7C
100
AcDbEntity
100
AcDbLine
  8
0
 62
256
370
18
  6
ByLayer
 10
1.2000000000000006
 20
-1.5750000000000002
 30
0.0
 11
1.3000000000000012
 21
-1.5750000000000002
 31
0.0
  0
LINE
  5
7D
100
AcDbEntity
100
AcDbLine
  8
0
 62
256
370
18
  6
ByLayer
 10
1.3000000000000003
 20
-1.5750000000000002
 30
0.0
 11
1.3500000000000001
 21
-1.4050000000000002
 31
0.0
  0
LINE
  5
7E
100
AcDbEntity
100
AcDbLine
  8
0
 62
256
370
18
  6
ByLayer
 10
1.3500000000000001
 20
-1.4050000000000002
 30
0.0
 11
1.5000000000000004
 21
-1.3549999999999995
 31
0.0
  0
LINE
  5
7F
100
AcDbEntity
100
AcDbLine
  8
0
 62
256
370
18
  6
ByLayer
 10
1.5000000000000004
 20
-1.3549999999999995
 30
0.0
 11
1.5000000000000004
 21
-0.0949999999999998
 31
0.0
  0
LINE
  5
80
100
AcDbEntity
100
AcDbLine
  8
0
 62
256
370
18
  6
ByLayer
 10
1.5000000000000004
 20
-0.0949999999999998
 30
0.0
 11
1.3000000000000003
 21
-0.0049999999999999
 31
0.0
  0
LINE
  5
81
100
AcDbEntity
100
AcDbLine
  8
0
 62
256
370
18
  6
ByLayer
 10
1.5000000000000004
 20
-0.125
 30
0.0
 11
1.5899999999999994
 21
-0.1749999999999998
 31
0.0
  0
LINE
  5
82
100
AcDbEntity
100
AcDbLine
  8
0
 62
256
370
18
  6
ByLayer
 10
1.5899999999999994
 20
-0.1749999999999998
 30
0.0
 11
1.5900000000000003
 21
-0.6249999999999996
 31
0.0
  0
LINE
  5
83
100
AcDbEntity
100
AcDbLine
  8
0
 62
256
370
18
  6
ByLayer
 10
1.5900000000000003
 20
-0.6249999999999996
 30
0.0
 11
1.5000000000000004
 21
-0.6749999999999998
 31
0.0
  0
LINE
  5
84
100
AcDbEntity
100
AcDbLine
  8
0
 62
256
370
18
  6
ByLayer
 10
1.5900000000000003
 20
-0.2850000000000001
 30
0.0
 11
1.7400000000000007
 21
-0.2849999999999993
 31
0.0
  0
LINE
  5
85
100
AcDbEntity
100
AcDbLine
  8
0
 62
256
370
18
  6
ByLayer
 10
1.7400000000000007
 20
-0.2849999999999993
 30
0.0
 11
1.7400000000000007
 21
-0.5149999999999988
 31
0.0
  0
LINE
  5
86
100
AcDbEntity
100
AcDbLine
  8
0
 62
256
370
18
  6
ByLayer
 10
1.7400000000000007
 20
-0.5149999999999988
 30
0.0
 11
1.5900000000000003
 21
-0.5149999999999988
 31
0.0
  0
LINE
  5
87
100
AcDbEntity
100
AcDbLine
  8
0
 62
256
370
18
  6
DASHED2
 10
1.1000000000000001
 20
-1.8549999999999995
 30
0.0
 11
1.2000000000000006
 21
-1.8549999999999995
 31
0.0
  0
LINE
  5
88
100
AcDbEntity
100
AcDbLine
  8
0
 62
256
370
18
  6
DASHED2
 10
1.2000000000000006
 20
-1.6849999999999996
 30
0.0
 11
1.1000000000000001
 21
-1.6849999999999996
 31
0.0
  0
LINE
  5
89
100
AcDbEntity
100
AcDbLine
  8
0
 62
256
370
18
  6
DASHED2
 10
1.0999999999999992
 20
0.2750000000000004
 30
0.0
 11
1.2000000000000006
 21
0.2750000000000004
 31
0.0
  0
LINE
  5
8A
100
AcDbEntity
100
AcDbLine
  8
0
 62
256
370
18
  6
DASHED2
 10
1.2000000000000006
 20
0.1050000000000005
 30
0.0
 11
1.100000000000001
 21
0.1050000000000005
 31
0.0
  0
LINE
  5
8B
100
AcDbEntity
100
AcDbLine
  8
0
 62
256
370
18
  6
ByLayer
 10
0.0700000000000034
 20
-0.0049999999999999
 30
0.0
 11
0.0899999999999976
 21
0.295
 31
0.0
  0
LINE
  5
8C
100
AcDbEntity
100
AcDbLine
  8
0
 62
256
370
18
  6
ByLayer
 10
0.0899999999999976
 20
0.295
 30
0.0
 11
0.2300000000000018
 21
0.295
 31
0.0
  0
LINE
  5
8D
100
AcDbEntity
100
AcDbLine
  8
0
 62
256
370
18
  6
ByLayer
 10
0.2300000000000018
 20
0.295
 30
0.0
 11
0.2500000000000004
 21
-0.0049999999999999
 31
0.0
  0
ENDBLK
  5
8E
100
AcDbEntity
  8
0
100
AcDbBlockEnd
  0
BLOCK
  5
8F
100
AcDbEntity
  8
0
100
AcDbBlockBegin
  2
Servo_Front
 70
0
 10
0.0
 20
0.0
 30
0.0
  3
Servo_Front
  1

  0
LINE
  5
90
100
AcDbEntity
100
AcDbLine
  8
0
 62
256
370
18
  6
ByLayer
 10
1.8000000000000007
 20
0.2750000000000004
 30
0.0
 11
1.8900000000000006
 21
0.2249999999999999
 31
0.0
  0
LINE
  5
91
100
AcDbEntity
100
AcDbLine
  8
0
 62
256
370
18
  6
ByLayer
 10
1.8900000000000006
 20
0.2249999999999999
 30
0.0
 11
1.8900000000000006
 21
-0.2249999999999994
 31
0.0
  0
LINE
  5
92
100
AcDbEntity
100
AcDbLine
  8
0
 62
256
370
18
  6
ByLayer
 10
1.8900000000000006
 20
-0.2249999999999994
 30
0.0
 11
1.8000000000000007
 21
-0.2750000000000001
 31
0.0
  0
LINE
  5
93
100
AcDbEntity
100
AcDbLine
  8
0
 62
256
370
18
  6
ByLayer
 10
1.8900000000000006
 20
0.1150000000000002
 30
0.0
 11
2.04
 21
0.1150000000000011
 31
0.0
  0
LINE
  5
94
100
AcDbEntity
100
AcDbLine
  8
0
 62
256
370
18
  6
ByLayer
 10
2.04
 20
0.1150000000000011
 30
0.0
 11
2.04
 21
-0.1149999999999991
 31
0.0
  0
LINE
  5
95
100
AcDbEntity
100
AcDbLine
  8
0
 62
256
370
18
  6
ByLayer
 10
2.04
 20
-0.1149999999999991
 30
0.0
 11
1.8900000000000006
 21
-0.1149999999999991
 31
0.0
  0
LINE
  5
96
100
AcDbEntity
100
AcDbLine
  8
0
 62
256
370
18
  6
ByLayer
 10
0.0
 20
0.3879999999999999
 30
0.0
 11
0.0
 21
-0.3819999999999997
 31
0.0
  0
LINE
  5
97
100
AcDbEntity
100
AcDbLine
  8
0
 62
256
370
18
  6
ByLayer
 10
0.0
 20
-0.3819999999999997
 30
0.0
 11
1.8000000000000007
 21
-0.3819999999999997
 31
0.0
  0
LINE
  5
98
100
AcDbEntity
100
AcDbLine
  8
0
 62
256
370
18
  6
ByLayer
 10
1.8000000000000007
 20
-0.3819999999999997
 30
0.0
 11
1.8000000000000007
 21
0.3880000000000001
 31
0.0
  0
LINE
  5
99
100
AcDbEntity
100
AcDbLine
  8
0
 62
256
370
18
  6
ByLayer
 10
1.8000000000000007
 20
0.3880000000000001
 30
0.0
 11
0.0
 21
0.3879999999999999
 31
0.0
  0
LINE
  5
9A
100
AcDbEntity
100
AcDbLine
  8
0
 62
256
370
18
  6
ByLayer
 10
1.3000000000000007
 20
-0.3819999999999997
 30
0.0
 11
1.3000000000000007
 21
0.3880000000000001
 31
0.0
  0
LINE
  5
9B
100
AcDbEntity
100
AcDbLine
  8
0
 62
256
370
18
  6
ByLayer
 10
1.1999999999999993
 20
0.3879999999999999
 30
0.0
 11
1.2000000000000002
 21
-0.3819999999999997
 31
0.0
  0
LINE
  5
9C
100
AcDbEntity
100
AcDbLine
  8
0
 62
256
370
18
  6
DASHED2
 10
1.2000000000000002
 20
0.1000000000000005
 30
0.0
 11
1.2999999999999998
 21
0.1000000000000008
 31
0.0
  0
LINE
  5
9D
100
AcDbEntity
100
AcDbLine
  8
0
 62
256
370
18
  6
DASHED2
 10
1.2999999999999998
 20
0.2699999999999998
 30
0.0
 11
1.2000000000000002
 21
0.2699999999999998
 31
0.0
  0
LINE
  5
9E
100
AcDbEntity
100
AcDbLine
  8
0
 62
256
370
18
  6
DASHED2
 10
1.2000000000000002
 20
-0.2699999999999996
 30
0.0
 11
1.2999999999999998
 21
-0.2699999999999996
 31
0.0
  0
LINE
  5
9F
100
AcDbEntity
100
AcDbLine
  8
0
 62
256
370
18
  6
DASHED2
 10
1.3000000000000007
 20
-0.0999999999999996
 30
0.0
 11
1.2000000000000002
 21
-0.0999999999999994
 31
0.0
  0
LINE
  5
A0
100
AcDbEntity
100
AcDbLine
  8
0
 62
256
370
18
  6
ByLayer
 10
0.0700000000000003
 20
0.1500000000000004
 30
0.0
 11
0.0700000000000003
 21
-0.1500000000000004
 31
0.0
  0
LINE
  5
A1
100
AcDbEntity
100
AcDbLine
  8
0
 62
256
370
18
  6
ByLayer
 10
0.0700000000000003
 20
-0.1500000000000004
 30
0.0
 11
0.25
 21
-0.1500000000000004
 31
0.0
  0
LINE
  5
A2
100
AcDbEntity
100
AcDbLine
  8
0
 62
256
370
18
  6
ByLayer
 10
0.25
 20
-0.1500000000000004
 30
0.0
 11
0.25
 21
0.1500000000000004
 31
0.0
  0
LINE
  5
A3
100
AcDbEntity
100
AcDbLine
  8
0
 62
256
370
18
  6
ByLayer
 10
0.25
 20
0.1500000000000004
 30
0.0
 11
0.0700000000000003
 21
0.1500000000000004
 31
0.0
  0
LINE
  5
A4
100
AcDbEntity
100
AcDbLine
  8
0
 62
256
370
18
  6
ByLayer
 10
0.2300000000000004
 20
0.1200000000000001
 30
0.0
 11
0.0899999999999999
 21
0.1200000000000001
 31
0.0
  0
LINE
  5
A5
100
AcDbEntity
100
AcDbLine
  8
0
 62
256
370
18
  6
ByLayer
 10
0.0899999999999999
 20
0.1200000000000001
 30
0.0
 11
0.0899999999999999
 21
-0.1200000000000001
 31
0.0
  0
LINE
  5
A6
100
AcDbEntity
100
AcDbLine
  8
0
 62
256
370
18
  6
ByLayer
 10
0.0899999999999999
 20
-0.1200000000000001
 30
0.0
 11
0.2300000000000004
 21
-0.1200000000000001
 31
0.0
  0
LINE
  5
A7
100
AcDbEntity
100
AcDbLine
  8
0
 62
256
370
18
  6
ByLayer
 10
0.2300000000000004
 20
-0.1200000000000001
 30
0.0
 11
0.2300000000000004
 21
0.1200000000000001
 31
0.0
  0
ENDBLK
  5
A8
100
AcDbEntity
  8
0
100
AcDbBlockEnd
  0
BLOCK
  5
A9
100
AcDbEntity
  8
0
100
AcDbBlockBegin
  2
letter_border-0
 70
0
 10
0.0
 20
0.0
 30
0.0
  3
letter_border-0
  1

  0
LINE
  5
AA
100
AcDbEntity
100
AcDbLine
  8
0
 62
0
370
-2
  6
CONTINUOUS
 10
1.5
 20
8.3000000000000007
 30
0.0
 11
1.5
 21
8.0
 31
0.0
  0
LINE
  5
AB
100
AcDbEntity
100
AcDbLine
  8
0
 62
0
370
-2
  6
CONTINUOUS
 10
2.5
 20
8.0
 30
0.0
 11
2.5
 21
8.3000000000000007
 31
0.0
  0
LINE
  5
AC
100
AcDbEntity
100
AcDbLine
  8
0
 62
0
370
-2
  6
CONTINUOUS
 10
3.5000000000000004
 20
8.0
 30
0.0
 11
3.5000000000000004
 21
8.3000000000000007
 31
0.0
  0
LINE
  5
AD
100
AcDbEntity
100
AcDbLine
  8
0
 62
0
370
-2
  6
CONTINUOUS
 10
4.5
 20
8.3000000000000007
 30
0.0
 11
4.5
 21
8.0
 31
0.0
  0
LINE
  5
AE
100
AcDbEntity
100
AcDbLine
  8
0
 62
0
370
-2
  6
CONTINUOUS
 10
5.5
 20
8.0
 30
0.0
 11
5.5
 21
8.3000000000000007
 31
0.0
  0
LINE
  5
AF
100
AcDbEntity
100
AcDbLine
  8
0
 62
0
370
-2
  6
CONTINUOUS
 10
6.5000000000000009
 20
8.0
 30
0.0
 11
6.5000000000000009
 21
8.3000000000000007
 31
0.0
  0
LINE
  5
B0
100
AcDbEntity
100
AcDbLine
  8
0
 62
0
370
-2
  6
CONTINUOUS
 10
7.5
 20
8.3000000000000007
 30
0.0
 11
7.5
 21
8.0
 31
0.0
  0
LINE
  5
B1
100
AcDbEntity
100
AcDbLine
  8
0
 62
0
370
-2
  6
CONTINUOUS
 10
8.5
 20
8.0
 30
0.0
 11
8.5
 21
8.3000000000000007
 31
0.0
  0
LINE
  5
B2
100
AcDbEntity
100
AcDbLine
  8
0
 62
0
370
-2
  6
CONTINUOUS
 10
9.5
 20
8.0
 30
0.0
 11
9.5
 21
8.3000000000000007
 31
0.0
  0
LINE
  5
B3
100
AcDbEntity
100
AcDbLine
  8
0
 62
0
370
-2
  6
CONTINUOUS
 10
0.5
 20
7.0
 30
0.0
 11
0.2000000000000002
 21
7.0
 31
0.0
  0
LINE
  5
B4
100
AcDbEntity
100
AcDbLine
  8
0
 62
0
370
-2
  6
CONTINUOUS
 10
0.5
 20
6.0
 30
0.0
 11
0.2000000000000002
 21
6.0
 31
0.0
  0
LINE
  5
B5
100
AcDbEntity
100
AcDbLine
  8
0
 62
0
370
-2
  6
CONTINUOUS
 10
0.5
 20
5.0
 30
0.0
 11
0.2000000000000002
 21
5.0
 31
0.0
  0
LINE
  5
B6
100
AcDbEntity
100
AcDbLine
  8
0
 62
0
370
-2
  6
CONTINUOUS
 10
0.5
 20
4.0
 30
0.0
 11
0.2000000000000002
 21
4.0
 31
0.0
  0
LINE
  5
B7
100
AcDbEntity
100
AcDbLine
  8
0
 62
0
370
-2
  6
CONTINUOUS
 10
0.5
 20
3.0000000000000004
 30
0.0
 11
0.2000000000000002
 21
3.0000000000000004
 31
0.0
  0
LINE
  5
B8
100
AcDbEntity
100
AcDbLine
  8
0
 62
0
370
-2
  6
CONTINUOUS
 10
0.5
 20
2.0
 30
0.0
 11
0.2000000000000002
 21
2.0
 31
0.0
  0
LINE
  5
B9
100
AcDbEntity
100
AcDbLine
  8
0
 62
0
370
-2
  6
CONTINUOUS
 10
0.5
 20
1.0
 30
0.0
 11
0.2000000000000002
 21
1.0
 31
0.0
  0
MTEXT
  5
BA
100
AcDbEntity
100
AcDbMText
  8
0
 62
0
370
-2
  6
CONTINUOUS
 10
1.0
 20
8.1000000000000014
 30
0.0
 40
0.1
 41
100.0
 71
8
 72
2
  1
1
  7
normallatin1
 50
0.0
 73
0
 44
1.0
  0
MTEXT
  5
BB
100
AcDbEntity
100
AcDbMText
  8
0
 62
0
370
-2
  6
CONTINUOUS
 10
2.0
 20
8.1000000000000014
 30
0.0
 40
0.1
 41
100.0
 71
8
 72
2
  1
2
  7
normallatin1
 50
0.0
 73
0
 44
1.0
  0
MTEXT
  5
BC
100
AcDbEntity
100
AcDbMText
  8
0
 62
0
370
-2
  6
CONTINUOUS
 10
3.0
 20
8.1000000000000014
 30
0.0
 40
0.1
 41
100.0
 71
8
 72
2
  1
3
  7
normallatin1
 50
0.0
 73
0
 44
1.0
  0
MTEXT
  5
BD
100
AcDbEntity
100
AcDbMText
  8
0
 62
0
370
-2
  6
CONTINUOUS
 10
4.0000000000000009
 20
8.1000000000000014
 30
0.0
 40
0.1
 41
100.0
 71
8
 72
2
  1
4
  7
normallatin1
 50
0.0
 73
0
 44
1.0
  0
MTEXT
  5
BE
100
AcDbEntity
100
AcDbMText
  8
0
 62
0
370
-2
  6
CONTINUOUS
 10
5.0000000000000009
 20
8.1000000000000014
 30
0.0
 40
0.1
 41
100.0
 71
8
 72
2
  1
5
  7
normallatin1
 50
0.0
 73
0
 44
1.0
  0
MTEXT
  5
BF
100
AcDbEntity
100
AcDbMText
  8
0
 62
0
370
-2
  6
CONTINUOUS
 10
6.0000000000000009
 20
8.1000000000000014
 30
0.0
 40
0.1
 41
100.0
 71
8
 72
2
  1
6
  7
normallatin1
 50
0.0
 73
0
 44
1.0
  0
MTEXT
  5
C0
100
AcDbEntity
100
AcDbMText
  8
0
 62
0
370
-2
  6
CONTINUOUS
 10
7.0
 20
8.1000000000000014
 30
0.0
 40
0.1
 41
100.0
 71
8
 72
2
  1
7
  7
normallatin1
 50
0.0
 73
0
 44
1.0
  0
MTEXT
  5
C1
100
AcDbEntity
100
AcDbMText
  8
0
 62
0
370
-2
  6
CONTINUOUS
 10
8.0
 20
8.1000000000000014
 30
0.0
 40
0.1
 41
100.0
 71
8
 72
2
  1
8
  7
normallatin1
 50
0.0
 73
0
 44
1.0
  0
MTEXT
  5
C2
100
AcDbEntity
100
AcDbMText
  8
0
 62
0
370
-2
  6
CONTINUOUS
 10
9.0
 20
8.1000000000000014
 30
0.0
 40
0.1
 41
100.0
 71
8
 72
2
  1
9
  7
normallatin1
 50
0.0
 73
0
 44
1.0
  0
MTEXT
  5
C3
100
AcDbEntity
100
AcDbMText
  8
0
 62
0
370
-2
  6
CONTINUOUS
 10
10.0
 20
8.1000000000000014
 30
0.0
 40
0.1
 41
100.0
 71
8
 72
2
  1
10
  7
normallatin1
 50
0.0
 73
0
 44
1.0
  0
MTEXT
  5
C4
100
AcDbEntity
100
AcDbMText
  8
0
 62
0
370
-2
  6
CONTINUOUS
 10
0.2999999999999998
 20
7.5000000000000009
 30
0.0
 40
0.1
 41
100.0
 71
4
 72
2
  1
A
  7
normallatin1
 50
0.0
 73
0
 44
1.0
  0
MTEXT
  5
C5
100
AcDbEntity
100
AcDbMText
  8
0
 62
0
370
-2
  6
CONTINUOUS
 10
0.2999999999999998
 20
6.5000000000000009
 30
0.0
 40
0.1
 41
100.0
 71
4
 72
2
  1
B
  7
normallatin1
 50
0.0
 73
0
 44
1.0
  0
MTEXT
  5
C6
100
AcDbEntity
100
AcDbMText
  8
0
 62
0
370
-2
  6
CONTINUOUS
 10
0.2999999999999998
 20
5.5000000000000009
 30
0.0
 40
0.1
 41
100.0
 71
4
 72
2
  1
C
  7
normallatin1
 50
0.0
 73
0
 44
1.0
  0
MTEXT
  5
C7
100
AcDbEntity
100
AcDbMText
  8
0
 62
0
370
-2
  6
CONTINUOUS
 10
0.2999999999999998
 20
4.5
 30
0.0
 40
0.1
 41
100.0
 71
4
 72
2
  1
D
  7
normallatin1
 50
0.0
 73
0
 44
1.0
  0
MTEXT
  5
C8
100
AcDbEntity
100
AcDbMText
  8
0
 62
0
370
-2
  6
CONTINUOUS
 10
0.2999999999999998
 20
3.5
 30
0.0
 40
0.1
 41
100.0
 71
4
 72
2
  1
E
  7
normallatin1
 50
0.0
 73
0
 44
1.0
  0
MTEXT
  5
C9
100
AcDbEntity
100
AcDbMText
  8
0
 62
0
370
-2
  6
CONTINUOUS
 10
0.2999999999999998
 20
2.5
 30
0.0
 40
0.1
 41
100.0
 71
4
 72
2
  1
F
  7
normallatin1
 50
0.0
 73
0
 44
1.0
  0
MTEXT
  5
CA
100
AcDbEntity
100
AcDbMText
  8
0
 62
0
370
-2
  6
CONTINUOUS
 10
0.2999999999999998
 20
1.5
 30
0.0
 40
0.1
 41
100.0
 71
4
 72
2
  1
G
  7
normallatin1
 50
0.0
 73
0
 44
1.0
  0
MTEXT
  5
CB
100
AcDbEntity
100
AcDbMText
  8
0
 62
0
370
-2
  6
CONTINUOUS
 10
0.2999999999999998
 20
0.7000000000000001
 30
0.0
 40
0.1
 41
100.0
 71
4
 72
2
  1
H
  7
normallatin1
 50
0.0
 73
0
 44
1.0
  0
LINE
  5
CC
100
AcDbEntity
100
AcDbLine
  8
0
 62
0
370
-2
  6
CONTINUOUS
 10
10.5
 20
0.5000000000000001
 30
0.0
 11
10.5000000000000018
 21
8.0
 31
0.0
  0
LINE
  5
CD
100
AcDbEntity
100
AcDbLine
  8
0
 62
0
370
-2
  6
CONTINUOUS
 10
0.5
 20
8.0000000000000018
 30
0.0
 11
10.5000000000000018
 21
8.0
 31
0.0
  0
LINE
  5
CE
100
AcDbEntity
100
AcDbLine
  8
0
 62
0
370
-2
  6
CONTINUOUS
 10
0.5
 20
8.0000000000000018
 30
0.0
 11
0.5
 21
0.5000000000000001
 31
0.0
  0
LINE
  5
CF
100
AcDbEntity
100
AcDbLine
  8
0
 62
0
370
-2
  6
CONTINUOUS
 10
0.5
 20
0.5000000000000001
 30
0.0
 11
10.5000000000000018
 21
0.5000000000000001
 31
0.0
  0
LINE
  5
D0
100
AcDbEntity
100
AcDbLine
  8
0
 62
0
370
-2
  6
CONTINUOUS
 10
1.5
 20
0.5
 30
0.0
 11
1.5
 21
0.1999999999999993
 31
0.0
  0
LINE
  5
D1
100
AcDbEntity
100
AcDbLine
  8
0
 62
0
370
-2
  6
CONTINUOUS
 10
2.5
 20
0.1999999999999993
 30
0.0
 11
2.5
 21
0.5
 31
0.0
  0
LINE
  5
D2
100
AcDbEntity
100
AcDbLine
  8
0
 62
0
370
-2
  6
CONTINUOUS
 10
3.5000000000000004
 20
0.1999999999999993
 30
0.0
 11
3.5000000000000004
 21
0.5
 31
0.0
  0
LINE
  5
D3
100
AcDbEntity
100
AcDbLine
  8
0
 62
0
370
-2
  6
CONTINUOUS
 10
4.5
 20
0.5
 30
0.0
 11
4.5
 21
0.1999999999999993
 31
0.0
  0
LINE
  5
D4
100
AcDbEntity
100
AcDbLine
  8
0
 62
0
370
-2
  6
CONTINUOUS
 10
5.5
 20
0.1999999999999993
 30
0.0
 11
5.5
 21
0.5
 31
0.0
  0
LINE
  5
D5
100
AcDbEntity
100
AcDbLine
  8
0
 62
0
370
-2
  6
CONTINUOUS
 10
6.5000000000000009
 20
0.1999999999999993
 30
0.0
 11
6.5000000000000009
 21
0.5
 31
0.0
  0
LINE
  5
D6
100
AcDbEntity
100
AcDbLine
  8
0
 62
0
370
-2
  6
CONTINUOUS
 10
7.5
 20
0.5
 30
0.0
 11
7.5
 21
0.1999999999999993
 31
0.0
  0
LINE
  5
D7
100
AcDbEntity
100
AcDbLine
  8
0
 62
0
370
-2
  6
CONTINUOUS
 10
8.5
 20
0.1999999999999993
 30
0.0
 11
8.5
 21
0.5
 31
0.0
  0
LINE
  5
D8
100
AcDbEntity
100
AcDbLine
  8
0
 62
0
370
-2
  6
CONTINUOUS
 10
9.5
 20
0.1999999999999993
 30
0.0
 11
9.5
 21
0.5
 31
0.0
  0
MTEXT
  5
D9
100
AcDbEntity
100
AcDbMText
  8
0
 62
0
370
-2
  6
CONTINUOUS
 10
1.0
 20
0.3000000000000007
 30
0.0
 40
0.1
 41
100.0
 71
8
 72
2
  1
1
  7
normallatin1
 50
0.0
 73
0
 44
1.0
  0
MTEXT
  5
DA
100
AcDbEntity
100
AcDbMText
  8
0
 62
0
370
-2
  6
CONTINUOUS
 10
2.0
 20
0.3000000000000007
 30
0.0
 40
0.1
 41
100.0
 71
8
 72
2
  1
2
  7
normallatin1
 50
0.0
 73
0
 44
1.0
  0
MTEXT
  5
DB
100
AcDbEntity
100
AcDbMText
  8
0
 62
0
370
-2
  6
CONTINUOUS
 10
3.0
 20
0.3000000000000007
 30
0.0
 40
0.1
 41
100.0
 71
8
 72
2
  1
3
  7
normallatin1
 50
0.0
 73
0
 44
1.0
  0
MTEXT
  5
DC
100
AcDbEntity
100
AcDbMText
  8
0
 62
0
370
-2
  6
CONTINUOUS
 10
4.0000000000000009
 20
0.3000000000000007
 30
0.0
 40
0.1
 41
100.0
 71
8
 72
2
  1
4
  7
normallatin1
 50
0.0
 73
0
 44
1.0
  0
MTEXT
  5
DD
100
AcDbEntity
100
AcDbMText
  8
0
 62
0
370
-2
  6
CONTINUOUS
 10
5.0000000000000009
 20
0.3000000000000007
 30
0.0
 40
0.1
 41
100.0
 71
8
 72
2
  1
5
  7
normallatin1
 50
0.0
 73
0
 44
1.0
  0
MTEXT
  5
DE
100
AcDbEntity
100
AcDbMText
  8
0
 62
0
370
-2
  6
CONTINUOUS
 10
6.0000000000000009
 20
0.3000000000000007
 30
0.0
 40
0.1
 41
100.0
 71
8
 72
2
  1
6
  7
normallatin1
 50
0.0
 73
0
 44
1.0
  0
MTEXT
  5
DF
100
AcDbEntity
100
AcDbMText
  8
0
 62
0
370
-2
  6
CONTINUOUS
 10
7.0
 20
0.3000000000000007
 30
0.0
 40
0.1
 41
100.0
 71
8
 72
2
  1
7
  7
normallatin1
 50
0.0
 73
0
 44
1.0
  0
MTEXT
  5
E0
100
AcDbEntity
100
AcDbMText
  8
0
 62
0
370
-2
  6
CONTINUOUS
 10
8.0
 20
0.3000000000000007
 30
0.0
 40
0.1
 41
100.0
 71
8
 72
2
  1
8
  7
normallatin1
 50
0.0
 73
0
 44
1.0
  0
MTEXT
  5
E1
100
AcDbEntity
100
AcDbMText
  8
0
 62
0
370
-2
  6
CONTINUOUS
 10
9.0
 20
0.3000000000000007
 30
0.0
 40
0.1
 41
100.0
 71
8
 72
2
  1
9
  7
normallatin1
 50
0.0
 73
0
 44
1.0
  0
MTEXT
  5
E2
100
AcDbEntity
100
AcDbMText
  8
0
 62
0
370
-2
  6
CONTINUOUS
 10
10.0
 20
0.3000000000000007
 30
0.0
 40
0.1
 41
100.0
 71
8
 72
2
  1
10
  7
normallatin1
 50
0.0
 73
0
 44
1.0
  0
LINE
  5
E3
100
AcDbEntity
100
AcDbLine
  8
0
 62
0
370
-2
  6
CONTINUOUS
 10
10.8000000000000007
 20
7.0
 30
0.0
 11
10.5
 21
7.0
 31
0.0
  0
LINE
  5
E4
100
AcDbEntity
100
AcDbLine
  8
0
 62
0
370
-2
  6
CONTINUOUS
 10
10.8000000000000007
 20
6.0
 30
0.0
 11
10.5
 21
6.0
 31
0.0
  0
LINE
  5
E5
100
AcDbEntity
100
AcDbLine
  8
0
 62
0
370
-2
  6
CONTINUOUS
 10
10.8000000000000007
 20
5.0
 30
0.0
 11
10.5
 21
5.0
 31
0.0
  0
LINE
  5
E6
100
AcDbEntity
100
AcDbLine
  8
0
 62
0
370
-2
  6
CONTINUOUS
 10
10.8000000000000007
 20
4.0
 30
0.0
 11
10.5
 21
4.0
 31
0.0
  0
LINE
  5
E7
100
AcDbEntity
100
AcDbLine
  8
0
 62
0
370
-2
  6
CONTINUOUS
 10
10.8000000000000007
 20
3.0000000000000004
 30
0.0
 11
10.5
 21
3.0000000000000004
 31
0.0
  0
LINE
  5
E8
100
AcDbEntity
100
AcDbLine
  8
0
 62
0
370
-2
  6
CONTINUOUS
 10
10.8000000000000007
 20
2.0
 30
0.0
 11
10.5
 21
2.0
 31
0.0
  0
LINE
  5
E9
100
AcDbEntity
100
AcDbLine
  8
0
 62
0
370
-2
  6
CONTINUOUS
 10
10.8000000000000007
 20
0.9999999999999999
 30
0.0
 11
10.5
 21
0.9999999999999999
 31
0.0
  0
MTEXT
  5
EA
100
AcDbEntity
100
AcDbMText
  8
0
 62
0
370
-2
  6
CONTINUOUS
 10
10.5999999999999996
 20
7.5000000000000009
 30
0.0
 40
0.1
 41
100.0
 71
4
 72
2
  1
A
  7
normallatin1
 50
0.0
 73
0
 44
1.0
  0
MTEXT
  5
EB
100
AcDbEntity
100
AcDbMText
  8
0
 62
0
370
-2
  6
CONTINUOUS
 10
10.5999999999999996
 20
6.5000000000000009
 30
0.0
 40
0.1
 41
100.0
 71
4
 72
2
  1
B
  7
normallatin1
 50
0.0
 73
0
 44
1.0
  0
MTEXT
  5
EC
100
AcDbEntity
100
AcDbMText
  8
0
 62
0
370
-2
  6
CONTINUOUS
 10
10.5999999999999996
 20
5.5000000000000009
 30
0.0
 40
0.1
 41
100.0
 71
4
 72
2
  1
C
  7
normallatin1
 50
0.0
 73
0
 44
1.0
  0
MTEXT
  5
ED
100
AcDbEntity
100
AcDbMText
  8
0
 62
0
370
-2
  6
CONTINUOUS
 10
10.5999999999999996
 20
4.5
 30
0.0
 40
0.1
 41
100.0
 71
4
 72
2
  1
D
  7
normallatin1
 50
0.0
 73
0
 44
1.0
  0
MTEXT
  5
EE
100
AcDbEntity
100
AcDbMText
  8
0
 62
0
370
-2
  6
CONTINUOUS
 10
10.5999999999999996
 20
3.5
 30
0.0
 40
0.1
 41
100.0
 71
4
 72
2
  1
E
  7
normallatin1
 50
0.0
 73
0
 44
1.0
  0
MTEXT
  5
EF
100
AcDbEntity
100
AcDbMText
  8
0
 62
0
370
-2
  6
CONTINUOUS
 10
10.5999999999999996
 20
2.5
 30
0.0
 40
0.1
 41
100.0
 71
4
 72
2
  1
F
  7
normallatin1
 50
0.0
 73
0
 44
1.0
  0
MTEXT
  5
F0
100
AcDbEntity
100
AcDbMText
  8
0
 62
0
370
-2
  6
CONTINUOUS
 10
10.5999999999999996
 20
1.5
 30
0.0
 40
0.1
 41
100.0
 71
4
 72
2
  1
G
  7
normallatin1
 50
0.0
 73
0
 44
1.0
  0
MTEXT
  5
F1
100
AcDbEntity
100
AcDbMText
  8
0
 62
0
370
-2
  6
CONTINUOUS
 10
10.5999999999999996
 20
0.7
 30
0.0
 40
0.1
 41
100.0
 71
4
 72
2
  1
H
  7
normallatin1
 50
0.0
 73
0
 44
1.0
  0
LINE
  5
F2
100
AcDbEntity
100
AcDbLine
  8
0
 62
0
370
-2
  6
CONTINUOUS
 10
8.5000000000000018
 20
0.5000000000000006
 30
0.0
 11
6.5000000000000036
 21
0.500000000000001
 31
0.0
  0
LINE
  5
F3
100
AcDbEntity
100
AcDbLine
  8
0
 62
0
370
-2
  6
CONTINUOUS
 10
10.5000000000000018
 20
0.5000000000000001
 30
0.0
 11
8.5000000000000018
 21
0.5000000000000006
 31
0.0
  0
LINE
  5
F4
100
AcDbEntity
100
AcDbLine
  8
0
 62
0
370
-2
  6
CONTINUOUS
 10
8.5000000000000036
 20
0.7499999999999997
 30
0.0
 11
10.5000000000000018
 21
0.7500000000000023
 31
0.0
  0
LINE
  5
F5
100
AcDbEntity
100
AcDbLine
  8
0
 62
0
370
-2
  6
CONTINUOUS
 10
10.5000000000000018
 20
1.2500000000000013
 30
0.0
 11
10.5000000000000018
 21
0.5000000000000001
 31
0.0
  0
MTEXT
  5
F6
100
AcDbEntity
100
AcDbMText
  8
0
 62
0
370
-2
  6
CONTINUOUS
 10
6.6000000000000032
 20
1.1500000000000012
 30
0.0
 40
0.075
 41
50.0
 71
1
 72
2
  1
STANDARD\~TOLERANCE\PUNLESS\~OTHERWISE\~SPECIFIED\P1\~Plc.\~Dec.\~%%p\~\P2\~Plc.\~Dec.\~%%p\~\P3\~Plc.\~Dec.\~%%p
  7
normallatin1
 50
0.0
 73
1
 44
1.0
  0
LINE
  5
F7
100
AcDbEntity
100
AcDbLine
  8
0
 62
0
370
-2
  6
CONTINUOUS
 10
8.0
 20
1.5
 30
0.0
 11
6.5000000000000009
 21
1.5
 31
0.0
  0
LINE
  5
F8
100
AcDbEntity
100
AcDbLine
  8
0
 62
0
370
-2
  6
CONTINUOUS
 10
8.5
 20
1.2000000000000002
 30
0.0
 11
8.5000000000000018
 21
0.5000000000000006
 31
0.0
  0
LINE
  5
F9
100
AcDbEntity
100
AcDbLine
  8
0
 62
0
370
-2
  6
CONTINUOUS
 10
8.5
 20
1.2000000000000002
 30
0.0
 11
10.5
 21
1.2000000000000002
 31
0.0
  0
LINE
  5
FA
100
AcDbEntity
100
AcDbLine
  8
0
 62
0
370
-2
  6
CONTINUOUS
 10
6.5000000000000036
 20
0.500000000000001
 30
0.0
 11
6.5000000000000009
 21
1.2000000000000002
 31
0.0
  0
LINE
  5
FB
100
AcDbEntity
100
AcDbLine
  8
0
 62
0
370
-2
  6
CONTINUOUS
 10
6.5000000000000009
 20
1.2000000000000002
 30
0.0
 11
8.5
 21
1.2000000000000002
 31
0.0
  0
LINE
  5
FC
100
AcDbEntity
100
AcDbLine
  8
0
 62
0
370
-2
  6
CONTINUOUS
 10
8.5000000000000018
 20
0.95
 30
0.0
 11
10.5
 21
0.9500000000000001
 31
0.0
  0
LINE
  5
FD
100
AcDbEntity
100
AcDbLine
  8
0
 62
0
370
-2
  6
CONTINUOUS
 10
9.5000000000000018
 20
0.9500000000000001
 30
0.0
 11
9.5000000000000036
 21
0.500000000000001
 31
0.0
  0
LINE
  5
FE
100
AcDbEntity
100
AcDbLine
  8
0
 62
0
370
-2
  6
CONTINUOUS
 10
8.8000000000000007
 20
1.5
 30
0.0
 11
10.5
 21
1.5
 31
0.0
  0
LINE
  5
FF
100
AcDbEntity
100
AcDbLine
  8
0
 62
0
370
-2
  6
CONTINUOUS
 10
8.0
 20
1.2
 30
0.0
 11
8.0
 21
1.5
 31
0.0
  0
LINE
  5
100
100
AcDbEntity
100
AcDbLine
  8
0
 62
0
370
-2
  6
CONTINUOUS
 10
6.5000000000000009
 20
1.5
 30
0.0
 11
6.5000000000000009
 21
1.2000000000000002
 31
0.0
  0
LINE
  5
101
100
AcDbEntity
100
AcDbLine
  8
0
 62
0
370
-2
  6
CONTINUOUS
 10
8.8000000000000007
 20
1.5
 30
0.0
 11
8.8000000000000007
 21
1.1999999999999997
 31
0.0
  0
LINE
  5
102
100
AcDbEntity
100
AcDbLine
  8
0
 62
0
370
-2
  6
CONTINUOUS
 10
8.0000000000000018
 20
1.5
 30
0.0
 11
8.8000000000000007
 21
1.5
 31
0.0
  0
LINE
  5
103
100
AcDbEntity
100
AcDbLine
  8
0
 62
0
370
-2
  6
CONTINUOUS
 10
6.5
 20
8.0
 30
0.0
 11
6.5
 21
7.7000000000000011
 31
0.0
  0
LINE
  5
104
100
AcDbEntity
100
AcDbLine
  8
0
 62
0
370
-2
  6
CONTINUOUS
 10
6.5
 20
7.7000000000000011
 30
0.0
 11
6.5
 21
7.0
 31
0.0
  0
LINE
  5
105
100
AcDbEntity
100
AcDbLine
  8
0
 62
0
370
-2
  6
CONTINUOUS
 10
6.5
 20
7.0
 30
0.0
 11
10.5
 21
7.0
 31
0.0
  0
LINE
  5
106
100
AcDbEntity
100
AcDbLine
  8
0
 62
0
370
-2
  6
CONTINUOUS
 10
6.5000000000000009
 20
7.2000000000000011
 30
0.0
 11
10.5
 21
7.2000000000000011
 31
0.0
  0
LINE
  5
107
100
AcDbEntity
100
AcDbLine
  8
0
 62
0
370
-2
  6
CONTINUOUS
 10
7.0000000000000009
 20
7.8000000000000007
 30
0.0
 11
7.0
 21
7.0
 31
0.0
  0
LINE
  5
108
100
AcDbEntity
100
AcDbLine
  8
0
 62
0
370
-2
  6
CONTINUOUS
 10
7.5000000000000009
 20
7.8000000000000007
 30
0.0
 11
7.5
 21
7.0
 31
0.0
  0
LINE
  5
109
100
AcDbEntity
100
AcDbLine
  8
0
 62
0
370
-2
  6
CONTINUOUS
 10
9.3000000000000007
 20
7.8000000000000007
 30
0.0
 11
9.3000000000000007
 21
7.0
 31
0.0
  0
LINE
  5
10A
100
AcDbEntity
100
AcDbLine
  8
0
 62
0
370
-2
  6
CONTINUOUS
 10
10.0
 20
7.8000000000000007
 30
0.0
 11
10.0
 21
7.0
 31
0.0
  0
LINE
  5
10B
100
AcDbEntity
100
AcDbLine
  8
0
 62
0
370
-2
  6
CONTINUOUS
 10
6.5000000000000009
 20
7.6000000000000005
 30
0.0
 11
10.5
 21
7.6000000000000005
 31
0.0
  0
LINE
  5
10C
100
AcDbEntity
100
AcDbLine
  8
0
 62
0
370
-2
  6
CONTINUOUS
 10
6.5000000000000009
 20
7.8000000000000007
 30
0.0
 11
10.5
 21
7.8000000000000007
 31
0.0
  0
LINE
  5
10D
100
AcDbEntity
100
AcDbLine
  8
0
 62
0
370
-2
  6
CONTINUOUS
 10
6.5000000000000009
 20
7.4000000000000004
 30
0.0
 11
10.5
 21
7.4000000000000004
 31
0.0
  0
MTEXT
  5
10E
100
AcDbEntity
100
AcDbMText
  8
0
 62
0
370
-2
  6
CONTINUOUS
 10
6.6000000000000005
 20
1.4000000000000004
 30
0.0
 40
0.075
 41
100.0
 71
4
 72
2
  1
Material:
  7
normallatin1
 50
0.0
 73
0
 44
1.0
  0
MTEXT
  5
10F
100
AcDbEntity
100
AcDbMText
  8
0
 62
0
370
-2
  6
CONTINUOUS
 10
8.0999999999999996
 20
1.3999999999999999
 30
0.0
 40
0.075
 41
100.0
 71
4
 72
2
  1
Part\~#:
  7
normallatin1
 50
0.0
 73
0
 44
1.0
  0
MTEXT
  5
110
100
AcDbEntity
100
AcDbMText
  8
0
 62
0
370
-2
  6
CONTINUOUS
 10
8.9000000000000021
 20
1.3999999999999999
 30
0.0
 40
0.075
 41
100.0
 71
4
 72
2
  1
Next\~Assembly:
  7
normallatin1
 50
0.0
 73
0
 44
1.0
  0
MTEXT
  5
111
100
AcDbEntity
100
AcDbMText
  8
0
 62
0
370
-2
  6
CONTINUOUS
 10
8.5999999999999996
 20
1.1599999999999999
 30
0.0
 40
0.075
 41
50.0
 71
1
 72
2
  1
Part\~Name:
  7
normallatin1
 50
0.0
 73
1
 44
1.0
  0
MTEXT
  5
112
100
AcDbEntity
100
AcDbMText
  8
0
 62
0
370
-2
  6
CONTINUOUS
 10
8.6000000000000014
 20
0.9000000000000001
 30
0.0
 40
0.075
 41
50.0
 71
1
 72
2
  1
Date:
  7
normallatin1
 50
0.0
 73
1
 44
1.0
  0
MTEXT
  5
113
100
AcDbEntity
100
AcDbMText
  8
0
 62
0
370
-2
  6
CONTINUOUS
 10
9.6000000000000014
 20
0.9000000000000046
 30
0.0
 40
0.075
 41
50.0
 71
1
 72
2
  1
Scale:
  7
normallatin1
 50
0.0
 73
1
 44
1.0
  0
MTEXT
  5
114
100
AcDbEntity
100
AcDbMText
  8
0
 62
0
370
-2
  6
CONTINUOUS
 10
8.6000000000000014
 20
0.7000000000000002
 30
0.0
 40
0.075
 41
50.0
 71
1
 72
2
  1
Sheet\~No.:
  7
normallatin1
 50
0.0
 73
1
 44
1.0
  0
MTEXT
  5
115
100
AcDbEntity
100
AcDbMText
  8
0
 62
0
370
-2
  6
CONTINUOUS
 10
9.6000000000000014
 20
0.6999999999999975
 30
0.0
 40
0.075
 41
50.0
 71
1
 72
2
  1
No.\~Sheets:
  7
normallatin1
 50
0.0
 73
1
 44
1.0
  0
MTEXT
  5
116
100
AcDbEntity
100
AcDbMText
  8
0
 62
0
370
-2
  6
CONTINUOUS
 10
8.3000000000000007
 20
7.9000000000000004
 30
0.0
 40
0.075
 41
100.0
 71
1
 72
2
  1
REVISIONS
  7
normallatin1
 50
0.0
 73
0
 44
1.0
  0
MTEXT
  5
117
100
AcDbEntity
100
AcDbMText
  8
0
 62
0
370
-2
  6
CONTINUOUS
 10
6.6000000000000014
 20
7.7000000000000011
 30
0.0
 40
0.075
 41
100.0
 71
4
 72
2
  1
ZONE
  7
normallatin1
 50
0.0
 73
0
 44
1.0
  0
MTEXT
  5
118
100
AcDbEntity
100
AcDbMText
  8
0
 62
0
370
-2
  6
CONTINUOUS
 10
7.1000000000000014
 20
7.7000000000000011
 30
0.0
 40
0.075
 41
100.0
 71
4
 72
2
  1
REV
  7
normallatin1
 50
0.0
 73
0
 44
1.0
  0
MTEXT
  5
119
100
AcDbEntity
100
AcDbMText
  8
0
 62
0
370
-2
  6
CONTINUOUS
 10
8.3000000000000007
 20
7.7000000000000011
 30
0.0
 40
0.075
 41
100.0
 71
4
 72
2
  1
DESCRIPTION
  7
normallatin1
 50
0.0
 73
0
 44
1.0
  0
MTEXT
  5
11A
100
AcDbEntity
100
AcDbMText
  8
0
 62
0
370
-2
  6
CONTINUOUS
 10
9.5
 20
7.7000000000000011
 30
0.0
 40
0.075
 41
100.0
 71
4
 72
2
  1
DATE
  7
normallatin1
 50
0.0
 73
0
 44
1.0
  0
MTEXT
  5
11B
100
AcDbEntity
100
AcDbMText
  8
0
 62
0
370
-2
  6
CONTINUOUS
 10
10.1000000000000014
 20
7.7000000000000011
 30
0.0
 40
0.075
 41
100.0
 71
4
 72
2
  1
APPVD
  7
normallatin1
 50
0.0
 73
0
 44
1.0
  0
LINE
  5
11C
100
AcDbEntity
100
AcDbLine
  8
0
 62
256
370
-1
  6
ByLayer
 10
0.0
 20
0.5000000000000001
 30
0.0
 11
0.0
 21
0.0
 31
0.0
  0
LINE
  5
11D
100
AcDbEntity
100
AcDbLine
  8
0
 62
256
370
-1
  6
ByLayer
 10
0.0
 20
0.0
 30
0.0
 11
0.5
 21
0.0
 31
0.0
  0
LINE
  5
11E
100
AcDbEntity
100
AcDbLine
  8
0
 62
256
370
-1
  6
ByLayer
 10
11.0
 20
0.5
 30
0.0
 11
11.0
 21
0.0
 31
0.0
  0
LINE
  5
11F
100
AcDbEntity
100
AcDbLine
  8
0
 62
256
370
-1
  6
ByLayer
 10
11.0
 20
0.0
 30
0.0
 11
10.5
 21
0.0
 31
0.0
  0
LINE
  5
120
100
AcDbEntity
100
AcDbLine
  8
0
 62
256
370
-1
  6
ByLayer
 10
11.0
 20
8.0
 30
0.0
 11
11.0
 21
8.5
 31
0.0
  0
LINE
  5
121
100
AcDbEntity
100
AcDbLine
  8
0
 62
256
370
-1
  6
ByLayer
 10
11.0
 20
8.5
 30
0.0
 11
10.5
 21
8.5
 31
0.0
  0
LINE
  5
122
100
AcDbEntity
100
AcDbLine
  8
0
 62
256
370
-1
  6
ByLayer
 10
0.5
 20
8.5
 30
0.0
 11
0.0
 21
8.5
 31
0.0
  0
LINE
  5
123
100
AcDbEntity
100
AcDbLine
  8
0
 62
256
370
-1
  6
ByLayer
 10
0.0
 20
8.5
 30
0.0
 11
0.0
 21
8.0
 31
0.0
  0
ENDBLK
  5
124
100
AcDbEntity
  8
0
100
AcDbBlockEnd
  0
BLOCK
  5
125
100
AcDbEntity
  8
0
100
AcDbBlockBegin
  2
letter_border-1
 70
0
 10
0.0
 20
0.0
 30
0.0
  3
letter_border-1
  1

  0
LINE
  5
126
100
AcDbEntity
100
AcDbLine
  8
0
 62
0
370
-2
  6
CONTINUOUS
 10
1.5
 20
8.3000000000000007
 30
0.0
 11
1.5
 21
8.0
 31
0.0
  0
LINE
  5
127
100
AcDbEntity
100
AcDbLine
  8
0
 62
0
370
-2
  6
CONTINUOUS
 10
2.5
 20
8.0
 30
0.0
 11
2.5
 21
8.3000000000000007
 31
0.0
  0
LINE
  5
128
100
AcDbEntity
100
AcDbLine
  8
0
 62
0
370
-2
  6
CONTINUOUS
 10
3.5000000000000004
 20
8.0
 30
0.0
 11
3.5000000000000004
 21
8.3000000000000007
 31
0.0
  0
LINE
  5
129
100
AcDbEntity
100
AcDbLine
  8
0
 62
0
370
-2
  6
CONTINUOUS
 10
4.5
 20
8.3000000000000007
 30
0.0
 11
4.5
 21
8.0
 31
0.0
  0
LINE
  5
12A
100
AcDbEntity
100
AcDbLine
  8
0
 62
0
370
-2
  6
CONTINUOUS
 10
5.5
 20
8.0
 30
0.0
 11
5.5
 21
8.3000000000000007
 31
0.0
  0
LINE
  5
12B
100
AcDbEntity
100
AcDbLine
  8
0
 62
0
370
-2
  6
CONTINUOUS
 10
6.5000000000000009
 20
8.0
 30
0.0
 11
6.5000000000000009
 21
8.3000000000000007
 31
0.0
  0
LINE
  5
12C
100
AcDbEntity
100
AcDbLine
  8
0
 62
0
370
-2
  6
CONTINUOUS
 10
7.5
 20
8.3000000000000007
 30
0.0
 11
7.5
 21
8.0
 31
0.0
  0
LINE
  5
12D
100
AcDbEntity
100
AcDbLine
  8
0
 62
0
370
-2
  6
CONTINUOUS
 10
8.5
 20
8.0
 30
0.0
 11
8.5
 21
8.3000000000000007
 31
0.0
  0
LINE
  5
12E
100
AcDbEntity
100
AcDbLine
  8
0
 62
0
370
-2
  6
CONTINUOUS
 10
9.5
 20
8.0
 30
0.0
 11
9.5
 21
8.3000000000000007
 31
0.0
  0
LINE
  5
12F
100
AcDbEntity
100
AcDbLine
  8
0
 62
0
370
-2
  6
CONTINUOUS
 10
0.5
 20
7.0
 30
0.0
 11
0.2000000000000002
 21
7.0
 31
0.0
  0
LINE
  5
130
100
AcDbEntity
100
AcDbLine
  8
0
 62
0
370
-2
  6
CONTINUOUS
 10
0.5
 20
6.0
 30
0.0
 11
0.2000000000000002
 21
6.0
 31
0.0
  0
LINE
  5
131
100
AcDbEntity
100
AcDbLine
  8
0
 62
0
370
-2
  6
CONTINUOUS
 10
0.5
 20
5.0
 30
0.0
 11
0.2000000000000002
 21
5.0
 31
0.0
  0
LINE
  5
132
100
AcDbEntity
100
AcDbLine
  8
0
 62
0
370
-2
  6
CONTINUOUS
 10
0.5
 20
4.0
 30
0.0
 11
0.2000000000000002
 21
4.0
 31
0.0
  0
LINE
  5
133
100
AcDbEntity
100
AcDbLine
  8
0
 62
0
370
-2
  6
CONTINUOUS
 10
0.5
 20
3.0000000000000004
 30
0.0
 11
0.2000000000000002
 21
3.0000000000000004
 31
0.0
  0
LINE
  5
134
100
AcDbEntity
100
AcDbLine
  8
0
 62
0
370
-2
  6
CONTINUOUS
 10
0.5
 20
2.0
 30
0.0
 11
0.2000000000000002
 21
2.0
 31
0.0
  0
LINE
  5
135
100
AcDbEntity
100
AcDbLine
  8
0
 62
0
370
-2
  6
CONTINUOUS
 10
0.5
 20
1.0
 30
0.0
 11
0.2000000000000002
 21
1.0
 31
0.0
  0
MTEXT
  5
136
100
AcDbEntity
100
AcDbMText
  8
0
 62
0
370
-2
  6
CONTINUOUS
 10
1.0
 20
8.1000000000000014
 30
0.0
 40
0.1
 41
100.0
 71
8
 72
2
  1
1
  7
normallatin1
 50
0.0
 73
0
 44
1.0
  0
MTEXT
  5
137
100
AcDbEntity
100
AcDbMText
  8
0
 62
0
370
-2
  6
CONTINUOUS
 10
2.0
 20
8.1000000000000014
 30
0.0
 40
0.1
 41
100.0
 71
8
 72
2
  1
2
  7
normallatin1
 50
0.0
 73
0
 44
1.0
  0
MTEXT
  5
138
100
AcDbEntity
100
AcDbMText
  8
0
 62
0
370
-2
  6
CONTINUOUS
 10
3.0
 20
8.1000000000000014
 30
0.0
 40
0.1
 41
100.0
 71
8
 72
2
  1
3
  7
normallatin1
 50
0.0
 73
0
 44
1.0
  0
MTEXT
  5
139
100
AcDbEntity
100
AcDbMText
  8
0
 62
0
370
-2
  6
CONTINUOUS
 10
4.0000000000000009
 20
8.1000000000000014
 30
0.0
 40
0.1
 41
100.0
 71
8
 72
2
  1
4
  7
normallatin1
 50
0.0
 73
0
 44
1.0
  0
MTEXT
  5
13A
100
AcDbEntity
100
AcDbMText
  8
0
 62
0
370
-2
  6
CONTINUOUS
 10
5.0000000000000009
 20
8.1000000000000014
 30
0.0
 40
0.1
 41
100.0
 71
8
 72
2
  1
5
  7
normallatin1
 50
0.0
 73
0
 44
1.0
  0
MTEXT
  5
13B
100
AcDbEntity
100
AcDbMText
  8
0
 62
0
370
-2
  6
CONTINUOUS
 10
6.0000000000000009
 20
8.1000000000000014
 30
0.0
 40
0.1
 41
100.0
 71
8
 72
2
  1
6
  7
normallatin1
 50
0.0
 73
0
 44
1.0
  0
MTEXT
  5
13C
100
AcDbEntity
100
AcDbMText
  8
0
 62
0
370
-2
  6
CONTINUOUS
 10
7.0
 20
8.1000000000000014
 30
0.0
 40
0.1
 41
100.0
 71
8
 72
2
  1
7
  7
normallatin1
 50
0.0
 73
0
 44
1.0
  0
MTEXT
  5
13D
100
AcDbEntity
100
AcDbMText
  8
0
 62
0
370
-2
  6
CONTINUOUS
 10
8.0
 20
8.1000000000000014
 30
0.0
 40
0.1
 41
100.0
 71
8
 72
2
  1
8
  7
normallatin1
 50
0.0
 73
0
 44
1.0
  0
MTEXT
  5
13E
100
AcDbEntity
100
AcDbMText
  8
0
 62
0
370
-2
  6
CONTINUOUS
 10
9.0
 20
8.1000000000000014
 30
0.0
 40
0.1
 41
100.0
 71
8
 72
2
  1
9
  7
normallatin1
 50
0.0
 73
0
 44
1.0
  0
MTEXT
  5
13F
100
AcDbEntity
100
AcDbMText
  8
0
 62
0
370
-2
  6
CONTINUOUS
 10
10.0
 20
8.1000000000000014
 30
0.0
 40
0.1
 41
100.0
 71
8
 72
2
  1
10
  7
normallatin1
 50
0.0
 73
0
 44
1.0
  0
MTEXT
  5
140
100
AcDbEntity
100
AcDbMText
  8
0
 62
0
370
-2
  6
CONTINUOUS
 10
0.2999999999999998
 20
7.5000000000000009
 30
0.0
 40
0.1
 41
100.0
 71
4
 72
2
  1
A
  7
normallatin1
 50
0.0
 73
0
 44
1.0
  0
MTEXT
  5
141
100
AcDbEntity
100
AcDbMText
  8
0
 62
0
370
-2
  6
CONTINUOUS
 10
0.2999999999999998
 20
6.5000000000000009
 30
0.0
 40
0.1
 41
100.0
 71
4
 72
2
  1
B
  7
normallatin1
 50
0.0
 73
0
 44
1.0
  0
MTEXT
  5
142
100
AcDbEntity
100
AcDbMText
  8
0
 62
0
370
-2
  6
CONTINUOUS
 10
0.2999999999999998
 20
5.5000000000000009
 30
0.0
 40
0.1
 41
100.0
 71
4
 72
2
  1
C
  7
normallatin1
 50
0.0
 73
0
 44
1.0
  0
MTEXT
  5
143
100
AcDbEntity
100
AcDbMText
  8
0
 62
0
370
-2
  6
CONTINUOUS
 10
0.2999999999999998
 20
4.5
 30
0.0
 40
0.1
 41
100.0
 71
4
 72
2
  1
D
  7
normallatin1
 50
0.0
 73
0
 44
1.0
  0
MTEXT
  5
144
100
AcDbEntity
100
AcDbMText
  8
0
 62
0
370
-2
  6
CONTINUOUS
 10
0.2999999999999998
 20
3.5
 30
0.0
 40
0.1
 41
100.0
 71
4
 72
2
  1
E
  7
normallatin1
 50
0.0
 73
0
 44
1.0
  0
MTEXT
  5
145
100
AcDbEntity
100
AcDbMText
  8
0
 62
0
370
-2
  6
CONTINUOUS
 10
0.2999999999999998
 20
2.5
 30
0.0
 40
0.1
 41
100.0
 71
4
 72
2
  1
F
  7
normallatin1
 50
0.0
 73
0
 44
1.0
  0
MTEXT
  5
146
100
AcDbEntity
100
AcDbMText
  8
0
 62
0
370
-2
  6
CONTINUOUS
 10
0.2999999999999998
 20
1.5
 30
0.0
 40
0.1
 41
100.0
 71
4
 72
2
  1
G
  7
normallatin1
 50
0.0
 73
0
 44
1.0
  0
MTEXT
  5
147
100
AcDbEntity
100
AcDbMText
  8
0
 62
0
370
-2
  6
CONTINUOUS
 10
0.2999999999999998
 20
0.7000000000000001
 30
0.0
 40
0.1
 41
100.0
 71
4
 72
2
  1
H
  7
normallatin1
 50
0.0
 73
0
 44
1.0
  0
LINE
  5
148
100
AcDbEntity
100
AcDbLine
  8
0
 62
0
370
-2
  6
CONTINUOUS
 10
10.5
 20
0.5000000000000001
 30
0.0
 11
10.5000000000000018
 21
8.0
 31
0.0
  0
LINE
  5
149
100
AcDbEntity
100
AcDbLine
  8
0
 62
0
370
-2
  6
CONTINUOUS
 10
0.5
 20
8.0000000000000018
 30
0.0
 11
10.5000000000000018
 21
8.0
 31
0.0
  0
LINE
  5
14A
100
AcDbEntity
100
AcDbLine
  8
0
 62
0
370
-2
  6
CONTINUOUS
 10
0.5
 20
8.0000000000000018
 30
0.0
 11
0.5
 21
0.5000000000000001
 31
0.0
  0
LINE
  5
14B
100
AcDbEntity
100
AcDbLine
  8
0
 62
0
370
-2
  6
CONTINUOUS
 10
0.5
 20
0.5000000000000001
 30
0.0
 11
10.5000000000000018
 21
0.5000000000000001
 31
0.0
  0
LINE
  5
14C
100
AcDbEntity
100
AcDbLine
  8
0
 62
0
370
-2
  6
CONTINUOUS
 10
1.5
 20
0.5
 30
0.0
 11
1.5
 21
0.1999999999999993
 31
0.0
  0
LINE
  5
14D
100
AcDbEntity
100
AcDbLine
  8
0
 62
0
370
-2
  6
CONTINUOUS
 10
2.5
 20
0.1999999999999993
 30
0.0
 11
2.5
 21
0.5
 31
0.0
  0
LINE
  5
14E
100
AcDbEntity
100
AcDbLine
  8
0
 62
0
370
-2
  6
CONTINUOUS
 10
3.5000000000000004
 20
0.1999999999999993
 30
0.0
 11
3.5000000000000004
 21
0.5
 31
0.0
  0
LINE
  5
14F
100
AcDbEntity
100
AcDbLine
  8
0
 62
0
370
-2
  6
CONTINUOUS
 10
4.5
 20
0.5
 30
0.0
 11
4.5
 21
0.1999999999999993
 31
0.0
  0
LINE
  5
150
100
AcDbEntity
100
AcDbLine
  8
0
 62
0
370
-2
  6
CONTINUOUS
 10
5.5
 20
0.1999999999999993
 30
0.0
 11
5.5
 21
0.5
 31
0.0
  0
LINE
  5
151
100
AcDbEntity
100
AcDbLine
  8
0
 62
0
370
-2
  6
CONTINUOUS
 10
6.5000000000000009
 20
0.1999999999999993
 30
0.0
 11
6.5000000000000009
 21
0.5
 31
0.0
  0
LINE
  5
152
100
AcDbEntity
100
AcDbLine
  8
0
 62
0
370
-2
  6
CONTINUOUS
 10
7.5
 20
0.5
 30
0.0
 11
7.5
 21
0.1999999999999993
 31
0.0
  0
LINE
  5
153
100
AcDbEntity
100
AcDbLine
  8
0
 62
0
370
-2
  6
CONTINUOUS
 10
8.5
 20
0.1999999999999993
 30
0.0
 11
8.5
 21
0.5
 31
0.0
  0
LINE
  5
154
100
AcDbEntity
100
AcDbLine
  8
0
 62
0
370
-2
  6
CONTINUOUS
 10
9.5
 20
0.1999999999999993
 30
0.0
 11
9.5
 21
0.5
 31
0.0
  0
MTEXT
  5
155
100
AcDbEntity
100
AcDbMText
  8
0
 62
0
370
-2
  6
CONTINUOUS
 10
1.0
 20
0.3000000000000007
 30
0.0
 40
0.1
 41
100.0
 71
8
 72
2
  1
1
  7
normallatin1
 50
0.0
 73
0
 44
1.0
  0
MTEXT
  5
156
100
AcDbEntity
100
AcDbMText
  8
0
 62
0
370
-2
  6
CONTINUOUS
 10
2.0
 20
0.3000000000000007
 30
0.0
 40
0.1
 41
100.0
 71
8
 72
2
  1
2
  7
normallatin1
 50
0.0
 73
0
 44
1.0
  0
MTEXT
  5
157
100
AcDbEntity
100
AcDbMText
  8
0
 62
0
370
-2
  6
CONTINUOUS
 10
3.0
 20
0.3000000000000007
 30
0.0
 40
0.1
 41
100.0
 71
8
 72
2
  1
3
  7
normallatin1
 50
0.0
 73
0
 44
1.0
  0
MTEXT
  5
158
100
AcDbEntity
100
AcDbMText
  8
0
 62
0
370
-2
  6
CONTINUOUS
 10
4.0000000000000009
 20
0.3000000000000007
 30
0.0
 40
0.1
 41
100.0
 71
8
 72
2
  1
4
  7
normallatin1
 50
0.0
 73
0
 44
1.0
  0
MTEXT
  5
159
100
AcDbEntity
100
AcDbMText
  8
0
 62
0
370
-2
  6
CONTINUOUS
 10
5.0000000000000009
 20
0.3000000000000007
 30
0.0
 40
0.1
 41
100.0
 71
8
 72
2
  1
5
  7
normallatin1
 50
0.0
 73
0
 44
1.0
  0
MTEXT
  5
15A
100
AcDbEntity
100
AcDbMText
  8
0
 62
0
370
-2
  6
CONTINUOUS
 10
6.0000000000000009
 20
0.3000000000000007
 30
0.0
 40
0.1
 41
100.0
 71
8
 72
2
  1
6
  7
normallatin1
 50
0.0
 73
0
 44
1.0
  0
MTEXT
  5
15B
100
AcDbEntity
100
AcDbMText
  8
0
 62
0
370
-2
  6
CONTINUOUS
 10
7.0
 20
0.3000000000000007
 30
0.0
 40
0.1
 41
100.0
 71
8
 72
2
  1
7
  7
normallatin1
 50
0.0
 73
0
 44
1.0
  0
MTEXT
  5
15C
100
AcDbEntity
100
AcDbMText
  8
0
 62
0
370
-2
  6
CONTINUOUS
 10
8.0
 20
0.3000000000000007
 30
0.0
 40
0.1
 41
100.0
 71
8
 72
2
  1
8
  7
normallatin1
 50
0.0
 73
0
 44
1.0
  0
MTEXT
  5
15D
100
AcDbEntity
100
AcDbMText
  8
0
 62
0
370
-2
  6
CONTINUOUS
 10
9.0
 20
0.3000000000000007
 30
0.0
 40
0.1
 41
100.0
 71
8
 72
2
  1
9
  7
normallatin1
 50
0.0
 73
0
 44
1.0
  0
MTEXT
  5
15E
100
AcDbEntity
100
AcDbMText
  8
0
 62
0
370
-2
  6
CONTINUOUS
 10
10.0
 20
0.3000000000000007
 30
0.0
 40
0.1
 41
100.0
 71
8
 72
2
  1
10
  7
normallatin1
 50
0.0
 73
0
 44
1.0
  0
LINE
  5
15F
100
AcDbEntity
100
AcDbLine
  8
0
 62
0
370
-2
  6
CONTINUOUS
 10
10.8000000000000007
 20
7.0
 30
0.0
 11
10.5
 21
7.0
 31
0.0
  0
LINE
  5
160
100
AcDbEntity
100
AcDbLine
  8
0
 62
0
370
-2
  6
CONTINUOUS
 10
10.8000000000000007
 20
6.0
 30
0.0
 11
10.5
 21
6.0
 31
0.0
  0
LINE
  5
161
100
AcDbEntity
100
AcDbLine
  8
0
 62
0
370
-2
  6
CONTINUOUS
 10
10.8000000000000007
 20
5.0
 30
0.0
 11
10.5
 21
5.0
 31
0.0
  0
LINE
  5
162
100
AcDbEntity
100
AcDbLine
  8
0
 62
0
370
-2
  6
CONTINUOUS
 10
10.8000000000000007
 20
4.0
 30
0.0
 11
10.5
 21
4.0
 31
0.0
  0
LINE
  5
163
100
AcDbEntity
100
AcDbLine
  8
0
 62
0
370
-2
  6
CONTINUOUS
 10
10.8000000000000007
 20
3.0000000000000004
 30
0.0
 11
10.5
 21
3.0000000000000004
 31
0.0
  0
LINE
  5
164
100
AcDbEntity
100
AcDbLine
  8
0
 62
0
370
-2
  6
CONTINUOUS
 10
10.8000000000000007
 20
2.0
 30
0.0
 11
10.5
 21
2.0
 31
0.0
  0
LINE
  5
165
100
AcDbEntity
100
AcDbLine
  8
0
 62
0
370
-2
  6
CONTINUOUS
 10
10.8000000000000007
 20
0.9999999999999999
 30
0.0
 11
10.5
 21
0.9999999999999999
 31
0.0
  0
MTEXT
  5
166
100
AcDbEntity
100
AcDbMText
  8
0
 62
0
370
-2
  6
CONTINUOUS
 10
10.5999999999999996
 20
7.5000000000000009
 30
0.0
 40
0.1
 41
100.0
 71
4
 72
2
  1
A
  7
normallatin1
 50
0.0
 73
0
 44
1.0
  0
MTEXT
  5
167
100
AcDbEntity
100
AcDbMText
  8
0
 62
0
370
-2
  6
CONTINUOUS
 10
10.5999999999999996
 20
6.5000000000000009
 30
0.0
 40
0.1
 41
100.0
 71
4
 72
2
  1
B
  7
normallatin1
 50
0.0
 73
0
 44
1.0
  0
MTEXT
  5
168
100
AcDbEntity
100
AcDbMText
  8
0
 62
0
370
-2
  6
CONTINUOUS
 10
10.5999999999999996
 20
5.5000000000000009
 30
0.0
 40
0.1
 41
100.0
 71
4
 72
2
  1
C
  7
normallatin1
 50
0.0
 73
0
 44
1.0
  0
MTEXT
  5
169
100
AcDbEntity
100
AcDbMText
  8
0
 62
0
370
-2
  6
CONTINUOUS
 10
10.5999999999999996
 20
4.5
 30
0.0
 40
0.1
 41
100.0
 71
4
 72
2
  1
D
  7
normallatin1
 50
0.0
 73
0
 44
1.0
  0
MTEXT
  5
16A
100
AcDbEntity
100
AcDbMText
  8
0
 62
0
370
-2
  6
CONTINUOUS
 10
10.5999999999999996
 20
3.5
 30
0.0
 40
0.1
 41
100.0
 71
4
 72
2
  1
E
  7
normallatin1
 50
0.0
 73
0
 44
1.0
  0
MTEXT
  5
16B
100
AcDbEntity
100
AcDbMText
  8
0
 62
0
370
-2
  6
CONTINUOUS
 10
10.5999999999999996
 20
2.5
 30
0.0
 40
0.1
 41
100.0
 71
4
 72
2
  1
F
  7
normallatin1
 50
0.0
 73
0
 44
1.0
  0
MTEXT
  5
16C
100
AcDbEntity
100
AcDbMText
  8
0
 62
0
370
-2
  6
CONTINUOUS
 10
10.5999999999999996
 20
1.5
 30
0.0
 40
0.1
 41
100.0
 71
4
 72
2
  1
G
  7
normallatin1
 50
0.0
 73
0
 44
1.0
  0
MTEXT
  5
16D
100
AcDbEntity
100
AcDbMText
  8
0
 62
0
370
-2
  6
CONTINUOUS
 10
10.5999999999999996
 20
0.7
 30
0.0
 40
0.1
 41
100.0
 71
4
 72
2
  1
H
  7
normallatin1
 50
0.0
 73
0
 44
1.0
  0
LINE
  5
16E
100
AcDbEntity
100
AcDbLine
  8
0
 62
0
370
-2
  6
CONTINUOUS
 10
8.5000000000000018
 20
0.5000000000000006
 30
0.0
 11
6.5000000000000036
 21
0.500000000000001
 31
0.0
  0
LINE
  5
16F
100
AcDbEntity
100
AcDbLine
  8
0
 62
0
370
-2
  6
CONTINUOUS
 10
10.5000000000000018
 20
0.5000000000000001
 30
0.0
 11
8.5000000000000018
 21
0.5000000000000006
 31
0.0
  0
LINE
  5
170
100
AcDbEntity
100
AcDbLine
  8
0
 62
0
370
-2
  6
CONTINUOUS
 10
8.5000000000000036
 20
0.7499999999999997
 30
0.0
 11
10.5000000000000018
 21
0.7500000000000023
 31
0.0
  0
LINE
  5
171
100
AcDbEntity
100
AcDbLine
  8
0
 62
0
370
-2
  6
CONTINUOUS
 10
10.5000000000000018
 20
1.2500000000000013
 30
0.0
 11
10.5000000000000018
 21
0.5000000000000001
 31
0.0
  0
MTEXT
  5
172
100
AcDbEntity
100
AcDbMText
  8
0
 62
0
370
-2
  6
CONTINUOUS
 10
6.6000000000000032
 20
1.1500000000000012
 30
0.0
 40
0.075
 41
50.0
 71
1
 72
2
  1
STANDARD\~TOLERANCE\PUNLESS\~OTHERWISE\~SPECIFIED\P1\~Plc.\~Dec.\~%%p\~\P2\~Plc.\~Dec.\~%%p\~\P3\~Plc.\~Dec.\~%%p
  7
normallatin1
 50
0.0
 73
1
 44
1.0
  0
LINE
  5
173
100
AcDbEntity
100
AcDbLine
  8
0
 62
0
370
-2
  6
CONTINUOUS
 10
8.0
 20
1.5
 30
0.0
 11
6.5000000000000009
 21
1.5
 31
0.0
  0
LINE
  5
174
100
AcDbEntity
100
AcDbLine
  8
0
 62
0
370
-2
  6
CONTINUOUS
 10
8.5
 20
1.2000000000000002
 30
0.0
 11
8.5000000000000018
 21
0.5000000000000006
 31
0.0
  0
LINE
  5
175
100
AcDbEntity
100
AcDbLine
  8
0
 62
0
370
-2
  6
CONTINUOUS
 10
8.5
 20
1.2000000000000002
 30
0.0
 11
10.5
 21
1.2000000000000002
 31
0.0
  0
LINE
  5
176
100
AcDbEntity
100
AcDbLine
  8
0
 62
0
370
-2
  6
CONTINUOUS
 10
6.5000000000000036
 20
0.500000000000001
 30
0.0
 11
6.5000000000000009
 21
1.2000000000000002
 31
0.0
  0
LINE
  5
177
100
AcDbEntity
100
AcDbLine
  8
0
 62
0
370
-2
  6
CONTINUOUS
 10
6.5000000000000009
 20
1.2000000000000002
 30
0.0
 11
8.5
 21
1.2000000000000002
 31
0.0
  0
LINE
  5
178
100
AcDbEntity
100
AcDbLine
  8
0
 62
0
370
-2
  6
CONTINUOUS
 10
8.5000000000000018
 20
0.95
 30
0.0
 11
10.5
 21
0.9500000000000001
 31
0.0
  0
LINE
  5
179
100
AcDbEntity
100
AcDbLine
  8
0
 62
0
370
-2
  6
CONTINUOUS
 10
9.5000000000000018
 20
0.9500000000000001
 30
0.0
 11
9.5000000000000036
 21
0.500000000000001
 31
0.0
  0
LINE
  5
17A
100
AcDbEntity
100
AcDbLine
  8
0
 62
0
370
-2
  6
CONTINUOUS
 10
8.8000000000000007
 20
1.5
 30
0.0
 11
10.5
 21
1.5
 31
0.0
  0
LINE
  5
17B
100
AcDbEntity
100
AcDbLine
  8
0
 62
0
370
-2
  6
CONTINUOUS
 10
8.0
 20
1.2
 30
0.0
 11
8.0
 21
1.5
 31
0.0
  0
LINE
  5
17C
100
AcDbEntity
100
AcDbLine
  8
0
 62
0
370
-2
  6
CONTINUOUS
 10
6.5000000000000009
 20
1.5
 30
0.0
 11
6.5000000000000009
 21
1.2000000000000002
 31
0.0
  0
LINE
  5
17D
100
AcDbEntity
100
AcDbLine
  8
0
 62
0
370
-2
  6
CONTINUOUS
 10
8.8000000000000007
 20
1.5
 30
0.0
 11
8.8000000000000007
 21
1.1999999999999997
 31
0.0
  0
LINE
  5
17E
100
AcDbEntity
100
AcDbLine
  8
0
 62
0
370
-2
  6
CONTINUOUS
 10
8.0000000000000018
 20
1.5
 30
0.0
 11
8.8000000000000007
 21
1.5
 31
0.0
  0
LINE
  5
17F
100
AcDbEntity
100
AcDbLine
  8
0
 62
0
370
-2
  6
CONTINUOUS
 10
6.5
 20
8.0
 30
0.0
 11
6.5
 21
7.7000000000000011
 31
0.0
  0
LINE
  5
180
100
AcDbEntity
100
AcDbLine
  8
0
 62
0
370
-2
  6
CONTINUOUS
 10
6.5
 20
7.7000000000000011
 30
0.0
 11
6.5
 21
7.0
 31
0.0
  0
LINE
  5
181
100
AcDbEntity
100
AcDbLine
  8
0
 62
0
370
-2
  6
CONTINUOUS
 10
6.5
 20
7.0
 30
0.0
 11
10.5
 21
7.0
 31
0.0
  0
LINE
  5
182
100
AcDbEntity
100
AcDbLine
  8
0
 62
0
370
-2
  6
CONTINUOUS
 10
6.5000000000000009
 20
7.2000000000000011
 30
0.0
 11
10.5
 21
7.2000000000000011
 31
0.0
  0
LINE
  5
183
100
AcDbEntity
100
AcDbLine
  8
0
 62
0
370
-2
  6
CONTINUOUS
 10
7.0000000000000009
 20
7.8000000000000007
 30
0.0
 11
7.0
 21
7.0
 31
0.0
  0
LINE
  5
184
100
AcDbEntity
100
AcDbLine
  8
0
 62
0
370
-2
  6
CONTINUOUS
 10
7.5000000000000009
 20
7.8000000000000007
 30
0.0
 11
7.5
 21
7.0
 31
0.0
  0
LINE
  5
185
100
AcDbEntity
100
AcDbLine
  8
0
 62
0
370
-2
  6
CONTINUOUS
 10
9.3000000000000007
 20
7.8000000000000007
 30
0.0
 11
9.3000000000000007
 21
7.0
 31
0.0
  0
LINE
  5
186
100
AcDbEntity
100
AcDbLine
  8
0
 62
0
370
-2
  6
CONTINUOUS
 10
10.0
 20
7.8000000000000007
 30
0.0
 11
10.0
 21
7.0
 31
0.0
  0
LINE
  5
187
100
AcDbEntity
100
AcDbLine
  8
0
 62
0
370
-2
  6
CONTINUOUS
 10
6.5000000000000009
 20
7.6000000000000005
 30
0.0
 11
10.5
 21
7.6000000000000005
 31
0.0
  0
LINE
  5
188
100
AcDbEntity
100
AcDbLine
  8
0
 62
0
370
-2
  6
CONTINUOUS
 10
6.5000000000000009
 20
7.8000000000000007
 30
0.0
 11
10.5
 21
7.8000000000000007
 31
0.0
  0
LINE
  5
189
100
AcDbEntity
100
AcDbLine
  8
0
 62
0
370
-2
  6
CONTINUOUS
 10
6.5000000000000009
 20
7.4000000000000004
 30
0.0
 11
10.5
 21
7.4000000000000004
 31
0.0
  0
MTEXT
  5
18A
100
AcDbEntity
100
AcDbMText
  8
0
 62
0
370
-2
  6
CONTINUOUS
 10
6.6000000000000005
 20
1.4000000000000004
 30
0.0
 40
0.075
 41
100.0
 71
4
 72
2
  1
Material:
  7
normallatin1
 50
0.0
 73
0
 44
1.0
  0
MTEXT
  5
18B
100
AcDbEntity
100
AcDbMText
  8
0
 62
0
370
-2
  6
CONTINUOUS
 10
8.0999999999999996
 20
1.3999999999999999
 30
0.0
 40
0.075
 41
100.0
 71
4
 72
2
  1
Part\~#:
  7
normallatin1
 50
0.0
 73
0
 44
1.0
  0
MTEXT
  5
18C
100
AcDbEntity
100
AcDbMText
  8
0
 62
0
370
-2
  6
CONTINUOUS
 10
8.9000000000000021
 20
1.3999999999999999
 30
0.0
 40
0.075
 41
100.0
 71
4
 72
2
  1
Next\~Assembly:
  7
normallatin1
 50
0.0
 73
0
 44
1.0
  0
MTEXT
  5
18D
100
AcDbEntity
100
AcDbMText
  8
0
 62
0
370
-2
  6
CONTINUOUS
 10
8.5999999999999996
 20
1.1599999999999999
 30
0.0
 40
0.075
 41
50.0
 71
1
 72
2
  1
Part\~Name:
  7
normallatin1
 50
0.0
 73
1
 44
1.0
  0
MTEXT
  5
18E
100
AcDbEntity
100
AcDbMText
  8
0
 62
0
370
-2
  6
CONTINUOUS
 10
8.6000000000000014
 20
0.9000000000000001
 30
0.0
 40
0.075
 41
50.0
 71
1
 72
2
  1
Date:
  7
normallatin1
 50
0.0
 73
1
 44
1.0
  0
MTEXT
  5
18F
100
AcDbEntity
100
AcDbMText
  8
0
 62
0
370
-2
  6
CONTINUOUS
 10
9.6000000000000014
 20
0.9000000000000046
 30
0.0
 40
0.075
 41
50.0
 71
1
 72
2
  1
Scale:
  7
normallatin1
 50
0.0
 73
1
 44
1.0
  0
MTEXT
  5
190
100
AcDbEntity
100
AcDbMText
  8
0
 62
0
370
-2
  6
CONTINUOUS
 10
8.6000000000000014
 20
0.7000000000000002
 30
0.0
 40
0.075
 41
50.0
 71
1
 72
2
  1
Sheet\~No.:
  7
normallatin1
 50
0.0
 73
1
 44
1.0
  0
MTEXT
  5
191
100
AcDbEntity
100
AcDbMText
  8
0
 62
0
370
-2
  6
CONTINUOUS
 10
9.6000000000000014
 20
0.6999999999999975
 30
0.0
 40
0.075
 41
50.0
 71
1
 72
2
  1
No.\~Sheets:
  7
normallatin1
 50
0.0
 73
1
 44
1.0
  0
MTEXT
  5
192
100
AcDbEntity
100
AcDbMText
  8
0
 62
0
370
-2
  6
CONTINUOUS
 10
8.3000000000000007
 20
7.9000000000000004
 30
0.0
 40
0.075
 41
100.0
 71
1
 72
2
  1
REVISIONS
  7
normallatin1
 50
0.0
 73
0
 44
1.0
  0
MTEXT
  5
193
100
AcDbEntity
100
AcDbMText
  8
0
 62
0
370
-2
  6
CONTINUOUS
 10
6.6000000000000014
 20
7.7000000000000011
 30
0.0
 40
0.075
 41
100.0
 71
4
 72
2
  1
ZONE
  7
normallatin1
 50
0.0
 73
0
 44
1.0
  0
MTEXT
  5
194
100
AcDbEntity
100
AcDbMText
  8
0
 62
0
370
-2
  6
CONTINUOUS
 10
7.1000000000000014
 20
7.7000000000000011
 30
0.0
 40
0.075
 41
100.0
 71
4
 72
2
  1
REV
  7
normallatin1
 50
0.0
 73
0
 44
1.0
  0
MTEXT
  5
195
100
AcDbEntity
100
AcDbMText
  8
0
 62
0
370
-2
  6
CONTINUOUS
 10
8.3000000000000007
 20
7.7000000000000011
 30
0.0
 40
0.075
 41
100.0
 71
4
 72
2
  1
DESCRIPTION
  7
normallatin1
 50
0.0
 73
0
 44
1.0
  0
MTEXT
  5
196
100
AcDbEntity
100
AcDbMText
  8
0
 62
0
370
-2
  6
CONTINUOUS
 10
9.5
 20
7.7000000000000011
 30
0.0
 40
0.075
 41
100.0
 71
4
 72
2
  1
DATE
  7
normallatin1
 50
0.0
 73
0
 44
1.0
  0
MTEXT
  5
197
100
AcDbEntity
100
AcDbMText
  8
0
 62
0
370
-2
  6
CONTINUOUS
 10
10.1000000000000014
 20
7.7000000000000011
 30
0.0
 40
0.075
 41
100.0
 71
4
 72
2
  1
APPVD
  7
normallatin1
 50
0.0
 73
0
 44
1.0
  0
LINE
  5
198
100
AcDbEntity
100
AcDbLine
  8
0
 62
256
370
-1
  6
ByLayer
 10
0.0
 20
0.5000000000000001
 30
0.0
 11
0.0
 21
0.0
 31
0.0
  0
LINE
  5
199
100
AcDbEntity
100
AcDbLine
  8
0
 62
256
370
-1
  6
ByLayer
 10
0.0
 20
0.0
 30
0.0
 11
0.5
 21
0.0
 31
0.0
  0
LINE
  5
19A
100
AcDbEntity
100
AcDbLine
  8
0
 62
256
370
-1
  6
ByLayer
 10
11.0
 20
0.5
 30
0.0
 11
11.0
 21
0.0
 31
0.0
  0
LINE
  5
19B
100
AcDbEntity
100
AcDbLine
  8
0
 62
256
370
-1
  6
ByLayer
 10
11.0
 20
0.0
 30
0.0
 11
10.5
 21
0.0
 31
0.0
  0
LINE
  5
19C
100
AcDbEntity
100
AcDbLine
  8
0
 62
256
370
-1
  6
ByLayer
 10
11.0
 20
8.0
 30
0.0
 11
11.0
 21
8.5
 31
0.0
  0
LINE
  5
19D
100
AcDbEntity
100
AcDbLine
  8
0
 62
256
370
-1
  6
ByLayer
 10
11.0
 20
8.5
 30
0.0
 11
10.5
 21
8.5
 31
0.0
  0
LINE
  5
19E
100
AcDbEntity
100
AcDbLine
  8
0
 62
256
370
-1
  6
ByLayer
 10
0.5
 20
8.5
 30
0.0
 11
0.0
 21
8.5
 31
0.0
  0
LINE
  5
19F
100
AcDbEntity
100
AcDbLine
  8
0
 62
256
370
-1
  6
ByLayer
 10
0.0
 20
8.5
 30
0.0
 11
0.0
 21
8.0
 31
0.0
  0
ENDBLK
  5
1A0
100
AcDbEntity
  8
0
100
AcDbBlockEnd
  0
ENDSEC
  0
SECTION
  2
ENTITIES
  0
HATCH
  5
1A1
  8
0
 62
256
370
18
  6
ByLayer
100
AcDbEntity
100
AcDbHatch
 10
0.0
 20
0.0
 30
0.0
210
0.0
220
0.0
230
1.0
  2
ANSI31
 70
0
 71
0
 91
1
 92
1
 93
7
 72
1
 10
-0.5781213569549136
 20
-0.4468749999999997
 11
-0.3656213569549146
 21
-0.446875
 72
1
 10
-0.3656213569549146
 20
-0.446875
 11
-0.3656213569549142
 21
-0.634375
 72
1
 10
-0.3656213569549142
 20
-0.634375
 11
-0.6781213569549142
 21
-0.634375
 72
1
 10
-0.6781213569549142
 20
-0.634375
 11
-0.6781213569549142
 21
-0.4469235753062972
 72
1
 10
-0.6781213569549142
 20
-0.4468749999999996
 11
-0.6781213569549142
 21
-0.184375
 72
1
 10
-0.6781213569549142
 20
-0.184375
 11
-0.5781213569549141
 21
-0.1843750000000002
 72
1
 10
-0.5781213569549141
 20
-0.1843750000000002
 11
-0.5781213569549136
 21
-0.4468749999999997
 97
0
 75
0
 76
1
 52
0.0
 41
0.05
 77
0
 78
1
 53
45.0
 43
0.0
 44
0.0
 45
-0.0883883476483184
 46
0.0883883476483185
 79
0
 98
0
  0
HATCH
  5
1A2
  8
0
 62
256
370
18
  6
ByLayer
100
AcDbEntity
100
AcDbHatch
 10
0.0
 20
0.0
 30
0.0
210
0.0
220
0.0
230
1.0
  2
ANSI31
 70
0
 71
0
 91
1
 92
1
 93
5
 72
1
 10
-2.3781219569549146
 20
0.8656250000000001
 11
-2.3781215569549135
 21
-0.634375
 72
1
 10
-2.3781215569549135
 20
-0.634375
 11
-2.178121356954914
 21
-0.6343750000000001
 72
1
 10
-2.178121356954914
 20
-0.6343750000000001
 11
-2.178121356954914
 21
-0.4473750000000001
 72
1
 10
-2.178121356954914
 20
-0.4473750000000001
 11
-2.178121356954914
 21
0.8656250000000001
 72
1
 10
-2.178121356954914
 20
0.8656249999999996
 11
-2.3781219569549146
 21
0.8656250000000001
 97
0
 75
0
 76
1
 52
0.0
 41
0.05
 77
0
 78
1
 53
45.0
 43
0.0
 44
0.0
 45
-0.0883883476483184
 46
0.0883883476483185
 79
0
 98
0
  0
HATCH
  5
1A3
  8
0
 62
7
370
18
  6
ByLayer
100
AcDbEntity
100
AcDbHatch
 10
0.0
 20
0.0
 30
0.0
210
0.0
220
0.0
230
1.0
  2
ansi31
 70
0
 71
0
 91
1
 92
1
 93
8
 72
1
 10
-3.3781219569549146
 20
0.6156250000000005
 11
-2.3781219569549146
 21
0.6156250000000005
 72
1
 10
-2.3781219569549146
 20
0.6156250000000005
 11
-2.3781219569549146
 21
0.4156250000000001
 72
1
 10
-2.3781219569549146
 20
0.4156250000000001
 11
-3.3781219569549146
 21
0.4156250000000001
 72
1
 10
-3.3781219569549146
 20
0.4156250000000001
 11
-3.3781219569549146
 21
0.6156250000000005
 72
1
 10
-3.3781219569549146
 20
-0.3843749999999997
 11
-2.3781219569549146
 21
-0.3843749999999997
 72
1
 10
-2.3781219569549146
 20
-0.3843749999999997
 11
-2.3781219569549146
 21
-0.184375
 72
1
 10
-2.3781219569549146
 20
-0.184375
 11
-3.3781219569549146
 21
-0.184375
 72
1
 10
-3.3781219569549146
 20
-0.184375
 11
-3.3781219569549146
 21
-0.3843749999999997
 97
0
 75
0
 76
1
 52
0.0
 41
0.05
 77
0
 78
1
 53
45.0
 43
0.0
 44
0.0
 45
-0.0883883476483184
 46
0.0883883476483185
 79
0
 98
0
  0
HATCH
  5
1A4
  8
0
 62
256
370
18
  6
ByLayer
100
AcDbEntity
100
AcDbHatch
 10
0.0
 20
0.0
 30
0.0
210
0.0
220
0.0
230
1.0
  2
ansi31
 70
0
 71
0
 91
1
 92
1
 93
6
 72
1
 10
-0.3656213569549142
 20
0.6781250000000005
 11
-0.3656213569549142
 21
0.8656249999999999
 72
1
 10
-0.3656213569549146
 20
0.8656250000000001
 11
-1.8781213569549142
 21
0.8656249999999999
 72
1
 10
-1.8781213569549142
 20
0.8656250000000001
 11
-1.8781213569549142
 21
0.515625
 72
1
 10
-1.8781213569549142
 20
0.515625
 11
-0.5781213569549141
 21
0.515625
 72
1
 10
-0.5781213569549141
 20
0.515625
 11
-0.5781213569549141
 21
0.6781250000000005
 72
1
 10
-0.5781213569549141
 20
0.6781250000000005
 11
-0.3656213569549142
 21
0.6781250000000005
 97
0
 75
0
 76
1
 52
0.0
 41
0.05
 77
0
 78
1
 53
45.0
 43
0.0
 44
0.0
 45
-0.0883883476483184
 46
0.0883883476483185
 79
0
 98
0
  0
LINE
  5
1A5
100
AcDbEntity
100
AcDbLine
  8
Servos
 62
256
370
-1
  6
ByLayer
 10
6.2699999999999996
 20
0.1500000000000004
 30
0.0
 11
6.2699999999999996
 21
-0.1500000000000004
 31
0.0
  0
LINE
  5
1A6
100
AcDbEntity
100
AcDbLine
  8
Servos
 62
256
370
-1
  6
ByLayer
 10
6.2699999999999996
 20
-0.1500000000000004
 30
0.0
 11
6.4499999999999993
 21
-0.1500000000000004
 31
0.0
  0
LINE
  5
1A7
100
AcDbEntity
100
AcDbLine
  8
Servos
 62
256
370
-1
  6
ByLayer
 10
6.4499999999999993
 20
-0.1500000000000004
 30
0.0
 11
6.4499999999999993
 21
0.1500000000000004
 31
0.0
  0
LINE
  5
1A8
100
AcDbEntity
100
AcDbLine
  8
Servos
 62
256
370
-1
  6
ByLayer
 10
6.4499999999999993
 20
0.1500000000000004
 30
0.0
 11
6.2699999999999996
 21
0.1500000000000004
 31
0.0
  0
LINE
  5
1A9
100
AcDbEntity
100
AcDbLine
  8
Servos
 62
256
370
-1
  6
ByLayer
 10
6.4299999999999997
 20
0.1200000000000001
 30
0.0
 11
6.2899999999999991
 21
0.1200000000000001
 31
0.0
  0
LINE
  5
1AA
100
AcDbEntity
100
AcDbLine
  8
Servos
 62
256
370
-1
  6
ByLayer
 10
6.2899999999999991
 20
0.1200000000000001
 30
0.0
 11
6.2899999999999991
 21
-0.1200000000000001
 31
0.0
  0
LINE
  5
1AB
100
AcDbEntity
100
AcDbLine
  8
Servos
 62
256
370
-1
  6
ByLayer
 10
6.2899999999999991
 20
-0.1200000000000001
 30
0.0
 11
6.4299999999999997
 21
-0.1200000000000002
 31
0.0
  0
LINE
  5
1AC
100
AcDbEntity
100
AcDbLine
  8
Servos
 62
256
370
-1
  6
ByLayer
 10
6.4299999999999997
 20
-0.1200000000000002
 30
0.0
 11
6.4299999999999997
 21
0.1200000000000001
 31
0.0
  0
LINE
  5
1AD
100
AcDbEntity
100
AcDbLine
  8
Servos
 62
256
370
-1
  6
ByLayer
 10
7.8000000000000007
 20
0.4
 30
0.0
 11
7.8000000000000007
 21
0.4
 31
0.0
  0
LINE
  5
1AE
100
AcDbEntity
100
AcDbLine
  8
Servos
 62
256
370
-1
  6
ByLayer
 10
7.7000000000000011
 20
-0.3820000000000005
 30
0.0
 11
7.7000000000000011
 21
0.3879999999999992
 31
0.0
  0
LINE
  5
1AF
100
AcDbEntity
100
AcDbLine
  8
Servos
 62
256
370
-1
  6
ByLayer
 10
6.1999999999999993
 20
-0.3819999999999997
 30
0.0
 11
7.7000000000000011
 21
-0.3820000000000005
 31
0.0
  0
LINE
  5
1B0
100
AcDbEntity
100
AcDbLine
  8
Servos
 62
256
370
-1
  6
ByLayer
 10
7.7000000000000011
 20
0.3879999999999992
 30
0.0
 11
6.1999999999999993
 21
0.3879999999999999
 31
0.0
  0
LINE
  5
1B1
100
AcDbEntity
100
AcDbLine
  8
Servos
 62
256
370
-1
  6
ByLayer
 10
7.4000000000000021
 20
-0.3820000000000001
 30
0.0
 11
7.4000000000000021
 21
0.3880000000000001
 31
0.0
  0
LINE
  5
1B2
100
AcDbEntity
100
AcDbLine
  8
Servos
 62
256
370
-1
  6
ByLayer
 10
7.3000000000000007
 20
0.3880000000000001
 30
0.0
 11
7.3000000000000007
 21
-0.3820000000000002
 31
0.0
  0
LINE
  5
1B3
100
AcDbEntity
100
AcDbLine
  8
Servos
 62
256
370
-1
  6
ByLayer
 10
7.3000000000000007
 20
0.1000000000000008
 30
0.0
 11
7.4000000000000021
 21
0.1000000000000014
 31
0.0
  0
LINE
  5
1B4
100
AcDbEntity
100
AcDbLine
  8
Servos
 62
256
370
-1
  6
ByLayer
 10
7.4000000000000021
 20
0.2700000000000004
 30
0.0
 11
7.3000000000000007
 21
0.27
 31
0.0
  0
LINE
  5
1B5
100
AcDbEntity
100
AcDbLine
  8
Servos
 62
256
370
-1
  6
ByLayer
 10
7.3000000000000007
 20
-0.2700000000000007
 30
0.0
 11
7.4000000000000021
 21
-0.2700000000000011
 31
0.0
  0
LINE
  5
1B6
100
AcDbEntity
100
AcDbLine
  8
Servos
 62
256
370
-1
  6
ByLayer
 10
7.4000000000000021
 20
-0.1000000000000002
 30
0.0
 11
7.3000000000000007
 21
-0.0999999999999992
 31
0.0
  0
LINE
  5
1B7
100
AcDbEntity
100
AcDbLine
  8
Servos
 62
256
370
-1
  6
ByLayer
 10
7.7100000000000009
 20
0.2750000000000001
 30
0.0
 11
7.8000000000000007
 21
0.225000000000001
 31
0.0
  0
LINE
  5
1B8
100
AcDbEntity
100
AcDbLine
  8
Servos
 62
256
370
-1
  6
ByLayer
 10
7.8000000000000007
 20
0.225000000000001
 30
0.0
 11
7.8000000000000007
 21
-0.2249999999999994
 31
0.0
  0
LINE
  5
1B9
100
AcDbEntity
100
AcDbLine
  8
Servos
 62
256
370
-1
  6
ByLayer
 10
7.8000000000000007
 20
-0.2249999999999994
 30
0.0
 11
7.7100000000000009
 21
-0.2750000000000006
 31
0.0
  0
LINE
  5
1BA
100
AcDbEntity
100
AcDbLine
  8
Servos
 62
256
370
-1
  6
ByLayer
 10
7.8000000000000007
 20
0.115000000000001
 30
0.0
 11
7.9499999999999993
 21
0.1150000000000014
 31
0.0
  0
LINE
  5
1BB
100
AcDbEntity
100
AcDbLine
  8
Servos
 62
256
370
-1
  6
ByLayer
 10
7.9499999999999993
 20
0.1150000000000014
 30
0.0
 11
7.9499999999999993
 21
-0.1150000000000024
 31
0.0
  0
LINE
  5
1BC
100
AcDbEntity
100
AcDbLine
  8
Servos
 62
256
370
-1
  6
ByLayer
 10
7.9499999999999993
 20
-0.1150000000000024
 30
0.0
 11
7.8000000000000007
 21
-0.1149999999999974
 31
0.0
  0
LINE
  5
1BD
100
AcDbEntity
100
AcDbLine
  8
Servos
 62
256
370
-1
  6
ByLayer
 10
1.0000000000000004
 20
0.3950000000000001
 30
0.0
 11
1.0000000000000004
 21
-1.1750000000000003
 31
0.0
  0
LINE
  5
1BE
100
AcDbEntity
100
AcDbLine
  8
Servos
 62
256
370
-1
  6
ByLayer
 10
2.3000000000000012
 20
0.3949999999999765
 30
0.0
 11
2.2000000000000015
 21
0.3950000000000048
 31
0.0
  0
LINE
  5
1BF
100
AcDbEntity
100
AcDbLine
  8
Servos
 62
256
370
-1
  6
ByLayer
 10
2.1000000000000001
 20
0.3950000000000201
 30
0.0
 11
2.1000000000000001
 21
0.6949999999999996
 31
0.0
  0
LINE
  5
1C0
100
AcDbEntity
100
AcDbLine
  8
Servos
 62
256
370
-1
  6
ByLayer
 10
2.1000000000000001
 20
0.6949999999999996
 30
0.0
 11
2.2000000000000015
 21
0.6950000000000001
 31
0.0
  0
LINE
  5
1C1
100
AcDbEntity
100
AcDbLine
  8
Servos
 62
256
370
-1
  6
ByLayer
 10
2.2000000000000015
 20
0.6950000000000001
 30
0.0
 11
2.2000000000000015
 21
0.3950000000000048
 31
0.0
  0
LINE
  5
1C2
100
AcDbEntity
100
AcDbLine
  8
Servos
 62
256
370
-1
  6
ByLayer
 10
2.1000000000000001
 20
-1.1750000000000005
 30
0.0
 11
2.0999999999999983
 21
-1.4750000000000005
 31
0.0
  0
LINE
  5
1C3
100
AcDbEntity
100
AcDbLine
  8
Servos
 62
256
370
-1
  6
ByLayer
 10
2.0999999999999983
 20
-1.4750000000000005
 30
0.0
 11
2.1999999999999997
 21
-1.4750000000000012
 31
0.0
  0
LINE
  5
1C4
100
AcDbEntity
100
AcDbLine
  8
Servos
 62
256
370
-1
  6
ByLayer
 10
2.1999999999999997
 20
-1.4750000000000012
 30
0.0
 11
2.2000000000000015
 21
-1.1750000000000009
 31
0.0
  0
LINE
  5
1C5
100
AcDbEntity
100
AcDbLine
  8
Servos
 62
256
370
-1
  6
ByLayer
 10
1.0000000000000004
 20
-1.1750000000000003
 30
0.0
 11
2.1000000000000001
 21
-1.1750000000000005
 31
0.0
  0
LINE
  5
1C6
100
AcDbEntity
100
AcDbLine
  8
Servos
 62
256
370
-1
  6
ByLayer
 10
2.1000000000000001
 20
0.3950000000000201
 30
0.0
 11
1.0000000000000004
 21
0.3950000000000001
 31
0.0
  0
LINE
  5
1C7
100
AcDbEntity
100
AcDbLine
  8
Servos
 62
256
370
-1
  6
ByLayer
 10
2.2000000000000015
 20
-1.1750000000000009
 30
0.0
 11
2.3000000000000012
 21
-1.1750000000000007
 31
0.0
  0
LINE
  5
1C8
100
AcDbEntity
100
AcDbLine
  8
Servos
 62
256
370
-1
  6
ByLayer
 10
2.3000000000000012
 20
-1.1750000000000007
 30
0.0
 11
2.3500000000000001
 21
-1.005000000000001
 31
0.0
  0
LINE
  5
1C9
100
AcDbEntity
100
AcDbLine
  8
Servos
 62
256
370
-1
  6
ByLayer
 10
2.3500000000000001
 20
-1.005000000000001
 30
0.0
 11
2.5000000000000004
 21
-0.9550000000000007
 31
0.0
  0
LINE
  5
1CA
100
AcDbEntity
100
AcDbLine
  8
Servos
 62
256
370
-1
  6
ByLayer
 10
2.5000000000000004
 20
-0.9550000000000007
 30
0.0
 11
2.5000000000000004
 21
0.305000000000003
 31
0.0
  0
LINE
  5
1CB
100
AcDbEntity
100
AcDbLine
  8
Servos
 62
256
370
-1
  6
ByLayer
 10
2.5000000000000004
 20
0.305000000000003
 30
0.0
 11
2.3000000000000012
 21
0.3949999999999765
 31
0.0
  0
LINE
  5
1CC
100
AcDbEntity
100
AcDbLine
  8
Servos
 62
256
370
-1
  6
ByLayer
 10
2.5000000000000004
 20
0.2749999999999982
 30
0.0
 11
2.5900000000000003
 21
0.2250000000000002
 31
0.0
  0
LINE
  5
1CD
100
AcDbEntity
100
AcDbLine
  8
Servos
 62
256
370
-1
  6
ByLayer
 10
2.5900000000000003
 20
0.2250000000000002
 30
0.0
 11
2.5900000000000003
 21
-0.2250000000000001
 31
0.0
  0
LINE
  5
1CE
100
AcDbEntity
100
AcDbLine
  8
Servos
 62
256
370
-1
  6
ByLayer
 10
2.5900000000000003
 20
-0.2250000000000001
 30
0.0
 11
2.5000000000000004
 21
-0.2750000000000006
 31
0.0
  0
LINE
  5
1CF
100
AcDbEntity
100
AcDbLine
  8
Servos
 62
256
370
-1
  6
ByLayer
 10
2.5900000000000003
 20
0.1150000000000012
 30
0.0
 11
2.7400000000000007
 21
0.1150000000000015
 31
0.0
  0
LINE
  5
1D0
100
AcDbEntity
100
AcDbLine
  8
Servos
 62
256
370
-1
  6
ByLayer
 10
2.7400000000000007
 20
0.1150000000000015
 30
0.0
 11
2.7400000000000007
 21
-0.1149999999999989
 31
0.0
  0
LINE
  5
1D1
100
AcDbEntity
100
AcDbLine
  8
Servos
 62
256
370
-1
  6
ByLayer
 10
2.7400000000000007
 20
-0.1149999999999989
 30
0.0
 11
2.5900000000000003
 21
-0.1149999999999983
 31
0.0
  0
LINE
  5
1D2
100
AcDbEntity
100
AcDbLine
  8
Servos
 62
256
370
-1
  6
ByLayer
 10
2.1000000000000001
 20
-1.4550000000000001
 30
0.0
 11
2.1999999999999997
 21
-1.4550000000000003
 31
0.0
  0
LINE
  5
1D3
100
AcDbEntity
100
AcDbLine
  8
Servos
 62
256
370
-1
  6
ByLayer
 10
2.2000000000000015
 20
-1.2849999999999995
 30
0.0
 11
2.1000000000000001
 21
-1.2849999999999997
 31
0.0
  0
LINE
  5
1D4
100
AcDbEntity
100
AcDbLine
  8
Servos
 62
256
370
-1
  6
ByLayer
 10
2.1000000000000001
 20
0.6750000000000005
 30
0.0
 11
2.2000000000000015
 21
0.675000000000001
 31
0.0
  0
LINE
  5
1D5
100
AcDbEntity
100
AcDbLine
  8
Servos
 62
256
370
-1
  6
ByLayer
 10
2.2000000000000015
 20
0.5050000000000006
 30
0.0
 11
2.1000000000000019
 21
0.5049999999999987
 31
0.0
  0
LINE
  5
1D6
100
AcDbEntity
100
AcDbLine
  8
Servos
 62
256
370
-1
  6
ByLayer
 10
1.0700000000000043
 20
0.3950000000000001
 30
0.0
 11
1.0899999999999985
 21
0.695
 31
0.0
  0
LINE
  5
1D7
100
AcDbEntity
100
AcDbLine
  8
Servos
 62
256
370
-1
  6
ByLayer
 10
1.0899999999999985
 20
0.695
 30
0.0
 11
1.2300000000000026
 21
0.6950000000000001
 31
0.0
  0
LINE
  5
1D8
100
AcDbEntity
100
AcDbLine
  8
Servos
 62
256
370
-1
  6
ByLayer
 10
1.2300000000000026
 20
0.6950000000000001
 30
0.0
 11
1.2500000000000004
 21
0.395000000000001
 31
0.0
  0
LINE
  5
1D9
100
AcDbEntity
100
AcDbLine
  8
Servos
 62
256
370
-1
  6
ByLayer
 10
6.1999999999999993
 20
0.3879999999999999
 30
0.0
 11
6.1999999999999993
 21
-0.3819999999999997
 31
0.0
  0
LEADER
  5
1DA
  8
notes
 62
256
370
18
  6
ByLayer
100
AcDbEntity
100
AcDbLeader
  3
Standard
 71
1
 72
0
 73
3
 74
0
 75
0
 40
1.0
 41
10.0
 76
3
 10
-2.4624979142622236
 20
0.5281250000000001
 10
-2.9624979142622245
 20
0.0281250000000001
 10
-3.9624979142622241
 20
0.0281250000000001
  0
LEADER
  5
1DB
  8
notes
 62
256
370
18
  6
ByLayer
100
AcDbEntity
100
AcDbLeader
  3
Standard
 71
1
 72
0
 73
3
 74
0
 75
0
 40
1.0
 41
10.0
 76
3
 10
0.5500020857377759
 20
1.778125
 10
1.1375020857377762
 20
2.328125
 10
2.4375020857377758
 20
2.328125
  0
LEADER
  5
1DC
  8
notes
 62
256
370
18
  6
ByLayer
100
AcDbEntity
100
AcDbLeader
  3
Standard
 71
1
 72
0
 73
3
 74
0
 75
0
 40
1.0
 41
10.0
 76
3
 10
0.5500020857377759
 20
1.5906250000000006
 10
1.0375020857377761
 20
2.0281250000000002
 10
2.4375020857377749
 20
2.0281250000000002
  0
LEADER
  5
1DD
  8
notes
 62
256
370
18
  6
ByLayer
100
AcDbEntity
100
AcDbLeader
  3
Standard
 71
1
 72
0
 73
3
 74
0
 75
0
 40
1.0
 41
10.0
 76
3
 10
-2.4624979142622245
 20
1.3281249999999998
 10
-2.862497914262224
 20
1.828125
 10
-3.9624979142622241
 20
1.828125
  0
LEADER
  5
1DE
  8
notes
 62
256
370
18
  6
ByLayer
100
AcDbEntity
100
AcDbLeader
  3
Standard
 71
1
 72
0
 73
3
 74
0
 75
0
 40
1.0
 41
10.0
 76
3
 10
-0.9624979142622243
 20
1.8031250000000001
 10
-0.662497914262224
 20
2.328125
 10
0.4375020857377756
 20
2.328125
  0
LEADER
  5
1DF
  8
notes
 62
256
370
18
  6
ByLayer
100
AcDbEntity
100
AcDbLeader
  3
Standard
 71
1
 72
0
 73
3
 74
0
 75
0
 40
1.0
 41
10.0
 76
3
 10
-0.4624979142622239
 20
0.8281249999999999
 10
-1.862497914262224
 20
0.0281249999999999
 10
-2.6624979142622238
 20
0.0281249999999999
  0
MTEXT
  5
1E0
100
AcDbEntity
100
AcDbMText
  8
notes
 62
256
370
18
  6
ByLayer
 10
-3.5624979142622233
 20
0.2281249999999998
 30
0.0
 40
0.18
 41
100.0
 71
4
 72
2
  1
A
  7
normallatin2
 50
0.0
 73
0
 44
1.0
  0
MTEXT
  5
1E1
100
AcDbEntity
100
AcDbMText
  8
notes
 62
256
370
18
  6
ByLayer
 10
1.637502085737776
 20
2.5281250000000002
 30
0.0
 40
0.18
 41
100.0
 71
4
 72
2
  1
B
  7
normallatin2
 50
0.0
 73
0
 44
1.0
  0
MTEXT
  5
1E2
100
AcDbEntity
100
AcDbMText
  8
notes
 62
256
370
18
  6
ByLayer
 10
-3.4624979142622236
 20
2.0281250000000002
 30
0.0
 40
0.18
 41
100.0
 71
4
 72
2
  1
C
  7
normallatin2
 50
0.0
 73
0
 44
1.0
  0
MTEXT
  5
1E3
100
AcDbEntity
100
AcDbMText
  8
notes
 62
256
370
18
  6
ByLayer
 10
-0.2624979142622237
 20
2.5281250000000002
 30
0.0
 40
0.18
 41
100.0
 71
4
 72
2
  1
E
  7
normallatin2
 50
0.0
 73
0
 44
1.0
  0
MTEXT
  5
1E4
100
AcDbEntity
100
AcDbMText
  8
notes
 62
256
370
18
  6
ByLayer
 10
-2.2624979142622244
 20
0.2281249999999998
 30
0.0
 40
0.18
 41
100.0
 71
4
 72
2
  1
F
  7
normallatin2
 50
0.0
 73
0
 44
1.0
  0
MTEXT
  5
1E5
100
AcDbEntity
100
AcDbMText
  8
notes
 62
256
370
18
  6
ByLayer
 10
1.637502085737776
 20
2.1581250000000001
 30
0.0
 40
0.18
 41
100.0
 71
4
 72
2
  1
D
  7
normallatin2
 50
0.0
 73
0
 44
1.0
  0
MTEXT
  5
1E6
100
AcDbEntity
100
AcDbMText
  8
notes
 62
256
370
18
  6
ByLayer
 10
-4.4624988914030865
 20
-0.9218750000000002
 30
0.0
 40
0.1
 41
100.0
 71
4
 72
2
  1
Machining\~Sequence\P1.\~Turn\~OD\~at\~A\~and\~B\P2.\~Turn\~ID\~at\~C\~and\~D\P3.\~Mill\~Pockets\~at\~E\~and\~F\Pusing\~diam.\~0.125\~end\~mill
  7
normallatin2
 50
0.0
 73
0
 44
1.0
  0
INSERT
  5
1E7
100
AcDbEntity
100
AcDbBlockReference
  8
0
 62
256
370
18
  6
ByLayer
  2
letter_border-1
 10
-5.2000000000000002
 20
-4.25
 30
0.0
  0
MTEXT
  5
1E8
100
AcDbEntity
100
AcDbMText
  8
0
 62
256
370
18
  6
ByLayer
 10
2.1000000000000001
 20
-2.9000000000000004
 30
0.0
 40
0.075
 41
100.0
 71
4
 72
2
  1
DELRIN
  7
unicode
 50
0.0
 73
1
 44
1.0
  0
MTEXT
  5
1E9
100
AcDbEntity
100
AcDbMText
  8
0
 62
256
370
18
  6
ByLayer
 10
3.3000000000000003
 20
-2.9000000000000004
 30
0.0
 40
0.075
 41
100.0
 71
4
 72
2
  1
C-02
  7
unicode
 50
0.0
 73
1
 44
1.0
  0
MTEXT
  5
1EA
100
AcDbEntity
100
AcDbMText
  8
0
 62
256
370
18
  6
ByLayer
 10
2.0
 20
-3.3799999999999999
 30
0.0
 40
0.075
 41
100.0
 71
4
 72
2
  1
%%p.005
  7
unicode
 50
0.0
 73
1
 44
1.0
  0
MTEXT
  5
1EB
100
AcDbEntity
100
AcDbMText
  8
0
 62
256
370
18
  6
ByLayer
 10
2.0
 20
-3.5
 30
0.0
 40
0.075
 41
100.0
 71
4
 72
2
  1
%%p.005
  7
unicode
 50
0.0
 73
1
 44
1.0
  0
MTEXT
  5
1EC
100
AcDbEntity
100
AcDbMText
  8
0
 62
256
370
18
  6
ByLayer
 10
2.0
 20
-3.6199999999999997
 30
0.0
 40
0.075
 41
100.0
 71
4
 72
2
  1
%%p.0005
  7
unicode
 50
0.0
 73
1
 44
1.0
  0
MTEXT
  5
1ED
100
AcDbEntity
100
AcDbMText
  8
0
 62
256
370
18
  6
ByLayer
 10
3.7999999999999998
 20
-3.3999999999999999
 30
0.0
 40
0.075
 41
100.0
 71
4
 72
2
  1
11.14.2010
  7
unicode
 50
0.0
 73
1
 44
1.0
  0
MTEXT
  5
1EE
100
AcDbEntity
100
AcDbMText
  8
0
 62
256
370
18
  6
ByLayer
 10
4.0999999999999996
 20
-3.5999999999999996
 30
0.0
 40
0.075
 41
100.0
 71
4
 72
2
  1
1
  7
unicode
 50
0.0
 73
1
 44
1.0
  0
MTEXT
  5
1EF
100
AcDbEntity
100
AcDbMText
  8
0
 62
256
370
18
  6
ByLayer
 10
4.9000000000000004
 20
-3.3999999999999999
 30
0.0
 40
0.075
 41
100.0
 71
4
 72
2
  1
1
  7
unicode
 50
0.0
 73
1
 44
1.0
  0
MTEXT
  5
1F0
100
AcDbEntity
100
AcDbMText
  8
0
 62
256
370
18
  6
ByLayer
 10
4.0999999999999996
 20
-3.1999999999999997
 30
0.0
 40
0.075
 41
100.0
 71
4
 72
2
  1
End\~Pos\~Proximal
  7
unicode
 50
0.0
 73
1
 44
1.0
  0
LINE
  5
1F1
100
AcDbEntity
100
AcDbLine
  8
0
 62
7
370
18
  6
ByLayer
 10
-3.3781219569549146
 20
0.6156250000000005
 30
0.0
 11
-2.3781219569549146
 21
0.6156250000000005
 31
0.0
  0
LINE
  5
1F2
100
AcDbEntity
100
AcDbLine
  8
0
 62
7
370
18
  6
ByLayer
 10
-3.3781219569549146
 20
-0.3843749999999997
 30
0.0
 11
-2.3781219569549146
 21
-0.3843749999999997
 31
0.0
  0
LINE
  5
1F3
100
AcDbEntity
100
AcDbLine
  8
0
 62
7
370
18
  6
ByLayer
 10
-2.3781219569549146
 20
-0.184375
 30
0.0
 11
-3.3781219569549146
 21
-0.184375
 31
0.0
  0
LINE
  5
1F4
100
AcDbEntity
100
AcDbLine
  8
0
 62
7
370
18
  6
ByLayer
 10
-3.3781219569549146
 20
-0.3843749999999997
 30
0.0
 11
-3.3781219569549146
 21
-0.184375
 31
0.0
  0
LINE
  5
1F5
100
AcDbEntity
100
AcDbLine
  8
0
 62
7
370
18
  6
ByLayer
 10
-3.3781219569549146
 20
-0.184375
 30
0.0
 11
-3.3781219569549146
 21
0.4156250000000001
 31
0.0
  0
LINE
  5
1F6
100
AcDbEntity
100
AcDbLine
  8
0
 62
7
370
18
  6
ByLayer
 10
-3.3781219569549146
 20
0.4156250000000001
 30
0.0
 11
-3.3781219569549146
 21
0.6156250000000005
 31
0.0
  0
LINE
  5
1F7
100
AcDbEntity
100
AcDbLine
  8
0
 62
7
370
18
  6
ByLayer
 10
-3.3781219569549146
 20
0.4156250000000001
 30
0.0
 11
-2.3781219569549146
 21
0.4156250000000001
 31
0.0
  0
LINE
  5
1F8
100
AcDbEntity
100
AcDbLine
  8
0
 62
7
370
18
  6
ByLayer
 10
-0.3656213569549142
 20
0.6781250000000005
 30
0.0
 11
-0.3656213569549142
 21
0.8656249999999999
 31
0.0
  0
LINE
  5
1F9
100
AcDbEntity
100
AcDbLine
  8
0
 62
7
370
18
  6
ByLayer
 10
-2.178121356954914
 20
0.8656250000000001
 30
0.0
 11
-1.8781213569549142
 21
0.8656250000000001
 31
0.0
  0
LINE
  5
1FA
100
AcDbEntity
100
AcDbLine
  8
0
 62
7
370
18
  6
ByLayer
 10
-1.8781213569549142
 20
0.8656249999999999
 30
0.0
 11
-0.3656213569549146
 21
0.8656250000000001
 31
0.0
  0
LINE
  5
1FB
100
AcDbEntity
100
AcDbLine
  8
0
 62
7
370
18
  6
ByLayer
 10
-1.8781213569549142
 20
0.8656250000000001
 30
0.0
 11
-1.8781213569549142
 21
0.515625
 31
0.0
  0
LINE
  5
1FC
100
AcDbEntity
100
AcDbLine
  8
0
 62
7
370
18
  6
CONTINUOUS
 10
-1.8781213569549142
 20
0.515625
 30
0.0
 11
-2.178121356954914
 21
0.515625
 31
0.0
  0
LINE
  5
1FD
100
AcDbEntity
100
AcDbLine
  8
0
 62
7
370
18
  6
ByLayer
 10
-0.5781213569549141
 20
0.6781250000000005
 30
0.0
 11
-0.3656213569549142
 21
0.6781250000000005
 31
0.0
  0
LINE
  5
1FE
100
AcDbEntity
100
AcDbLine
  8
0
 62
7
370
18
  6
ByLayer
 10
-1.8781213569549142
 20
0.515625
 30
0.0
 11
-0.5781213569549141
 21
0.515625
 31
0.0
  0
LINE
  5
1FF
100
AcDbEntity
100
AcDbLine
  8
0
 62
256
370
18
  6
ByLayer
 10
-0.5781213569549141
 20
0.6781250000000005
 30
0.0
 11
-0.5781213569549141
 21
0.515625
 31
0.0
  0
LINE
  5
200
100
AcDbEntity
100
AcDbLine
  8
0
 62
7
370
18
  6
ByLayer
 10
-2.3781219569549146
 20
0.8656250000000001
 30
0.0
 11
-2.3781215569549135
 21
-0.634375
 31
0.0
  0
LINE
  5
201
100
AcDbEntity
100
AcDbLine
  8
0
 62
7
370
18
  6
ByLayer
 10
-0.5781213569549136
 20
-0.4468749999999997
 30
0.0
 11
-0.3656213569549146
 21
-0.446875
 31
0.0
  0
LINE
  5
202
100
AcDbEntity
100
AcDbLine
  8
0
 62
7
370
18
  6
ByLayer
 10
-2.178121356954914
 20
0.8656249999999996
 30
0.0
 11
-2.3781219569549146
 21
0.8656250000000001
 31
0.0
  0
LINE
  5
203
100
AcDbEntity
100
AcDbLine
  8
0
 62
7
370
18
  6
ByLayer
 10
-0.6781213569549142
 20
-0.4468749999999996
 30
0.0
 11
-2.178121356954914
 21
-0.4473750000000001
 31
0.0
  0
LINE
  5
204
100
AcDbEntity
100
AcDbLine
  8
0
 62
7
370
18
  6
ByLayer
 10
-0.3656213569549146
 20
-0.446875
 30
0.0
 11
-0.3656213569549142
 21
-0.634375
 31
0.0
  0
LINE
  5
205
100
AcDbEntity
100
AcDbLine
  8
0
 62
256
370
18
  6
ByLayer
 10
-0.5781213569549141
 20
-0.1843750000000002
 30
0.0
 11
-0.6781213569549142
 21
-0.184375
 31
0.0
  0
LINE
  5
206
100
AcDbEntity
100
AcDbLine
  8
0
 62
256
370
18
  6
ByLayer
 10
-0.5781213569549136
 20
-0.4468749999999997
 30
0.0
 11
-0.5781213569549141
 21
-0.1843750000000002
 31
0.0
  0
LINE
  5
207
100
AcDbEntity
100
AcDbLine
  8
0
 62
256
370
18
  6
ByLayer
 10
-0.3656213569549142
 20
0.6781250000000005
 30
0.0
 11
-0.3656213569549146
 21
-0.446875
 31
0.0
  0
DIMENSION
  5
208
100
AcDbEntity
  8
0
 62
256
370
18
  6
ByLayer
100
AcDbDimension
 10
-3.3781219569549146
 20
1.1156250000000001
 30
0.0
 11
-2.8781219569549146
 21
1.1906250000000003
 31
0.0
 70
0
 71
5
 72
0
 41
1.0
 42
0.0
  1

  3
Standard
100
AcDbAlignedDimension
 13
-2.3781219569549146
 23
0.6156250000000005
 33
0.0
 14
-3.3781219569549146
 24
0.6156250000000005
 34
0.0
 50
0.0
100
AcDbRotatedDimension
  0
DIMENSION
  5
209
100
AcDbEntity
  8
0
 62
256
370
18
  6
ByLayer
100
AcDbDimension
 10
-1.8781213569549142
 20
0.9156250000000008
 30
0.0
 11
-2.0281213569549141
 21
0.9906250000000005
 31
0.0
 70
0
 71
5
 72
0
 41
1.0
 42
0.0
  1

  3
Standard
100
AcDbAlignedDimension
 13
-2.178121356954914
 23
0.8656250000000001
 33
0.0
 14
-1.8781213569549142
 24
0.8656250000000001
 34
0.0
 50
0.0
100
AcDbRotatedDimension
  0
DIMENSION
  5
20A
100
AcDbEntity
  8
0
 62
256
370
18
  6
ByLayer
100
AcDbDimension
 10
-0.3656213569549146
 20
-0.8843749999999996
 30
0.0
 11
-0.4718713569549143
 21
-0.8093749999999996
 31
0.0
 70
0
 71
5
 72
0
 41
1.0
 42
0.0
  1

  3
Standard
100
AcDbAlignedDimension
 13
-0.5781213569549136
 23
-0.4468749999999997
 33
0.0
 14
-0.3656213569549146
 24
-0.446875
 34
0.0
 50
0.0
100
AcDbRotatedDimension
  0
DIMENSION
  5
20B
100
AcDbEntity
  8
0
 62
256
370
18
  6
ByLayer
100
AcDbDimension
 10
-3.4781213569549143
 20
0.4156249999999997
 30
0.0
 11
-3.5531213569549145
 21
0.1156249999999996
 31
0.0
 70
0
 71
5
 72
0
 41
1.0
 42
0.0
  1

  3
Standard
100
AcDbAlignedDimension
 13
-3.3781213569549147
 23
-0.1843750000000004
 33
0.0
 14
-3.3781213569549147
 24
0.4156249999999997
 34
0.0
 50
90.0
100
AcDbRotatedDimension
  0
DIMENSION
  5
20C
100
AcDbEntity
  8
0
 62
256
370
18
  6
ByLayer
100
AcDbDimension
 10
-3.7781213569549141
 20
-0.3843749999999999
 30
0.0
 11
-3.8531213569549143
 21
0.1156250000000001
 31
0.0
 70
0
 71
5
 72
0
 41
1.0
 42
0.0
  1

  3
Standard
100
AcDbAlignedDimension
 13
-3.3781213569549147
 23
0.6156250000000001
 33
0.0
 14
-3.3781213569549147
 24
-0.384375
 34
0.0
 50
90.0
100
AcDbRotatedDimension
  0
DIMENSION
  5
20D
100
AcDbEntity
  8
0
 62
256
370
18
  6
ByLayer
100
AcDbDimension
 10
0.2218786430450862
 20
-0.6343750000000001
 30
0.0
 11
0.146878643045086
 21
0.1156250000000001
 31
0.0
 70
0
 71
5
 72
0
 41
1.0
 42
0.0
  1

  3
Standard
100
AcDbAlignedDimension
 13
-0.3656213569549142
 23
0.8656249999999999
 33
0.0
 14
-0.3656213569549142
 24
-0.634375
 34
0.0
 50
90.0
100
AcDbRotatedDimension
  0
DIMENSION
  5
20E
100
AcDbEntity
  8
0
 62
256
370
18
  6
ByLayer
100
AcDbDimension
 10
-2.178121356954914
 20
-1.0843750000000001
 30
0.0
 11
-2.278121456954914
 21
-1.0093750000000001
 31
0.0
 70
0
 71
5
 72
0
 41
1.0
 42
0.0
  1

  3
Standard
100
AcDbAlignedDimension
 13
-2.3781215569549135
 23
-0.634375
 33
0.0
 14
-2.178121356954914
 24
-1.1343750000000001
 34
0.0
 50
0.0
100
AcDbRotatedDimension
  0
MTEXT
  5
20F
100
AcDbEntity
100
AcDbMText
  8
0
 62
256
370
18
  6
ByLayer
 10
-3.908121356954914
 20
0.1456249999999999
 30
0.0
 40
0.1
 41
100.0
 71
1
 72
2
  1
+.005
  7
normallatin1
 50
90.0
 73
0
 44
1.0
  0
LINE
  5
210
100
AcDbEntity
100
AcDbLine
  8
0
 62
256
370
18
  6
ByLayer
 10
-2.3781219569549146
 20
1.1156250000000001
 30
0.0
 11
-0.3656213569549142
 21
1.1156250000000001
 31
0.0
  0
LINE
  5
211
100
AcDbEntity
100
AcDbLine
  8
0
 62
256
370
18
  6
ByLayer
 10
-2.3781219569549146
 20
1.1156250000000001
 30
0.0
 11
-2.278121956954914
 21
1.1322763863109135
 31
0.0
  0
LINE
  5
212
100
AcDbEntity
100
AcDbLine
  8
0
 62
256
370
18
  6
ByLayer
 10
-2.278121956954914
 20
1.1322763863109135
 30
0.0
 11
-2.278121956954914
 21
1.0989736136890862
 31
0.0
  0
LINE
  5
213
100
AcDbEntity
100
AcDbLine
  8
0
 62
256
370
18
  6
ByLayer
 10
-2.278121956954914
 20
1.0989736136890862
 30
0.0
 11
-2.3781219569549146
 21
1.1156250000000001
 31
0.0
  0
LINE
  5
214
100
AcDbEntity
100
AcDbLine
  8
0
 62
256
370
18
  6
ByLayer
 10
-0.3656213569549142
 20
1.1156250000000001
 30
0.0
 11
-0.4656213569549142
 21
1.0989736136890862
 31
0.0
  0
LINE
  5
215
100
AcDbEntity
100
AcDbLine
  8
0
 62
256
370
18
  6
ByLayer
 10
-0.4656213569549142
 20
1.0989736136890862
 30
0.0
 11
-0.4656213569549142
 21
1.1322763863109135
 31
0.0
  0
LINE
  5
216
100
AcDbEntity
100
AcDbLine
  8
0
 62
256
370
18
  6
ByLayer
 10
-0.4656213569549142
 20
1.1322763863109135
 30
0.0
 11
-0.3656213569549142
 21
1.1156250000000001
 31
0.0
  0
LINE
  5
217
100
AcDbEntity
100
AcDbLine
  8
0
 62
256
370
18
  6
ByLayer
 10
-2.3781219569549146
 20
0.890625
 30
0.0
 11
-2.3781219569549146
 21
1.1656249999999999
 31
0.0
  0
LINE
  5
218
100
AcDbEntity
100
AcDbLine
  8
0
 62
256
370
18
  6
ByLayer
 10
-0.3656213569549142
 20
0.890625
 30
0.0
 11
-0.3656213569549142
 21
1.1656249999999999
 31
0.0
  0
MTEXT
  5
219
100
AcDbEntity
100
AcDbMText
  8
0
 62
256
370
18
  6
ByLayer
 10
-1.3718716569549141
 20
1.1906250000000003
 30
0.0
 40
0.1
 41
30.0
 71
5
 72
2
  1
2\~+.01
  7
standard
 50
0.0
 73
0
 44
1.0
  0
DIMENSION
  5
21A
100
AcDbEntity
  8
0
 62
256
370
18
  6
ByLayer
100
AcDbDimension
 10
-0.6781213569549142
 20
-1.0843750000000001
 30
0.0
 11
-1.428121356954914
 21
-1.0093750000000001
 31
0.0
 70
0
 71
5
 72
0
 41
1.0
 42
0.0
  1

  3
Standard
100
AcDbAlignedDimension
 13
-2.178121356954914
 23
-0.6343750000000001
 33
0.0
 14
-0.6781213569549142
 24
-0.634375
 34
0.0
 50
0.0
100
AcDbRotatedDimension
  0
DIMENSION
  5
21B
100
AcDbEntity
  8
0
 62
256
370
18
  6
ByLayer
100
AcDbDimension
 10
-0.5781213569549136
 20
-1.0843749999999996
 30
0.0
 11
-0.6281213569549139
 21
-1.0093749999999997
 31
0.0
 70
0
 71
5
 72
0
 41
1.0
 42
0.0
  1

  3
Standard
100
AcDbAlignedDimension
 13
-0.6781213569549142
 23
-0.634375
 33
0.0
 14
-0.5781213569549136
 24
-0.4468749999999997
 34
0.0
 50
0.0
100
AcDbRotatedDimension
  0
LINE
  5
21C
100
AcDbEntity
100
AcDbLine
  8
0
 62
256
370
18
  6
ByLayer
 10
-2.178121356954914
 20
0.8656250000000001
 30
0.0
 11
-2.178121356954914
 21
-0.4473750000000001
 31
0.0
  0
LINE
  5
21D
100
AcDbEntity
100
AcDbLine
  8
0
 62
256
370
18
  6
ByLayer
 10
-2.178121356954914
 20
-0.4473750000000001
 30
0.0
 11
-2.178121356954914
 21
-0.6343750000000001
 31
0.0
  0
LINE
  5
21E
100
AcDbEntity
100
AcDbLine
  8
0
 62
256
370
18
  6
ByLayer
 10
-2.178121356954914
 20
-0.6343750000000001
 30
0.0
 11
-2.3781215569549135
 21
-0.634375
 31
0.0
  0
LINE
  5
21F
100
AcDbEntity
100
AcDbLine
  8
0
 62
256
370
18
  6
ByLayer
 10
-0.6781213569549142
 20
-0.184375
 30
0.0
 11
-0.6781213569549142
 21
-0.4468749999999996
 31
0.0
  0
LINE
  5
220
100
AcDbEntity
100
AcDbLine
  8
0
 62
7
370
18
  6
ByLayer
 10
-2.178121356954914
 20
-0.6343750000000001
 30
0.0
 11
-0.6781213569549142
 21
-0.634375
 31
0.0
  0
LINE
  5
221
100
AcDbEntity
100
AcDbLine
  8
0
 62
256
370
18
  6
ByLayer
 10
-0.6781213569549142
 20
-0.4469235753062972
 30
0.0
 11
-0.6781213569549142
 21
-0.634375
 31
0.0
  0
LINE
  5
222
100
AcDbEntity
100
AcDbLine
  8
0
 62
256
370
18
  6
ByLayer
 10
-0.3656213569549142
 20
-0.634375
 30
0.0
 11
-0.6781213569549142
 21
-0.634375
 31
0.0
  0
MTEXT
  5
223
100
AcDbEntity
100
AcDbMText
  8
Sectioning Lines
 62
256
370
25
  6
ByLayer
 10
-3.2156234426927148
 20
-0.8500000000000091
 30
0.0
 40
0.1
 41
100.0
 71
4
 72
2
  1
A\~-\~A
  7
unicode
 50
0.0
 73
0
 44
1.0
  0
MTEXT
  5
224
100
AcDbEntity
100
AcDbMText
  8
Sectioning Lines
 62
256
370
25
  6
ByLayer
 10
-2.8156234426926905
 20
-1.3
 30
0.0
 40
0.1
 41
100.0
 71
4
 72
2
  1
C
  7
unicode
 50
0.0
 73
0
 44
1.0
  0
MTEXT
  5
225
100
AcDbEntity
100
AcDbMText
  8
Sectioning Lines
 62
256
370
25
  6
ByLayer
 10
-2.8156234426926905
 20
1.6999999999999997
 30
0.0
 40
0.1
 41
100.0
 71
4
 72
2
  1
C
  7
unicode
 50
0.0
 73
0
 44
1.0
  0
LEADER
  5
226
  8
Sectioning Lines
 62
256
370
25
  6
DASHED
100
AcDbEntity
100
AcDbLeader
  3
Standard
 71
1
 72
0
 73
3
 74
0
 75
0
 40
1.0
 41
10.0
 76
3
 10
-2.6156234426926903
 20
1.7000000000000002
 10
-2.1156234426926903
 20
1.7000000000000002
 10
-2.1156234426926903
 20
1.3
  0
LEADER
  5
227
  8
Sectioning Lines
 62
256
370
25
  6
DASHED
100
AcDbEntity
100
AcDbLeader
  3
Standard
 71
1
 72
0
 73
3
 74
0
 75
0
 40
1.0
 41
10.0
 76
3
 10
-2.6156234426926903
 20
-1.3
 10
-2.1156234426926903
 20
-1.3
 10
-2.1156234426926903
 20
-1.2000000000000002
  0
LINE
  5
228
100
AcDbEntity
100
AcDbLine
  8
0
 62
7
370
18
  6
ByLayer
 10
-3.4281235340957767
 20
-1.9700000000000255
 30
0.0
 11
-2.4281235340957767
 21
-1.9700000000000255
 31
0.0
  0
LINE
  5
229
100
AcDbEntity
100
AcDbLine
  8
0
 62
7
370
18
  6
ByLayer
 10
-3.4281235340957767
 20
-2.9700000000000255
 30
0.0
 11
-2.4281235340957767
 21
-2.9700000000000255
 31
0.0
  0
LINE
  5
22A
100
AcDbEntity
100
AcDbLine
  8
0
 62
7
370
18
  6
ByLayer
 10
-3.4281235340957767
 20
-2.9700000000000255
 30
0.0
 11
-3.4281235340957767
 21
-2.7700000000000253
 31
0.0
  0
LINE
  5
22B
100
AcDbEntity
100
AcDbLine
  8
0
 62
7
370
18
  6
ByLayer
 10
-3.4281235340957767
 20
-2.7700000000000253
 30
0.0
 11
-3.4281235340957767
 21
-2.1700000000000257
 31
0.0
  0
LINE
  5
22C
100
AcDbEntity
100
AcDbLine
  8
0
 62
7
370
18
  6
ByLayer
 10
-3.4281235340957767
 20
-2.1700000000000257
 30
0.0
 11
-3.4281235340957767
 21
-1.9700000000000255
 31
0.0
  0
LINE
  5
22D
100
AcDbEntity
100
AcDbLine
  8
0
 62
7
370
18
  6
ByLayer
 10
-2.2281229340957767
 20
-1.720000000000026
 30
0.0
 11
-1.9281229340957768
 21
-1.720000000000026
 31
0.0
  0
LINE
  5
22E
100
AcDbEntity
100
AcDbLine
  8
0
 62
7
370
18
  6
ByLayer
 10
-1.9281229340957768
 20
-1.720000000000026
 30
0.0
 11
-0.4156229340957774
 21
-1.720000000000026
 31
0.0
  0
LINE
  5
22F
100
AcDbEntity
100
AcDbLine
  8
0
 62
256
370
18
  6
ByLayer
 10
-2.2281229340957767
 20
-2.2700000000000262
 30
0.0
 11
-1.928122934095776
 21
-2.2700000000000262
 31
0.0
  0
LINE
  5
230
100
AcDbEntity
100
AcDbLine
  8
0
 62
256
370
18
  6
ByLayer
 10
-1.928122934095776
 20
-2.2700000000000262
 30
0.0
 11
-1.928122934095776
 21
-2.6700000000000257
 31
0.0
  0
LINE
  5
231
100
AcDbEntity
100
AcDbLine
  8
0
 62
256
370
18
  6
ByLayer
 10
-1.928122934095776
 20
-2.6700000000000257
 30
0.0
 11
-2.2281229340957767
 21
-2.6700000000000257
 31
0.0
  0
LINE
  5
232
100
AcDbEntity
100
AcDbLine
  8
0
 62
256
370
18
  6
ByLayer
 10
-2.2281229340957767
 20
-2.070000000000026
 30
0.0
 11
-0.7281229340957766
 21
-2.070000000000026
 31
0.0
  0
LINE
  5
233
100
AcDbEntity
100
AcDbLine
  8
0
 62
256
370
18
  6
ByLayer
 10
-0.7281229340957766
 20
-2.070000000000026
 30
0.0
 11
-0.7281229340957766
 21
-2.8700000000000259
 31
0.0
  0
LINE
  5
234
100
AcDbEntity
100
AcDbLine
  8
0
 62
256
370
18
  6
ByLayer
 10
-0.7281229340957766
 20
-2.8700000000000259
 30
0.0
 11
-2.2281229340957767
 21
-2.8700000000000259
 31
0.0
  0
LINE
  5
235
100
AcDbEntity
100
AcDbLine
  8
0
 62
7
370
18
  6
ByLayer
 10
-2.4281235340957767
 20
-1.720000000000026
 30
0.0
 11
-2.4281231340957765
 21
-3.2200000000000255
 31
0.0
  0
LINE
  5
236
100
AcDbEntity
100
AcDbLine
  8
0
 62
7
370
18
  6
ByLayer
 10
-2.2281229340957767
 20
-1.7200000000000264
 30
0.0
 11
-2.4281235340957767
 21
-1.720000000000026
 31
0.0
  0
LINE
  5
237
100
AcDbEntity
100
AcDbLine
  8
0
 62
7
370
18
  6
ByLayer
 10
-2.4281229340957768
 20
-3.2200000000000255
 30
0.0
 11
-2.2281229340957758
 21
-3.2200000000000255
 31
0.0
  0
LINE
  5
238
100
AcDbEntity
100
AcDbLine
  8
0
 62
256
370
18
  6
ByLayer
 10
-2.2281229340957758
 20
-1.9700000000000262
 30
0.0
 11
-2.2281229340957758
 21
-1.9700000000000262
 31
0.0
  0
LINE
  5
239
100
AcDbEntity
100
AcDbLine
  8
0
 62
256
370
18
  6
ByLayer
 10
-2.2281229340957758
 20
-2.8700000000000259
 30
0.0
 11
-2.2281229340957758
 21
-2.6700000000000257
 31
0.0
  0
LINE
  5
23A
100
AcDbEntity
100
AcDbLine
  8
0
 62
256
370
18
  6
ByLayer
 10
-2.2281229340957758
 20
-2.6700000000000257
 30
0.0
 11
-2.2281229340957758
 21
-2.2700000000000258
 31
0.0
  0
LINE
  5
23B
100
AcDbEntity
100
AcDbLine
  8
0
 62
256
370
18
  6
ByLayer
 10
-2.2281229340957758
 20
-2.2700000000000258
 30
0.0
 11
-2.2281229340957758
 21
-2.070000000000026
 31
0.0
  0
LINE
  5
23C
100
AcDbEntity
100
AcDbLine
  8
0
 62
256
370
18
  6
ByLayer
 10
-0.4156229340957774
 20
-2.9700000000000255
 30
0.0
 11
-0.4156229340957774
 21
-3.2200000000000255
 31
0.0
  0
LINE
  5
23D
100
AcDbEntity
100
AcDbLine
  8
0
 62
256
370
18
  6
ByLayer
 10
-2.2281229340957758
 20
-3.2200000000000255
 30
0.0
 11
-0.4156229340957774
 21
-3.2200000000000255
 31
0.0
  0
LINE
  5
23E
100
AcDbEntity
100
AcDbLine
  8
0
 62
256
370
18
  6
ByLayer
 10
-0.4156229340957774
 20
-1.720000000000026
 30
0.0
 11
-0.4156229340957774
 21
-1.970000000000026
 31
0.0
  0
LINE
  5
23F
100
AcDbEntity
100
AcDbLine
  8
0
 62
256
370
18
  6
ByLayer
 10
-0.4156229340957774
 20
-1.970000000000026
 30
0.0
 11
-0.4156229340957774
 21
-2.9700000000000255
 31
0.0
  0
DIMENSION
  5
240
100
AcDbEntity
  8
0
 62
256
370
18
  6
ByLayer
100
AcDbDimension
 10
-1.6281229340957761
 20
-2.6700000000000257
 30
0.0
 11
-1.7031229340957763
 21
-2.4700000000000255
 31
0.0
 70
0
 71
5
 72
0
 41
1.0
 42
0.0
  1

  3
Standard
100
AcDbAlignedDimension
 13
-1.8281229340957763
 23
-2.2700000000000258
 33
0.0
 14
-1.8281229340957763
 24
-2.6700000000000257
 34
0.0
 50
90.0
100
AcDbRotatedDimension
  0
DIMENSION
  5
241
100
AcDbEntity
  8
0
 62
256
370
18
  6
ByLayer
100
AcDbDimension
 10
-0.2281229340957774
 20
-2.8700000000000259
 30
0.0
 11
-0.3031229340957767
 21
-2.4700000000000255
 31
0.0
 70
0
 71
5
 72
0
 41
1.0
 42
0.0
  1

  3
Standard
100
AcDbAlignedDimension
 13
-0.628122934095776
 23
-2.0700000000000256
 33
0.0
 14
-0.628122934095776
 24
-2.8700000000000259
 34
0.0
 50
90.0
100
AcDbRotatedDimension
  0
MTEXT
  5
242
100
AcDbEntity
100
AcDbMText
  8
Sectioning Lines
 62
256
370
25
  6
ByLayer
 10
-3.228123442692715
 20
-3.3856250000000587
 30
0.0
 40
0.1
 41
100.0
 71
4
 72
2
  1
B\~-\~B
  7
unicode
 50
0.0
 73
0
 44
1.0
  0
CIRCLE
  5
243
100
AcDbEntity
100
AcDbCircle
  8
0
 62
256
370
18
  6
ByLayer
 10
2.218750000000028
 20
0.1906249999999976
 30
0.0
 40
0.75
  0
LINE
  5
244
100
AcDbEntity
100
AcDbLine
  8
0
 62
256
370
18
  6
ByLayer
 10
1.4962023686321824
 20
-0.0093750000000025
 30
0.0
 11
1.8221226642769568
 21
-0.0093750000000024
 31
0.0
  0
LINE
  5
245
100
AcDbEntity
100
AcDbLine
  8
0
 62
256
370
18
  6
ByLayer
 10
1.4962023686321824
 20
0.3906249999999978
 30
0.0
 11
1.8237500000000266
 21
0.3906249999999978
 31
0.0
  0
ARC
  5
246
100
AcDbEntity
  8
0
 62
256
370
18
  6
ByLayer
100
AcDbCircle
 10
2.1962023686321852
 20
0.1906249999999974
 30
0.0
 40
0.7280109889280545
100
AcDbArc
 50
164.0546040990771814
 51
195.9453959009227617
  0
ARC
  5
247
100
AcDbEntity
  8
0
 62
256
370
18
  6
ByLayer
100
AcDbCircle
 10
2.218750000000028
 20
0.1906249999999976
 30
0.0
 40
0.7496034340513005
100
AcDbArc
 50
327.773507571945288
 51
32.2500656511654
  0
LINE
  5
248
100
AcDbEntity
100
AcDbLine
  8
0
 62
256
370
18
  6
ByLayer
 10
1.8237500000000266
 20
0.3906249999999978
 30
0.0
 11
1.8237500000000266
 21
0.5906249999999975
 31
0.0
  0
LINE
  5
249
100
AcDbEntity
100
AcDbLine
  8
0
 62
256
370
18
  6
ByLayer
 10
1.8221226642769568
 20
-0.0093750000000024
 30
0.0
 11
1.8237500000000266
 21
-0.2093750000000024
 31
0.0
  0
LINE
  5
24A
100
AcDbEntity
100
AcDbLine
  8
0
 62
256
370
18
  6
ByLayer
 10
2.6138755278961656
 20
-0.2093750000000023
 30
0.0
 11
2.8528745395728929
 21
-0.209114135753566
 31
0.0
  0
LINE
  5
24B
100
AcDbEntity
100
AcDbLine
  8
0
 62
256
370
18
  6
ByLayer
 10
2.6138755278961656
 20
-0.2093750000000023
 30
0.0
 11
1.8237500000000266
 21
-0.2093750000000024
 31
0.0
  0
LINE
  5
24C
100
AcDbEntity
100
AcDbLine
  8
0
 62
256
370
18
  6
ByLayer
 10
2.6135513591343051
 20
0.590624999999998
 30
0.0
 11
2.8527100210908714
 21
0.590624999999998
 31
0.0
  0
LINE
  5
24D
100
AcDbEntity
100
AcDbLine
  8
0
 62
256
370
18
  6
ByLayer
 10
1.8237500000000266
 20
0.5906249999999975
 30
0.0
 11
2.6135513591343051
 21
0.590624999999998
 31
0.0
  0
LINE
  5
24E
100
AcDbEntity
100
AcDbLine
  8
0
 62
256
370
18
  6
ByLayer
 10
1.8237500000000266
 20
0.3906249999999978
 30
0.0
 11
1.8221226642769568
 21
-0.0093750000000024
 31
0.0
  0
DIMENSION
  5
24F
100
AcDbEntity
  8
0
 62
256
370
18
  6
ByLayer
100
AcDbDimension
 10
2.9687500000000284
 20
-0.8093750000000028
 30
0.0
 11
2.3954363321384924
 21
-0.7343750000000029
 31
0.0
 70
0
 71
5
 72
0
 41
1.0
 42
0.0
  1

  3
Standard
100
AcDbAlignedDimension
 13
1.8221226642769568
 23
-0.0093750000000024
 33
0.0
 14
2.9687500000000284
 24
0.1906249999999976
 34
0.0
 50
0.0
100
AcDbRotatedDimension
  0
MTEXT
  5
250
100
AcDbEntity
100
AcDbMText
  8
0
 62
256
370
18
  6
ByLayer
 10
2.1138744192992891
 20
-1.500000000000016
 30
0.0
 40
0.1
 41
100.0
 71
4
 72
2
  1
C\~-\~C
  7
unicode
 50
0.0
 73
0
 44
1.0
  0
MTEXT
  5
251
100
AcDbEntity
100
AcDbMText
  8
Sectioning Lines
 62
256
370
25
  6
ByLayer
 10
1.6763744192992522
 20
-1.1000000000000001
 30
0.0
 40
0.1
 41
100.0
 71
4
 72
2
  1
B
  7
unicode
 50
0.0
 73
0
 44
1.0
  0
MTEXT
  5
252
100
AcDbEntity
100
AcDbMText
  8
Sectioning Lines
 62
256
370
25
  6
ByLayer
 10
1.0763744192992521
 20
0.8999999999999999
 30
0.0
 40
0.1
 41
100.0
 71
4
 72
2
  1
A
  7
unicode
 50
0.0
 73
0
 44
1.0
  0
MTEXT
  5
253
100
AcDbEntity
100
AcDbMText
  8
Sectioning Lines
 62
256
370
25
  6
ByLayer
 10
1.6763744192992518
 20
1.3999999999999999
 30
0.0
 40
0.1
 41
100.0
 71
4
 72
2
  1
B
  7
unicode
 50
0.0
 73
0
 44
1.0
  0
MTEXT
  5
254
100
AcDbEntity
100
AcDbMText
  8
Sectioning Lines
 62
256
370
25
  6
ByLayer
 10
3.3763744192992515
 20
0.8999999999999999
 30
0.0
 40
0.1
 41
100.0
 71
4
 72
2
  1
A
  7
unicode
 50
0.0
 73
0
 44
1.0
  0
LEADER
  5
255
  8
Sectioning Lines
 62
256
370
25
  6
DASHED
100
AcDbEntity
100
AcDbLeader
  3
Standard
 71
1
 72
0
 73
3
 74
0
 75
0
 40
1.0
 41
10.0
 76
3
 10
1.0763744192992526
 20
0.6999999999999997
 10
1.0763744192992526
 20
0.1999999999999997
 10
1.6763744192992522
 20
0.1999999999999997
  0
LEADER
  5
256
  8
Sectioning Lines
 62
256
370
25
  6
DASHED
100
AcDbEntity
100
AcDbLeader
  3
Standard
 71
1
 72
0
 73
3
 74
0
 75
0
 40
1.0
 41
10.0
 76
3
 10
3.3763744192992524
 20
0.6999999999999997
 10
3.3763744192992524
 20
0.1999999999999997
 10
2.8763744192992524
 20
0.1999999999999997
  0
LEADER
  5
257
  8
Sectioning Lines
 62
256
370
25
  6
DASHED
100
AcDbEntity
100
AcDbLeader
  3
Standard
 71
1
 72
0
 73
3
 74
0
 75
0
 40
1.0
 41
10.0
 76
3
 10
1.8763744192992524
 20
1.3999999999999999
 10
2.1763744192992522
 20
1.3999999999999999
 10
2.1763744192992522
 20
0.6999999999999997
  0
LEADER
  5
258
  8
Sectioning Lines
 62
256
370
25
  6
DASHED
100
AcDbEntity
100
AcDbLeader
  3
Standard
 71
1
 72
0
 73
3
 74
0
 75
0
 40
1.0
 41
10.0
 76
3
 10
1.8763744192992529
 20
-1.1000000000000001
 10
2.1763744192992527
 20
-1.1000000000000001
 10
2.1763744192992527
 20
-1.0
  0
MTEXT
  5
259
100
AcDbEntity
100
AcDbMText
  8
Sectioning Lines
 62
256
370
-1
  6
ByLayer
 10
-4.0
 20
3.0
 30
0.0
 40
0.1
 41
100.0
 71
4
 72
2
  1
NOTES
  7
unicode
 50
0.0
 73
0
 44
1.0
  0
MTEXT
  5
25A
100
AcDbEntity
100
AcDbMText
  8
Sectioning Lines
 62
256
370
-1
  6
ByLayer
 10
-4.0
 20
2.8000000000000003
 30
0.0
 40
0.1
 41
100.0
 71
4
 72
2
  1
Isometric\~View\~On\~Sheet\~2
  7
unicode
 50
0.0
 73
0
 44
1.0
  0
MTEXT
  5
25B
100
AcDbEntity
100
AcDbMText
  8
Sectioning Lines
 62
256
370
-1
  6
ByLayer
 10
5.1000000000000005
 20
-3.6000000000000001
 30
0.0
 40
0.075
 41
100.0
 71
4
 72
2
  1
2
  7
unicode
 50
0.0
 73
0
 44
1.0
  0
DIMENSION
  5
25C
100
AcDbEntity
  8
Sectioning Lines
 62
256
370
-1
  6
ByLayer
100
AcDbDimension
 10
-0.2000000000000001
 20
-0.1843750000000003
 30
0.0
 11
-0.2750000000000001
 21
0.1656249999999999
 31
0.0
 70
0
 71
5
 72
1
 41
1.0
 42
0.0
  1

  3
Standard
100
AcDbAlignedDimension
 13
-0.5781213569549141
 23
0.515625
 33
0.0
 14
-0.5781213569549141
 24
-0.1843750000000002
 34
0.0
 50
90.0
100
AcDbRotatedDimension
  0
DIMENSION
  5
25D
100
AcDbEntity
  8
0
 62
256
370
18
  6
ByLayer
100
AcDbDimension
 10
-0.0173501326259946
 20
-0.446875
 30
0.0
 11
-0.0923501326259948
 21
0.1156250000000003
 31
0.0
 70
0
 71
5
 72
0
 41
1.0
 42
0.0
  1

  3
Standard
100
AcDbAlignedDimension
 13
-0.3048501326259943
 23
0.6781250000000005
 33
0.0
 14
-0.3048501326259947
 24
-0.446875
 34
0.0
 50
90.0
100
AcDbRotatedDimension
  0
ENDSEC
  0
SECTION
  2
OBJECTS
  0
DICTIONARY
  5
C
100
AcDbDictionary
280
0
281
1
  3
ACAD_GROUP
350
D
  3
ACAD_LAYOUT
350
1A
  3
ACAD_MLINESTYLE
350
17
  3
ACAD_PLOTSETTINGS
350
19
  3
ACAD_PLOTSTYLENAME
350
E
  3
AcDbVariableDictionary
350
25E
  0
DICTIONARY
  5
D
100
AcDbDictionary
280
0
281
1
  0
ACDBDICTIONARYWDFLT
  5
E
100
AcDbDictionary
281
1
  3
Normal
350
F
100
AcDbDictionaryWithDefault
340
F
  0
ACDBPLACEHOLDER
  5
F
  0
DICTIONARY
  5
17
100
AcDbDictionary
280
0
281
1
  3
Standard
350
18
  0
MLINESTYLE
  5
18
100
AcDbMlineStyle
  2
STANDARD
 70
0
  3

 62
256
 51
90.0
 52
90.0
 71
2
 49
0.5
 62
256
  6
BYLAYER
 49
-0.5
 62
256
  6
BYLAYER
  0
DICTIONARY
  5
19
100
AcDbDictionary
280
0
281
1
  0
DICTIONARY
  5
1A
100
AcDbDictionary
281
1
  3
Layout1
350
1E
  3
Layout2
350
26
  3
Model
350
22
  0
LAYOUT
  5
1E
100
AcDbPlotSettings
  1

  2
C:\Program Files\AutoCAD 2002\plotters\DWF ePlot (optimized for plotting).pc3
  4

  6

 40
0.0
 41
0.0
 42
0.0
 43
0.0
 44
0.0
 45
0.0
 46
0.0
 47
0.0
 48
0.0
 49
0.0
140
0.0
141
0.0
142
1.0
143
1.0
 70
688
 72
0
 73
0
 74
5
  7

 75
16
147
1.0
148
0.0
149
0.0
100
AcDbLayout
  1
Layout1
 70
1
 71
1
 10
0.0
 20
0.0
 11
420.0
 21
297.0
 12
0.0
 22
0.0
 32
0.0
 14
100000000000000000000.0
 24
100000000000000000000.0
 34
100000000000000000000.0
 15
-100000000000000000000.0
 25
-100000000000000000000.0
 35
-100000000000000000000.0
146
0.0
 13
0.0
 23
0.0
 33
0.0
 16
1.0
 26
0.0
 36
0.0
 17
0.0
 27
1.0
 37
0.0
 76
0
330
1B
  0
LAYOUT
  5
22
100
AcDbPlotSettings
  1

  2
C:\Program Files\AutoCAD 2002\plotters\DWF ePlot (optimized for plotting).pc3
  4

  6

 40
0.0
 41
0.0
 42
0.0
 43
0.0
 44
0.0
 45
0.0
 46
0.0
 47
0.0
 48
0.0
 49
0.0
140
0.0
141
0.0
142
1.0
143
1.0
 70
1712
 72
0
 73
0
 74
0
  7

 75
0
147
1.0
148
0.0
149
0.0
100
AcDbLayout
  1
Model
 70
1
 71
0
 10
0.0
 20
0.0
 11
12.0
 21
9.0
 12
0.0
 22
0.0
 32
0.0
 14
0.0
 24
0.0
 34
0.0
 15
0.0
 25
0.0
 35
0.0
146
0.0
 13
0.0
 23
0.0
 33
0.0
 16
1.0
 26
0.0
 36
0.0
 17
0.0
 27
1.0
 37
0.0
 76
0
330
1F
  0
LAYOUT
  5
26
100
AcDbPlotSettings
  1

  2
C:\Program Files\AutoCAD 2002\plotters\DWF ePlot (optimized for plotting).pc3
  4

  6

 40
0.0
 41
0.0
 42
0.0
 43
0.0
 44
0.0
 45
0.0
 46
0.0
 47
0.0
 48
0.0
 49
0.0
140
0.0
141
0.0
142
1.0
143
1.0
 70
688
 72
0
 73
0
 74
5
  7

 75
16
147
1.0
148
0.0
149
0.0
100
AcDbLayout
  1
Layout2
 70
1
 71
2
 10
0.0
 20
0.0
 11
12.0
 21
9.0
 12
0.0
 22
0.0
 32
0.0
 14
0.0
 24
0.0
 34
0.0
 15
0.0
 25
0.0
 35
0.0
146
0.0
 13
0.0
 23
0.0
 33
0.0
 16
1.0
 26
0.0
 36
0.0
 17
0.0
 27
1.0
 37
0.0
 76
0
330
23
  0
DICTIONARY
  5
25E
100
AcDbDictionary
281
1
  3
DIMASSOC
350
260
  3
HIDETEXT
350
25F
  0
DICTIONARYVAR
  5
25F
100
DictionaryVariables
280
0
  1
2
  0
DICTIONARYVAR
  5
260
100
DictionaryVariables
280
0
  1
1
  0
ENDSEC
  0
EOF
