999
dxflib 2.0.4.8
  0
SECTION
  2
HEADER
  9
$ACADVER
  1
AC1015
  9
$HANDSEED
  5
FFFF
  9
$DIMADEC
 70
2
  9
$GRIDUNIT
 10
0.0
 20
0.0
  9
$DIMASZ
 40
0.3
  9
$DIMGAP
 40
0.0625
  9
$LUNITS
 70
2
  9
$AUPREC
 70
2
  9
$SPLINESEGS
 70
8
  9
$INSUNITS
 70
1
  9
$DIMEXO
 40
0.0625
  9
$DIMLUNIT
 70
2
  9
$GRIDMODE
 70
1
  9
$DIMTXT
 40
0.3
  9
$LUPREC
 70
4
  9
$DIMSTYLE
  2
Standard
  9
$PSVPSCALE
 40
0.8
  9
$PLIMMIN
 10
0.0
 20
0.0
  9
$PLIMMAX
 10
11.6929133858267722
 20
8.2677165354330722
  9
$DIMEXE
 40
0.125
  9
$PINSBASE
 10
2.7446933278077084
 20
3.864632977621218
 30
0.0
  9
$DIMAUNIT
 70
0
  9
$AUNITS
 70
0
  0
ENDSEC
  0
SECTION
  2
TABLES
  0
TABLE
  2
VPORT
  5
8
100
AcDbSymbolTable
 70
1
  0
VPORT
  5
30
100
AcDbSymbolTableRecord
100
AcDbViewportTableRecord
  2
*Active
 70
0
 10
0.0
 20
0.0
 11
1.0
 21
1.0
 12
286.3055555555554861
 22
148.5
 13
0.0
 23
0.0
 14
10.0
 24
10.0
 15
10.0
 25
10.0
 16
0.0
 26
0.0
 36
1.0
 17
0.0
 27
0.0
 37
0.0
 40
297.0
 41
1.92798353909465
 42
50.0
 43
0.0
 44
0.0
 50
0.0
 51
0.0
 71
0
 72
100
 73
1
 74
3
 75
1
 76
1
 77
0
 78
0
281
0
 65
1
110
0.0
120
0.0
130
0.0
111
1.0
121
0.0
131
0.0
112
0.0
122
1.0
132
0.0
 79
0
146
0.0
  0
ENDTAB
  0
TABLE
  2
LTYPE
  5
5
100
AcDbSymbolTable
 70
21
  0
LTYPE
  5
14
100
AcDbSymbolTableRecord
100
AcDbLinetypeTableRecord
  2
ByBlock
 70
0
  3

 72
65
 73
0
 40
0.0
  0
LTYPE
  5
15
100
AcDbSymbolTableRecord
100
AcDbLinetypeTableRecord
  2
ByLayer
 70
0
  3

 72
65
 73
0
 40
0.0
  0
LTYPE
  5
16
100
AcDbSymbolTableRecord
100
AcDbLinetypeTableRecord
  2
CONTINUOUS
 70
0
  3
Solid line
 72
65
 73
0
 40
0.0
  0
LTYPE
  5
31
100
AcDbSymbolTableRecord
100
AcDbLinetypeTableRecord
  2
DOT
 70
0
  3
Dot . . . . . . . . . . . . . . . . . . . . . .
 72
65
 73
2
 40
6.3499999999999996
 49
0.0
 74
0
 49
-6.3499999999999996
 74
0
  0
LTYPE
  5
32
100
AcDbSymbolTableRecord
100
AcDbLinetypeTableRecord
  2
DOT2
 70
0
  3
Dot (.5x) .....................................
 72
65
 73
2
 40
3.1749999999999998
 49
0.0
 74
0
 49
-3.1749999999999998
 74
0
  0
LTYPE
  5
33
100
AcDbSymbolTableRecord
100
AcDbLinetypeTableRecord
  2
DOTX2
 70
0
  3
Dot (2x) .  .  .  .  .  .  .  .  .  .  .  .  .
 72
65
 73
2
 40
12.6999999999999993
 49
0.0
 74
0
 49
-12.6999999999999993
 74
0
  0
LTYPE
  5
34
100
AcDbSymbolTableRecord
100
AcDbLinetypeTableRecord
  2
DASHED
 70
0
  3
Dashed __ __ __ __ __ __ __ __ __ __ __ __ __ _
 72
65
 73
2
 40
19.0500000000000007
 49
12.6999999999999993
 74
0
 49
-6.3499999999999996
 74
0
  0
LTYPE
  5
35
100
AcDbSymbolTableRecord
100
AcDbLinetypeTableRecord
  2
DASHED2
 70
0
  3
Dashed (.5x) _ _ _ _ _ _ _ _ _ _ _ _ _ _ _ _ _
 72
65
 73
2
 40
9.5250000000000004
 49
6.3499999999999996
 74
0
 49
-3.1749999999999998
 74
0
  0
LTYPE
  5
36
100
AcDbSymbolTableRecord
100
AcDbLinetypeTableRecord
  2
DASHEDX2
 70
0
  3
Dashed (2x) ____  ____  ____  ____  ____  ___
 72
65
 73
2
 40
38.1000000000000014
 49
25.3999999999999986
 74
0
 49
-12.6999999999999993
 74
0
  0
LTYPE
  5
37
100
AcDbSymbolTableRecord
100
AcDbLinetypeTableRecord
  2
DASHDOT
 70
0
  3
Dash dot __ . __ . __ . __ . __ . __ . __ . __
 72
65
 73
4
 40
25.3999999999999986
 49
12.6999999999999993
 74
0
 49
-6.3499999999999996
 74
0
 49
0.0
 74
0
 49
-6.3499999999999996
 74
0
  0
LTYPE
  5
38
100
AcDbSymbolTableRecord
100
AcDbLinetypeTableRecord
  2
DASHDOT2
 70
0
  3
Dash dot (.5x) _._._._._._._._._._._._._._._.
 72
65
 73
4
 40
12.6999999999999993
 49
6.3499999999999996
 74
0
 49
-3.1749999999999998
 74
0
 49
0.0
 74
0
 49
-3.1749999999999998
 74
0
  0
LTYPE
  5
39
100
AcDbSymbolTableRecord
100
AcDbLinetypeTableRecord
  2
DASHDOTX2
 70
0
  3
Dash dot (2x) ____  .  ____  .  ____  .  ___
 72
65
 73
4
 40
50.7999999999999972
 49
25.3999999999999986
 74
0
 49
-12.6999999999999993
 74
0
 49
0.0
 74
0
 49
-12.6999999999999993
 74
0
  0
LTYPE
  5
3A
100
AcDbSymbolTableRecord
100
AcDbLinetypeTableRecord
  2
DIVIDE
 70
0
  3
Divide ____ . . ____ . . ____ . . ____ . . ____
 72
65
 73
6
 40
31.75
 49
12.6999999999999993
 74
0
 49
-6.3499999999999996
 74
0
 49
0.0
 74
0
 49
-6.3499999999999996
 74
0
 49
0.0
 74
0
 49
-6.3499999999999996
 74
0
  0
LTYPE
  5
3B
100
AcDbSymbolTableRecord
100
AcDbLinetypeTableRecord
  2
DIVIDE2
 70
0
  3
Divide (.5x) __..__..__..__..__..__..__..__.._
 72
65
 73
6
 40
15.875
 49
6.3499999999999996
 74
0
 49
-3.1749999999999998
 74
0
 49
0.0
 74
0
 49
-3.1749999999999998
 74
0
 49
0.0
 74
0
 49
-3.1749999999999998
 74
0
  0
LTYPE
  5
3C
100
AcDbSymbolTableRecord
100
AcDbLinetypeTableRecord
  2
DIVIDEX2
 70
0
  3
Divide (2x) ________  .  .  ________  .  .  _
 72
65
 73
6
 40
63.5
 49
25.3999999999999986
 74
0
 49
-12.6999999999999993
 74
0
 49
0.0
 74
0
 49
-12.6999999999999993
 74
0
 49
0.0
 74
0
 49
-12.6999999999999993
 74
0
  0
LTYPE
  5
3D
100
AcDbSymbolTableRecord
100
AcDbLinetypeTableRecord
  2
CENTER
 70
0
  3
Center ____ _ ____ _ ____ _ ____ _ ____ _ ____
 72
65
 73
4
 40
50.7999999999999972
 49
31.75
 74
0
 49
-6.3499999999999996
 74
0
 49
6.3499999999999996
 74
0
 49
-6.3499999999999996
 74
0
  0
LTYPE
  5
3E
100
AcDbSymbolTableRecord
100
AcDbLinetypeTableRecord
  2
CENTER2
 70
0
  3
Center (.5x) ___ _ ___ _ ___ _ ___ _ ___ _ ___
 72
65
 73
4
 40
28.5749999999999993
 49
19.0500000000000007
 74
0
 49
-3.1749999999999998
 74
0
 49
3.1749999999999998
 74
0
 49
-3.1749999999999998
 74
0
  0
LTYPE
  5
3F
100
AcDbSymbolTableRecord
100
AcDbLinetypeTableRecord
  2
CENTERX2
 70
0
  3
Center (2x) ________  __  ________  __  _____
 72
65
 73
4
 40
101.5999999999999943
 49
63.5
 74
0
 49
-12.6999999999999993
 74
0
 49
12.6999999999999993
 74
0
 49
-12.6999999999999993
 74
0
  0
LTYPE
  5
40
100
AcDbSymbolTableRecord
100
AcDbLinetypeTableRecord
  2
BORDER
 70
0
  3
Border __ __ . __ __ . __ __ . __ __ . __ __ .
 72
65
 73
6
 40
44.4500000000000028
 49
12.6999999999999993
 74
0
 49
-6.3499999999999996
 74
0
 49
12.6999999999999993
 74
0
 49
-6.3499999999999996
 74
0
 49
0.0
 74
0
 49
-6.3499999999999996
 74
0
  0
LTYPE
  5
41
100
AcDbSymbolTableRecord
100
AcDbLinetypeTableRecord
  2
BORDER2
 70
0
  3
Border (.5x) __.__.__.__.__.__.__.__.__.__.__.
 72
65
 73
6
 40
22.2250000000000014
 49
6.3499999999999996
 74
0
 49
-3.1749999999999998
 74
0
 49
6.3499999999999996
 74
0
 49
-3.1749999999999998
 74
0
 49
0.0
 74
0
 49
-3.1749999999999998
 74
0
  0
LTYPE
  5
42
100
AcDbSymbolTableRecord
100
AcDbLinetypeTableRecord
  2
BORDERX2
 70
0
  3
Border (2x) ____  ____  .  ____  ____  .  ___
 72
65
 73
6
 40
88.9000000000000057
 49
25.3999999999999986
 74
0
 49
-12.6999999999999993
 74
0
 49
25.3999999999999986
 74
0
 49
-12.6999999999999993
 74
0
 49
0.0
 74
0
 49
-12.6999999999999993
 74
0
  0
ENDTAB
  0
TABLE
  2
LAYER
  5
2
100
AcDbSymbolTable
 70
4
  0
LAYER
  5
10
100
AcDbSymbolTableRecord
100
AcDbLayerTableRecord
  2
0
 70
0
 62
7
  6
CONTINUOUS
370
0
390
F
  0
LAYER
  5
43
100
AcDbSymbolTableRecord
100
AcDbLayerTableRecord
  2
Servo_Brackets
 70
0
 62
7
  6
CONTINUOUS
370
18
390
F
  0
LAYER
  5
44
100
AcDbSymbolTableRecord
100
AcDbLayerTableRecord
  2
Servos
 70
1
 62
7
  6
CONTINUOUS
370
0
390
F
  0
LAYER
  5
45
100
AcDbSymbolTableRecord
100
AcDbLayerTableRecord
  2
Dimensions
 70
0
 62
7
  6
CONTINUOUS
370
18
390
F
  0
ENDTAB
  0
TABLE
  2
STYLE
  5
3
100
AcDbSymbolTable
 70
1
  0
STYLE
  5
11
100
AcDbSymbolTableRecord
100
AcDbTextStyleTableRecord
  2
Standard
 70
0
 40
0.0
 41
0.75
 50
0.0
 71
0
 42
2.5
  3
txt
  4

  0
ENDTAB
  0
TABLE
  2
VIEW
  5
6
100
AcDbSymbolTable
 70
0
  0
ENDTAB
  0
TABLE
  2
UCS
  5
7
100
AcDbSymbolTable
 70
0
  0
ENDTAB
  0
TABLE
  2
APPID
  5
9
100
AcDbSymbolTable
 70
1
  0
APPID
  5
12
100
AcDbSymbolTableRecord
100
AcDbRegAppTableRecord
  2
ACAD
 70
0
  0
ENDTAB
  0
TABLE
  2
DIMSTYLE
  5
A
100
AcDbSymbolTable
 70
1
100
AcDbDimStyleTable
 71
0
  0
DIMSTYLE
105
27
100
AcDbSymbolTableRecord
100
AcDbDimStyleTableRecord
  2
Standard
 41
0.3
 42
0.0625
 43
3.75
 44
0.125
 70
0
 73
0
 74
0
 77
1
 78
8
140
0.3
141
2.5
143
0.03937007874016
147
0.0625
171
3
172
1
271
2
272
2
274
3
278
44
283
0
284
8
340
11
  0
ENDTAB
  0
TABLE
  2
BLOCK_RECORD
  5
1
100
AcDbSymbolTable
 70
1
  0
BLOCK_RECORD
  5
1F
100
AcDbSymbolTableRecord
100
AcDbBlockTableRecord
  2
*Model_Space
340
22
  0
BLOCK_RECORD
  5
1B
100
AcDbSymbolTableRecord
100
AcDbBlockTableRecord
  2
*Paper_Space
340
1E
  0
BLOCK_RECORD
  5
23
100
AcDbSymbolTableRecord
100
AcDbBlockTableRecord
  2
*Paper_Space0
340
26
  0
BLOCK_RECORD
  5
46
100
AcDbSymbolTableRecord
100
AcDbBlockTableRecord
  2
AX_12_Servo
340
0
  0
BLOCK_RECORD
  5
47
100
AcDbSymbolTableRecord
100
AcDbBlockTableRecord
  2
AX_12_Servo_Side-0
340
0
  0
BLOCK_RECORD
  5
48
100
AcDbSymbolTableRecord
100
AcDbBlockTableRecord
  2
AX_12_Servo_Side-1
340
0
  0
BLOCK_RECORD
  5
49
100
AcDbSymbolTableRecord
100
AcDbBlockTableRecord
  2
AX_12_Servo_Side-2
340
0
  0
BLOCK_RECORD
  5
4A
100
AcDbSymbolTableRecord
100
AcDbBlockTableRecord
  2
AX_12_Servo_Side
340
0
  0
BLOCK_RECORD
  5
4B
100
AcDbSymbolTableRecord
100
AcDbBlockTableRecord
  2
AX_12_Servo_Side-3
340
0
  0
BLOCK_RECORD
  5
4C
100
AcDbSymbolTableRecord
100
AcDbBlockTableRecord
  2
AX_12_Servo_Front
340
0
  0
BLOCK_RECORD
  5
4D
100
AcDbSymbolTableRecord
100
AcDbBlockTableRecord
  2
AX_12_Servo_Front-0
340
0
  0
BLOCK_RECORD
  5
4E
100
AcDbSymbolTableRecord
100
AcDbBlockTableRecord
  2
Servo_Bracket_Top
340
0
  0
BLOCK_RECORD
  5
4F
100
AcDbSymbolTableRecord
100
AcDbBlockTableRecord
  2
Servo_Bracket_Front
340
0
  0
BLOCK_RECORD
  5
50
100
AcDbSymbolTableRecord
100
AcDbBlockTableRecord
  2
Servo_Bracket_Side
340
0
  0
BLOCK_RECORD
  5
51
100
AcDbSymbolTableRecord
100
AcDbBlockTableRecord
  2
Top
340
0
  0
BLOCK_RECORD
  5
52
100
AcDbSymbolTableRecord
100
AcDbBlockTableRecord
  2
Side
340
0
  0
BLOCK_RECORD
  5
53
100
AcDbSymbolTableRecord
100
AcDbBlockTableRecord
  2
Front
340
0
  0
ENDTAB
  0
ENDSEC
  0
SECTION
  2
BLOCKS
  0
BLOCK
  5
20
100
AcDbEntity
  8
0
100
AcDbBlockBegin
  2
*Model_Space
 70
0
 10
0.0
 20
0.0
 30
0.0
  3
*Model_Space
  1

  0
ENDBLK
  5
21
100
AcDbEntity
  8
0
100
AcDbBlockEnd
  0
BLOCK
  5
1C
100
AcDbEntity
 67
1
  8
0
100
AcDbBlockBegin
  2
*Paper_Space
 70
0
 10
0.0
 20
0.0
 30
0.0
  3
*Paper_Space
  1

  0
ENDBLK
  5
1D
100
AcDbEntity
 67
1
  8
0
100
AcDbBlockEnd
  0
BLOCK
  5
24
100
AcDbEntity
  8
0
100
AcDbBlockBegin
  2
*Paper_Space0
 70
0
 10
0.0
 20
0.0
 30
0.0
  3
*Paper_Space0
  1

  0
ENDBLK
  5
25
100
AcDbEntity
  8
0
100
AcDbBlockEnd
  0
BLOCK
  5
54
100
AcDbEntity
  8
0
100
AcDbBlockBegin
  2
AX_12_Servo
 70
0
 10
0.0
 20
0.0
 30
0.0
  3
AX_12_Servo
  1

  0
LINE
  5
55
100
AcDbEntity
100
AcDbLine
  8
0
 62
256
370
-1
  6
ByLayer
 10
0.0
 20
6.0
 30
0.0
 11
-3.0
 21
6.0
 31
0.0
  0
LINE
  5
56
100
AcDbEntity
100
AcDbLine
  8
0
 62
256
370
-1
  6
ByLayer
 10
-3.0
 20
6.0
 30
0.0
 11
-3.0
 21
26.0
 31
0.0
  0
LINE
  5
57
100
AcDbEntity
100
AcDbLine
  8
0
 62
256
370
-1
  6
ByLayer
 10
-3.0
 20
26.0
 30
0.0
 11
0.0
 21
26.0
 31
0.0
  0
LINE
  5
58
100
AcDbEntity
100
AcDbLine
  8
0
 62
256
370
-1
  6
ByLayer
 10
0.0
 20
50.0
 30
0.0
 11
-5.0
 21
50.0
 31
0.0
  0
LINE
  5
59
100
AcDbEntity
100
AcDbLine
  8
0
 62
256
370
-1
  6
ByLayer
 10
-5.0
 20
50.0
 30
0.0
 11
-5.0
 21
26.0
 31
0.0
  0
LINE
  5
5A
100
AcDbEntity
100
AcDbLine
  8
0
 62
256
370
-1
  6
ByLayer
 10
32.0
 20
14.0
 30
0.0
 11
35.0
 21
11.0
 31
0.0
  0
LINE
  5
5B
100
AcDbEntity
100
AcDbLine
  8
0
 62
256
370
-1
  6
ByLayer
 10
35.0
 20
11.0
 30
0.0
 11
35.0
 21
3.0
 31
0.0
  0
LINE
  5
5C
100
AcDbEntity
100
AcDbLine
  8
0
 62
256
370
-1
  6
ByLayer
 10
35.0
 20
3.0
 30
0.0
 11
32.0
 21
3.0
 31
0.0
  0
ARC
  5
5D
100
AcDbEntity
  8
0
 62
256
370
-1
  6
ByLayer
100
AcDbCircle
 10
0.3
 20
49.7990610351598306
 30
0.0
 40
0.3
100
AcDbArc
 50
89.8209512718610341
 51
180.0
  0
LINE
  5
5E
100
AcDbEntity
100
AcDbLine
  8
0
 62
256
370
-1
  6
ByLayer
 10
0.3009374954223967
 20
50.0990595703268085
 30
0.0
 11
31.7009374954223979
 21
50.0009345703268053
 31
0.0
  0
ARC
  5
5F
100
AcDbEntity
  8
0
 62
256
370
-1
  6
ByLayer
100
AcDbCircle
 10
31.7000000000000028
 20
49.7009360351598275
 30
0.0
 40
0.3
100
AcDbArc
 50
0.0
 51
89.8209512718613468
  0
LINE
  5
60
100
AcDbEntity
100
AcDbLine
  8
0
 62
256
370
-1
  6
ByLayer
 10
0.0
 20
0.3
 30
0.0
 11
0.0
 21
49.7990610351598235
 31
0.0
  0
ARC
  5
61
100
AcDbEntity
  8
0
 62
256
370
-1
  6
ByLayer
100
AcDbCircle
 10
0.3000000000000007
 20
0.3
 30
0.0
 40
0.3
100
AcDbArc
 50
180.0
 51
270.0
  0
LINE
  5
62
100
AcDbEntity
100
AcDbLine
  8
0
 62
256
370
-1
  6
ByLayer
 10
32.0
 20
49.7009360351598275
 30
0.0
 11
32.0
 21
0.3000000000000043
 31
0.0
  0
LINE
  5
63
100
AcDbEntity
100
AcDbLine
  8
0
 62
256
370
-1
  6
ByLayer
 10
31.6999999999999993
 20
0.0
 30
0.0
 11
0.3000000000000007
 21
0.0
 31
0.0
  0
ARC
  5
64
100
AcDbEntity
  8
0
 62
256
370
-1
  6
ByLayer
100
AcDbCircle
 10
31.6999999999999993
 20
0.3000000000000043
 30
0.0
 40
0.3
100
AcDbArc
 50
270.0
 51
0.0
  0
LINE
  5
65
100
AcDbEntity
100
AcDbLine
  8
0
 62
256
370
-1
  6
ByLayer
 10
-5.0
 20
26.0
 30
0.0
 11
-3.0
 21
26.0
 31
0.0
  0
ENDBLK
  5
66
100
AcDbEntity
  8
0
100
AcDbBlockEnd
  0
BLOCK
  5
67
100
AcDbEntity
  8
0
100
AcDbBlockBegin
  2
AX_12_Servo_Side-0
 70
0
 10
0.0
 20
0.0
 30
0.0
  3
AX_12_Servo_Side-0
  1

  0
INSERT
  5
68
100
AcDbEntity
100
AcDbBlockReference
  8
0
 62
256
370
-1
  6
ByLayer
  2
AX_12_Servo
 10
0.0
 20
0.0
 30
0.0
  0
ENDBLK
  5
69
100
AcDbEntity
  8
0
100
AcDbBlockEnd
  0
BLOCK
  5
6A
100
AcDbEntity
  8
0
100
AcDbBlockBegin
  2
AX_12_Servo_Side-1
 70
0
 10
0.0
 20
0.0
 30
0.0
  3
AX_12_Servo_Side-1
  1

  0
INSERT
  5
6B
100
AcDbEntity
100
AcDbBlockReference
  8
0
 62
256
370
-1
  6
ByLayer
  2
AX_12_Servo
 10
0.0
 20
0.0
 30
0.0
 41
0.0393700787401575
 42
0.0393700787401575
 43
1.0
  0
ENDBLK
  5
6C
100
AcDbEntity
  8
0
100
AcDbBlockEnd
  0
BLOCK
  5
6D
100
AcDbEntity
  8
0
100
AcDbBlockBegin
  2
AX_12_Servo_Side-2
 70
0
 10
0.0
 20
0.0
 30
0.0
  3
AX_12_Servo_Side-2
  1

  0
INSERT
  5
6E
100
AcDbEntity
100
AcDbBlockReference
  8
0
 62
256
370
-1
  6
ByLayer
  2
AX_12_Servo
 10
0.0
 20
0.0
 30
0.0
 41
0.0393700787401575
 42
0.0393700787401575
 43
1.0
  0
ENDBLK
  5
6F
100
AcDbEntity
  8
0
100
AcDbBlockEnd
  0
BLOCK
  5
70
100
AcDbEntity
  8
0
100
AcDbBlockBegin
  2
AX_12_Servo_Side
 70
0
 10
0.0
 20
0.0
 30
0.0
  3
AX_12_Servo_Side
  1

  0
LINE
  5
71
100
AcDbEntity
100
AcDbLine
  8
0
 62
5
370
-1
  6
ByLayer
 10
0.0000000000000004
 20
6.0
 30
0.0
 11
-3.0
 21
6.0
 31
0.0
  0
LINE
  5
72
100
AcDbEntity
100
AcDbLine
  8
0
 62
5
370
-1
  6
ByLayer
 10
-3.0
 20
6.0
 30
0.0
 11
-3.0000000000000018
 21
26.0
 31
0.0
  0
LINE
  5
73
100
AcDbEntity
100
AcDbLine
  8
0
 62
5
370
-1
  6
ByLayer
 10
-3.0000000000000018
 20
26.0
 30
0.0
 11
0.0000000000000016
 21
26.0
 31
0.0
  0
LINE
  5
74
100
AcDbEntity
100
AcDbLine
  8
0
 62
5
370
-1
  6
ByLayer
 10
0.0000000000000031
 20
50.0
 30
0.0
 11
-4.9999999999999991
 21
50.0
 31
0.0
  0
LINE
  5
75
100
AcDbEntity
100
AcDbLine
  8
0
 62
5
370
-1
  6
ByLayer
 10
-4.9999999999999991
 20
50.0
 30
0.0
 11
-5.0000000000000009
 21
26.0
 31
0.0
  0
LINE
  5
76
100
AcDbEntity
100
AcDbLine
  8
0
 62
5
370
-1
  6
ByLayer
 10
32.0
 20
13.9999999999999947
 30
0.0
 11
35.0
 21
10.9999999999999911
 31
0.0
  0
LINE
  5
77
100
AcDbEntity
100
AcDbLine
  8
0
 62
5
370
-1
  6
ByLayer
 10
35.0
 20
10.9999999999999911
 30
0.0
 11
35.0
 21
3.0000000000000053
 31
0.0
  0
LINE
  5
78
100
AcDbEntity
100
AcDbLine
  8
0
 62
5
370
-1
  6
ByLayer
 10
35.0
 20
3.0000000000000053
 30
0.0
 11
32.0
 21
2.9999999999999734
 31
0.0
  0
ARC
  5
79
100
AcDbEntity
  8
0
 62
5
370
-1
  6
ByLayer
100
AcDbCircle
 10
0.2999999999999997
 20
49.7990610351598306
 30
0.0
 40
0.3
100
AcDbArc
 50
89.8209512718610341
 51
180.0
  0
LINE
  5
7A
100
AcDbEntity
100
AcDbLine
  8
0
 62
5
370
-1
  6
ByLayer
 10
0.3009374954223984
 20
50.0990595703268085
 30
0.0
 11
31.7009374954223908
 21
50.0009345703268124
 31
0.0
  0
ARC
  5
7B
100
AcDbEntity
  8
0
 62
5
370
-1
  6
ByLayer
100
AcDbCircle
 10
31.7000000000000028
 20
49.7009360351598346
 30
0.0
 40
0.3
100
AcDbArc
 50
0.0
 51
89.8209512718613468
  0
LINE
  5
7C
100
AcDbEntity
100
AcDbLine
  8
0
 62
5
370
-1
  6
ByLayer
 10
0.0
 20
0.3
 30
0.0
 11
0.000000000000003
 21
49.7990610351598235
 31
0.0
  0
ARC
  5
7D
100
AcDbEntity
  8
0
 62
5
370
-1
  6
ByLayer
100
AcDbCircle
 10
0.3000000000000007
 20
0.3
 30
0.0
 40
0.3
100
AcDbArc
 50
180.0
 51
270.0
  0
LINE
  5
7E
100
AcDbEntity
100
AcDbLine
  8
0
 62
5
370
-1
  6
ByLayer
 10
31.9999999999999964
 20
49.7009360351598275
 30
0.0
 11
32.0
 21
0.2999999999996515
 31
0.0
  0
LINE
  5
7F
100
AcDbEntity
100
AcDbLine
  8
0
 62
5
370
-1
  6
ByLayer
 10
31.6999999999999993
 20
0.0
 30
0.0
 11
0.3000000000000007
 21
0.0
 31
0.0
  0
ARC
  5
80
100
AcDbEntity
  8
0
 62
5
370
-1
  6
ByLayer
100
AcDbCircle
 10
31.6999999999999993
 20
0.3000000000001813
 30
0.0
 40
0.3
100
AcDbArc
 50
270.0
 51
0.0
  0
LINE
  5
81
100
AcDbEntity
100
AcDbLine
  8
0
 62
5
370
-1
  6
ByLayer
 10
-5.0000000000000009
 20
26.0
 30
0.0
 11
-3.0000000000000018
 21
26.0
 31
0.0
  0
ENDBLK
  5
82
100
AcDbEntity
  8
0
100
AcDbBlockEnd
  0
BLOCK
  5
83
100
AcDbEntity
  8
0
100
AcDbBlockBegin
  2
AX_12_Servo_Side-3
 70
0
 10
0.0
 20
0.0
 30
0.0
  3
AX_12_Servo_Side-3
  1

  0
INSERT
  5
84
100
AcDbEntity
100
AcDbBlockReference
  8
0
 62
256
370
-1
  6
ByLayer
  2
AX_12_Servo_Side
 10
0.0
 20
0.0
 30
0.0
 41
0.0393700787401575
 42
0.0393700787401575
 43
1.0
  0
ENDBLK
  5
85
100
AcDbEntity
  8
0
100
AcDbBlockEnd
  0
BLOCK
  5
86
100
AcDbEntity
  8
0
100
AcDbBlockBegin
  2
AX_12_Servo_Front
 70
0
 10
0.0
 20
0.0
 30
0.0
  3
AX_12_Servo_Front
  1

  0
CIRCLE
  5
87
100
AcDbEntity
100
AcDbCircle
  8
0
 62
256
370
-1
  6
ByLayer
 10
16.0
 20
38.3999999999999986
 30
0.0
 40
9.0022219479415195
  0
CIRCLE
  5
88
100
AcDbEntity
100
AcDbCircle
  8
0
 62
256
370
-1
  6
ByLayer
 10
16.0
 20
38.3999999999999986
 30
0.0
 40
11.6000000000000014
  0
CIRCLE
  5
89
100
AcDbEntity
100
AcDbCircle
  8
0
 62
256
370
-1
  6
ByLayer
 10
16.0
 20
38.3999999999999986
 30
0.0
 40
1.3999999999999986
  0
CIRCLE
  5
8A
100
AcDbEntity
100
AcDbCircle
  8
0
 62
256
370
-1
  6
ByLayer
 10
16.0
 20
29.3977781249830876
 30
0.0
 40
1.1154184808221892
  0
CIRCLE
  5
8B
100
AcDbEntity
100
AcDbCircle
  8
0
 62
256
370
-1
  6
ByLayer
 10
16.0
 20
47.4022218558297226
 30
0.0
 40
1.1957142531815634
  0
ARC
  5
8C
100
AcDbEntity
  8
0
 62
256
370
-1
  6
ByLayer
100
AcDbCircle
 10
5.0
 20
48.0
 30
0.0
 40
2.0
100
AcDbArc
 50
90.0
 51
180.0
  0
ARC
  5
8D
100
AcDbEntity
  8
0
 62
256
370
-1
  6
ByLayer
100
AcDbCircle
 10
27.0
 20
48.0
 30
0.0
 40
2.0
100
AcDbArc
 50
0.0
 51
90.0
  0
LINE
  5
8E
100
AcDbEntity
100
AcDbLine
  8
0
 62
256
370
-1
  6
ByLayer
 10
29.0
 20
48.0
 30
0.0
 11
29.0
 21
2.0
 31
0.0
  0
LINE
  5
8F
100
AcDbEntity
100
AcDbLine
  8
0
 62
256
370
-1
  6
ByLayer
 10
0.0
 20
0.0
 30
0.0
 11
27.0
 21
0.0
 31
0.0
  0
ARC
  5
90
100
AcDbEntity
  8
0
 62
256
370
-1
  6
ByLayer
100
AcDbCircle
 10
27.0
 20
2.0
 30
0.0
 40
2.0
100
AcDbArc
 50
270.0
 51
0.0
  0
LINE
  5
91
100
AcDbEntity
100
AcDbLine
  8
0
 62
256
370
-1
  6
ByLayer
 10
3.0
 20
2.0
 30
0.0
 11
3.0
 21
48.0
 31
0.0
  0
ARC
  5
92
100
AcDbEntity
  8
0
 62
256
370
-1
  6
ByLayer
100
AcDbCircle
 10
5.0
 20
2.0
 30
0.0
 40
2.0
100
AcDbArc
 50
180.0
 51
270.0
  0
LINE
  5
93
100
AcDbEntity
100
AcDbLine
  8
0
 62
256
370
-1
  6
ByLayer
 10
32.0
 20
0.0
 30
0.0
 11
5.0
 21
0.0
 31
0.0
  0
CIRCLE
  5
94
100
AcDbEntity
100
AcDbCircle
  8
0
 62
256
370
-1
  6
ByLayer
 10
2.5
 20
31.8999999999999986
 30
0.0
 40
1.6031219541881399
  0
CIRCLE
  5
95
100
AcDbEntity
100
AcDbCircle
  8
0
 62
256
370
-1
  6
ByLayer
 10
2.5
 20
23.8999999999999986
 30
0.0
 40
1.5033296378372909
  0
CIRCLE
  5
96
100
AcDbEntity
100
AcDbCircle
  8
0
 62
256
370
-1
  6
ByLayer
 10
2.5
 20
15.9000000000000004
 30
0.0
 40
1.5033296378372907
  0
CIRCLE
  5
97
100
AcDbEntity
100
AcDbCircle
  8
0
 62
256
370
-1
  6
ByLayer
 10
2.5
 20
7.9000000000000012
 30
0.0
 40
1.5033296378372907
  0
CIRCLE
  5
98
100
AcDbEntity
100
AcDbCircle
  8
0
 62
256
370
-1
  6
ByLayer
 10
29.5000000000000036
 20
31.899999999999995
 30
0.0
 40
1.6031219541881399
  0
CIRCLE
  5
99
100
AcDbEntity
100
AcDbCircle
  8
0
 62
256
370
-1
  6
ByLayer
 10
29.5
 20
23.8999999999999986
 30
0.0
 40
1.5033296378372909
  0
CIRCLE
  5
9A
100
AcDbEntity
100
AcDbCircle
  8
0
 62
256
370
-1
  6
ByLayer
 10
29.5
 20
15.8999999999999986
 30
0.0
 40
1.5033296378372907
  0
CIRCLE
  5
9B
100
AcDbEntity
100
AcDbCircle
  8
0
 62
256
370
-1
  6
ByLayer
 10
29.5
 20
7.9000000000000021
 30
0.0
 40
1.5033296378372907
  0
LINE
  5
9C
100
AcDbEntity
100
AcDbLine
  8
0
 62
256
370
-1
  6
ByLayer
 10
27.0
 20
50.0
 30
0.0
 11
5.0
 21
50.0
 31
0.0
  0
LINE
  5
9D
100
AcDbEntity
100
AcDbLine
  8
0
 62
256
370
-1
  6
ByLayer
 10
32.0
 20
0.0
 30
0.0
 11
32.0
 21
36.0
 31
0.0
  0
LINE
  5
9E
100
AcDbEntity
100
AcDbLine
  8
0
 62
256
370
-1
  6
ByLayer
 10
0.0
 20
36.0
 30
0.0
 11
0.0
 21
0.0
 31
0.0
  0
LINE
  5
9F
100
AcDbEntity
100
AcDbLine
  8
0
 62
256
370
-1
  6
ByLayer
 10
0.0
 20
36.0
 30
0.0
 11
3.0
 21
36.0
 31
0.0
  0
LINE
  5
A0
100
AcDbEntity
100
AcDbLine
  8
0
 62
256
370
-1
  6
ByLayer
 10
29.0
 20
36.0
 30
0.0
 11
32.0
 21
36.0
 31
0.0
  0
ENDBLK
  5
A1
100
AcDbEntity
  8
0
100
AcDbBlockEnd
  0
BLOCK
  5
A2
100
AcDbEntity
  8
0
100
AcDbBlockBegin
  2
AX_12_Servo_Front-0
 70
0
 10
0.0
 20
0.0
 30
0.0
  3
AX_12_Servo_Front-0
  1

  0
INSERT
  5
A3
100
AcDbEntity
100
AcDbBlockReference
  8
0
 62
256
370
-1
  6
ByLayer
  2
AX_12_Servo_Front
 10
0.0
 20
0.0
 30
0.0
 41
0.0393700787401575
 42
0.0393700787401575
 43
1.0
  0
ENDBLK
  5
A4
100
AcDbEntity
  8
0
100
AcDbBlockEnd
  0
BLOCK
  5
A5
100
AcDbEntity
  8
0
100
AcDbBlockBegin
  2
Servo_Bracket_Top
 70
0
 10
0.0
 20
0.0
 30
0.0
  3
Servo_Bracket_Top
  1

  0
LINE
  5
A6
100
AcDbEntity
100
AcDbLine
  8
Servo_Brackets
 62
256
370
-1
  6
ByLayer
 10
0.0
 20
0.0
 30
0.0
 11
1.5
 21
0.0
 31
0.0
  0
POINT
  5
A7
100
AcDbEntity
100
AcDbPoint
  8
Servo_Brackets
 62
256
370
-1
  6
ByLayer
 10
0.75
 20
0.75
 30
0.0
  0
LINE
  5
A8
100
AcDbEntity
100
AcDbLine
  8
Servo_Brackets
 62
256
370
-1
  6
ByLayer
 10
0.0
 20
0.0
 30
0.0
 11
1.5
 21
0.0
 31
0.0
  0
LINE
  5
A9
100
AcDbEntity
100
AcDbLine
  8
Servo_Brackets
 62
256
370
-1
  6
ByLayer
 10
1.5
 20
0.0
 30
0.0
 11
1.5
 21
0.2999999999999998
 31
0.0
  0
LINE
  5
AA
100
AcDbEntity
100
AcDbLine
  8
Servo_Brackets
 62
256
370
-1
  6
ByLayer
 10
1.5
 20
0.2999999999999998
 30
0.0
 11
0.0
 21
0.2999999999999998
 31
0.0
  0
LINE
  5
AB
100
AcDbEntity
100
AcDbLine
  8
Servo_Brackets
 62
256
370
-1
  6
ByLayer
 10
0.0
 20
0.2999999999999998
 30
0.0
 11
0.0
 21
0.0
 31
0.0
  0
LINE
  5
AC
100
AcDbEntity
100
AcDbLine
  8
Servo_Brackets
 62
256
370
-1
  6
ByLayer
 10
0.0
 20
1.1000000000000001
 30
0.0
 11
0.0
 21
0.0
 31
0.0
  0
ARC
  5
AD
100
AcDbEntity
  8
Servo_Brackets
 62
256
370
-1
  6
ByLayer
100
AcDbCircle
 10
0.4000000000000004
 20
1.1000000000000001
 30
0.0
 40
0.4
100
AcDbArc
 50
90.0
 51
180.0
  0
LINE
  5
AE
100
AcDbEntity
100
AcDbLine
  8
Servo_Brackets
 62
256
370
-1
  6
ByLayer
 10
1.0999999999999996
 20
1.5
 30
0.0
 11
0.4000000000000004
 21
1.5
 31
0.0
  0
LINE
  5
AF
100
AcDbEntity
100
AcDbLine
  8
Servo_Brackets
 62
256
370
-1
  6
ByLayer
 10
1.5
 20
0.0
 30
0.0
 11
1.5
 21
1.1000000000000001
 31
0.0
  0
ARC
  5
B0
100
AcDbEntity
  8
Servo_Brackets
 62
256
370
-1
  6
ByLayer
100
AcDbCircle
 10
1.0999999999999996
 20
1.1000000000000001
 30
0.0
 40
0.4
100
AcDbArc
 50
0.0
 51
90.0
  0
LINE
  5
B1
100
AcDbEntity
100
AcDbLine
  8
Servo_Brackets
 62
256
370
-1
  6
ByLayer
 10
0.1600000000000001
 20
0.0
 30
0.0
 11
0.2800000000000002
 21
0.0
 31
0.0
  0
LINE
  5
B2
100
AcDbEntity
100
AcDbLine
  8
Servo_Brackets
 62
256
370
-1
  6
ByLayer
 10
0.2800000000000002
 20
0.3
 30
0.0
 11
0.1600000000000001
 21
0.3
 31
0.0
  0
LINE
  5
B3
100
AcDbEntity
100
AcDbLine
  8
Servo_Brackets
 62
256
370
-1
  6
ByLayer
 10
1.3399999999999999
 20
0.0
 30
0.0
 11
1.2199999999999998
 21
0.0
 31
0.0
  0
LINE
  5
B4
100
AcDbEntity
100
AcDbLine
  8
Servo_Brackets
 62
256
370
-1
  6
ByLayer
 10
1.2199999999999998
 20
0.3
 30
0.0
 11
1.3399999999999999
 21
0.3
 31
0.0
  0
LINE
  5
B5
100
AcDbEntity
100
AcDbLine
  8
Servo_Brackets
 62
256
370
-1
  6
DOT2
 10
0.2800000000000002
 20
0.0
 30
0.0
 11
0.2800000000000002
 21
0.3
 31
0.0
  0
LINE
  5
B6
100
AcDbEntity
100
AcDbLine
  8
Servo_Brackets
 62
256
370
-1
  6
DOT2
 10
0.1600000000000001
 20
0.3
 30
0.0
 11
0.1600000000000001
 21
0.0
 31
0.0
  0
LINE
  5
B7
100
AcDbEntity
100
AcDbLine
  8
Servo_Brackets
 62
256
370
-1
  6
DOT2
 10
1.2199999999999998
 20
0.0
 30
0.0
 11
1.2199999999999998
 21
0.3
 31
0.0
  0
LINE
  5
B8
100
AcDbEntity
100
AcDbLine
  8
Servo_Brackets
 62
256
370
-1
  6
DOT2
 10
1.3399999999999999
 20
0.3
 30
0.0
 11
1.3399999999999999
 21
0.0
 31
0.0
  0
LINE
  5
B9
100
AcDbEntity
100
AcDbLine
  8
Servo_Brackets
 62
256
370
-1
  6
DASHDOT2
 10
0.3100000000000005
 20
0.0
 30
0.0
 11
0.3100000000000005
 21
0.3
 31
0.0
  0
LINE
  5
BA
100
AcDbEntity
100
AcDbLine
  8
Servo_Brackets
 62
256
370
-1
  6
DASHDOT2
 10
1.2000000000000002
 20
0.0
 30
0.0
 11
1.2000000000000002
 21
0.3
 31
0.0
  0
LINE
  5
BB
100
AcDbEntity
100
AcDbLine
  8
Servo_Brackets
 62
256
370
-1
  6
DASHED2
 10
1.2400000000000002
 20
0.3
 30
0.0
 11
1.2400000000000002
 21
-0.0
 31
0.0
  0
LINE
  5
BC
100
AcDbEntity
100
AcDbLine
  8
Servo_Brackets
 62
256
370
-1
  6
DASHED2
 10
0.2599999999999998
 20
0.0
 30
0.0
 11
0.2600000000000007
 21
0.3
 31
0.0
  0
CIRCLE
  5
BD
100
AcDbEntity
100
AcDbCircle
  8
Servo_Brackets
 62
256
370
-1
  6
DASHED
 10
0.75
 20
0.75
 30
0.0
 40
0.65
  0
LINE
  5
BE
100
AcDbEntity
100
AcDbLine
  8
Servo_Brackets
 62
256
370
-1
  6
DASHED
 10
0.3238924434688952
 20
0.4
 30
0.0
 11
1.1742935760195667
 21
0.4
 31
0.0
  0
ARC
  5
BF
100
AcDbEntity
  8
Servo_Brackets
 62
256
370
-1
  6
DASHED
100
AcDbCircle
 10
0.75
 20
0.75
 30
0.0
 40
0.5514232945142131
100
AcDbArc
 50
320.4807596776544756
 51
219.3993020359365858
  0
ENDBLK
  5
C0
100
AcDbEntity
  8
0
100
AcDbBlockEnd
  0
BLOCK
  5
C1
100
AcDbEntity
  8
0
100
AcDbBlockBegin
  2
Servo_Bracket_Front
 70
0
 10
0.0
 20
0.0
 30
0.0
  3
Servo_Bracket_Front
  1

  0
ARC
  5
C2
100
AcDbEntity
  8
Servo_Brackets
 62
256
370
-1
  6
ByLayer
100
AcDbCircle
 10
0.3999999999999999
 20
2.8000000000000007
 30
0.0
 40
0.4
100
AcDbArc
 50
90.0
 51
180.0
  0
LINE
  5
C3
100
AcDbEntity
100
AcDbLine
  8
Servo_Brackets
 62
256
370
-1
  6
ByLayer
 10
0.3999999999999999
 20
3.2000000000000002
 30
0.0
 11
1.1000000000000005
 21
3.2000000000000002
 31
0.0
  0
ARC
  5
C4
100
AcDbEntity
  8
Servo_Brackets
 62
256
370
-1
  6
ByLayer
100
AcDbCircle
 10
1.1000000000000005
 20
2.8000000000000003
 30
0.0
 40
0.4
100
AcDbArc
 50
0.0
 51
90.0
  0
CIRCLE
  5
C5
100
AcDbEntity
100
AcDbCircle
  8
Servo_Brackets
 62
256
370
-1
  6
ByLayer
 10
0.2189999999999999
 20
2.2560000000000002
 30
0.0
 40
0.0660075753228373
  0
CIRCLE
  5
C6
100
AcDbEntity
100
AcDbCircle
  8
Servo_Brackets
 62
256
370
-1
  6
ByLayer
 10
1.2810000000000001
 20
2.2560000000000002
 30
0.0
 40
0.0660075753228368
  0
CIRCLE
  5
C7
100
AcDbEntity
100
AcDbCircle
  8
Servo_Brackets
 62
256
370
-1
  6
ByLayer
 10
0.2189999999999999
 20
1.3110000000000002
 30
0.0
 40
0.0610081961706787
  0
CIRCLE
  5
C8
100
AcDbEntity
100
AcDbCircle
  8
Servo_Brackets
 62
256
370
-1
  6
ByLayer
 10
1.2810000000000001
 20
1.3110000000000002
 30
0.0
 40
0.0610081961706787
  0
CIRCLE
  5
C9
100
AcDbEntity
100
AcDbCircle
  8
Servo_Brackets
 62
256
370
-1
  6
ByLayer
 10
0.7500000000000004
 20
2.512
 30
0.0
 40
0.4819999999999998
  0
LINE
  5
CA
100
AcDbEntity
100
AcDbLine
  8
Servo_Brackets
 62
256
370
-1
  6
ByLayer
 10
0.0
 20
0.3000000000000001
 30
0.0
 11
0.0
 21
2.8000000000000007
 31
0.0
  0
LINE
  5
CB
100
AcDbEntity
100
AcDbLine
  8
Servo_Brackets
 62
256
370
-1
  6
ByLayer
 10
0.0
 20
0.3000000000000001
 30
0.0
 11
0.1000000000000001
 21
0.0000000000000001
 31
0.0
  0
LINE
  5
CC
100
AcDbEntity
100
AcDbLine
  8
Servo_Brackets
 62
256
370
-1
  6
ByLayer
 10
1.5000000000000004
 20
2.8000000000000003
 30
0.0
 11
1.5000000000000004
 21
0.3
 31
0.0
  0
LINE
  5
CD
100
AcDbEntity
100
AcDbLine
  8
Servo_Brackets
 62
256
370
-1
  6
ByLayer
 10
1.4000000000000004
 20
0.0
 30
0.0
 11
0.1000000000000001
 21
0.0000000000000001
 31
0.0
  0
LINE
  5
CE
100
AcDbEntity
100
AcDbLine
  8
Servo_Brackets
 62
256
370
-1
  6
ByLayer
 10
1.5000000000000004
 20
0.3
 30
0.0
 11
1.4000000000000004
 21
0.0
 31
0.0
  0
LINE
  5
CF
100
AcDbEntity
100
AcDbLine
  8
Servo_Brackets
 62
256
370
-1
  6
DASHDOT2
 10
1.2000000000000002
 20
2.3400000000000003
 30
0.0
 11
1.2000000000000002
 21
1.2000000000000002
 31
0.0
  0
LINE
  5
D0
100
AcDbEntity
100
AcDbLine
  8
Servo_Brackets
 62
256
370
-1
  6
DASHDOT2
 10
1.2000000000000002
 20
1.2000000000000002
 30
0.0
 11
0.3000000000000003
 21
1.2000000000000002
 31
0.0
  0
LINE
  5
D1
100
AcDbEntity
100
AcDbLine
  8
Servo_Brackets
 62
256
370
-1
  6
DASHDOT2
 10
0.3000000000000003
 20
1.2000000000000002
 30
0.0
 11
0.3000000000000003
 21
2.3400000000000003
 31
0.0
  0
LINE
  5
D2
100
AcDbEntity
100
AcDbLine
  8
Servo_Brackets
 62
256
370
-1
  6
DASHED
 10
0.0
 20
1.0
 30
0.0
 11
1.5
 21
1.0
 31
0.0
  0
LINE
  5
D3
100
AcDbEntity
100
AcDbLine
  8
Servo_Brackets
 62
256
370
-1
  6
ByLayer
 10
0.2000000000000002
 20
0.0
 30
0.0
 11
1.2999999999999998
 21
0.0
 31
0.0
  0
LINE
  5
D4
100
AcDbEntity
100
AcDbLine
  8
Servo_Brackets
 62
256
370
-1
  6
DASHED
 10
1.2999999999999998
 20
0.0
 30
0.0
 11
1.2999999999999998
 21
0.7999999999999998
 31
0.0
  0
LINE
  5
D5
100
AcDbEntity
100
AcDbLine
  8
Servo_Brackets
 62
256
370
-1
  6
DASHED
 10
1.2999999999999998
 20
0.7999999999999998
 30
0.0
 11
0.2000000000000002
 21
0.7999999999999998
 31
0.0
  0
LINE
  5
D6
100
AcDbEntity
100
AcDbLine
  8
Servo_Brackets
 62
256
370
-1
  6
DASHED
 10
0.2000000000000002
 20
0.7999999999999998
 30
0.0
 11
0.2000000000000002
 21
0.0
 31
0.0
  0
ENDBLK
  5
D7
100
AcDbEntity
  8
0
100
AcDbBlockEnd
  0
BLOCK
  5
D8
100
AcDbEntity
  8
0
100
AcDbBlockBegin
  2
Servo_Bracket_Side
 70
0
 10
0.0
 20
0.0
 30
0.0
  3
Servo_Bracket_Side
  1

  0
LINE
  5
D9
100
AcDbEntity
100
AcDbLine
  8
Servo_Brackets
 62
256
370
-1
  6
ByLayer
 10
0.3
 20
2.3199999999999998
 30
0.0
 11
0.3
 21
2.1899999999999999
 31
0.0
  0
LINE
  5
DA
100
AcDbEntity
100
AcDbLine
  8
Servo_Brackets
 62
256
370
-1
  6
ByLayer
 10
-0.0
 20
2.1899999999999999
 30
0.0
 11
-0.0
 21
2.3199999999999998
 31
0.0
  0
LINE
  5
DB
100
AcDbEntity
100
AcDbLine
  8
Servo_Brackets
 62
256
370
-1
  6
ByLayer
 10
0.3
 20
1.3700000000000001
 30
0.0
 11
0.3
 21
1.25
 31
0.0
  0
LINE
  5
DC
100
AcDbEntity
100
AcDbLine
  8
Servo_Brackets
 62
256
370
-1
  6
ByLayer
 10
0.0
 20
1.25
 30
0.0
 11
0.0
 21
1.3700000000000001
 31
0.0
  0
ARC
  5
DD
100
AcDbEntity
  8
Servo_Brackets
 62
256
370
-1
  6
ByLayer
100
AcDbCircle
 10
1.4000000000000001
 20
0.9
 30
0.0
 40
0.1
100
AcDbArc
 50
0.0
 51
90.0
  0
LINE
  5
DE
100
AcDbEntity
100
AcDbLine
  8
Servo_Brackets
 62
256
370
-1
  6
ByLayer
 10
0.0
 20
0.3
 30
0.0
 11
0.1
 21
-0.0
 31
0.0
  0
LINE
  5
DF
100
AcDbEntity
100
AcDbLine
  8
Servo_Brackets
 62
256
370
-1
  6
ByLayer
 10
1.5000000000000002
 20
0.9
 30
0.0
 11
1.5000000000000002
 21
0.3
 31
0.0
  0
LINE
  5
E0
100
AcDbEntity
100
AcDbLine
  8
Servo_Brackets
 62
256
370
-1
  6
ByLayer
 10
1.4000000000000001
 20
0.0
 30
0.0
 11
0.1
 21
-0.0
 31
0.0
  0
LINE
  5
E1
100
AcDbEntity
100
AcDbLine
  8
Servo_Brackets
 62
256
370
-1
  6
ByLayer
 10
1.5000000000000002
 20
0.3
 30
0.0
 11
1.4000000000000001
 21
0.0
 31
0.0
  0
LINE
  5
E2
100
AcDbEntity
100
AcDbLine
  8
Servo_Brackets
 62
256
370
-1
  6
ByLayer
 10
0.3
 20
1.0
 30
0.0
 11
1.4000000000000001
 21
1.0
 31
0.0
  0
LINE
  5
E3
100
AcDbEntity
100
AcDbLine
  8
Servo_Brackets
 62
256
370
-1
  6
ByLayer
 10
0.0
 20
0.3
 30
0.0
 11
0.0000000000000001
 21
3.2000000000000002
 31
0.0
  0
LINE
  5
E4
100
AcDbEntity
100
AcDbLine
  8
Servo_Brackets
 62
256
370
-1
  6
ByLayer
 10
0.0000000000000001
 20
3.2000000000000002
 30
0.0
 11
0.3
 21
3.2000000000000002
 31
0.0
  0
LINE
  5
E5
100
AcDbEntity
100
AcDbLine
  8
Servo_Brackets
 62
256
370
-1
  6
ByLayer
 10
0.3
 20
3.2000000000000002
 30
0.0
 11
0.3
 21
1.0
 31
0.0
  0
LINE
  5
E6
100
AcDbEntity
100
AcDbLine
  8
Servo_Brackets
 62
256
370
-1
  6
ByLayer
 10
0.3999999999999999
 20
0.0
 30
0.0
 11
1.3000000000000003
 21
0.0
 31
0.0
  0
ARC
  5
E7
100
AcDbEntity
  8
Servo_Brackets
 62
256
370
-1
  6
ByLayer
100
AcDbCircle
 10
0.0
 20
0.0
 30
0.0
 40
0.0
100
AcDbArc
 50
0.0
 51
0.0
  0
LINE
  5
E8
100
AcDbEntity
100
AcDbLine
  8
Servo_Brackets
 62
256
370
-1
  6
DOT2
 10
-0.0
 20
2.3199999999999998
 30
0.0
 11
0.3
 21
2.3199999999999998
 31
0.0
  0
LINE
  5
E9
100
AcDbEntity
100
AcDbLine
  8
Servo_Brackets
 62
256
370
-1
  6
DOT2
 10
0.3
 20
2.1899999999999999
 30
0.0
 11
-0.0
 21
2.1899999999999999
 31
0.0
  0
LINE
  5
EA
100
AcDbEntity
100
AcDbLine
  8
Servo_Brackets
 62
256
370
-1
  6
DOT2
 10
0.0
 20
1.3700000000000001
 30
0.0
 11
0.3
 21
1.3700000000000001
 31
0.0
  0
LINE
  5
EB
100
AcDbEntity
100
AcDbLine
  8
Servo_Brackets
 62
256
370
-1
  6
DOT2
 10
0.3
 20
1.25
 30
0.0
 11
0.0
 21
1.25
 31
0.0
  0
LINE
  5
EC
100
AcDbEntity
100
AcDbLine
  8
Servo_Brackets
 62
256
370
-1
  6
DASHDOT2
 10
0.18
 20
2.0
 30
0.0
 11
0.0
 21
2.0
 31
0.0
  0
LINE
  5
ED
100
AcDbEntity
100
AcDbLine
  8
Servo_Brackets
 62
256
370
-1
  6
DASHDOT2
 10
0.18
 20
2.0
 30
0.0
 11
0.18
 21
1.2
 31
0.0
  0
LINE
  5
EE
100
AcDbEntity
100
AcDbLine
  8
Servo_Brackets
 62
256
370
-1
  6
DASHDOT2
 10
0.18
 20
1.2
 30
0.0
 11
0.3
 21
1.2
 31
0.0
  0
LINE
  5
EF
100
AcDbEntity
100
AcDbLine
  8
Servo_Brackets
 62
256
370
-1
  6
DASHED2
 10
0.0
 20
3.0
 30
0.0
 11
0.3
 21
3.0
 31
0.0
  0
LINE
  5
F0
100
AcDbEntity
100
AcDbLine
  8
Servo_Brackets
 62
256
370
-1
  6
DASHED
 10
1.3000000000000003
 20
0.0
 30
0.0
 11
1.3000000000000003
 21
0.7999999999999998
 31
0.0
  0
LINE
  5
F1
100
AcDbEntity
100
AcDbLine
  8
Servo_Brackets
 62
256
370
-1
  6
DASHED
 10
1.3000000000000003
 20
0.7999999999999998
 30
0.0
 11
0.4000000000000001
 21
0.7999999999999998
 31
0.0
  0
LINE
  5
F2
100
AcDbEntity
100
AcDbLine
  8
Servo_Brackets
 62
256
370
-1
  6
DASHED
 10
0.4000000000000001
 20
0.7999999999999998
 30
0.0
 11
0.3999999999999999
 21
0.0
 31
0.0
  0
ENDBLK
  5
F3
100
AcDbEntity
  8
0
100
AcDbBlockEnd
  0
BLOCK
  5
F4
100
AcDbEntity
  8
0
100
AcDbBlockBegin
  2
Top
 70
0
 10
0.0
 20
0.0
 30
0.0
  3
Top
  1

  0
INSERT
  5
F5
100
AcDbEntity
100
AcDbBlockReference
  8
Servo_Brackets
 62
256
370
-1
  6
ByLayer
  2
Servo_Bracket_Top
 10
0.0000000000000009
 20
0.0
 30
0.0
  0
DIMENSION
  5
F6
100
AcDbEntity
  8
Dimensions
 62
256
370
-1
  6
ByLayer
100
AcDbDimension
 10
1.2000000000000011
 20
-0.3999999999999995
 30
0.0
 11
0.7550000000000017
 21
-0.1874999999999991
 31
0.0
 70
0
 71
5
 72
0
 41
1.0
 42
0.0
  1

  3
Standard
100
AcDbAlignedDimension
 13
0.3100000000000014
 23
0.0
 33
0.0
 14
1.2000000000000011
 24
0.0
 34
0.0
 50
0.0
100
AcDbRotatedDimension
  0
DIMENSION
  5
F7
100
AcDbEntity
  8
Dimensions
 62
256
370
-1
  6
ByLayer
100
AcDbDimension
 10
1.2200000000000006
 20
-0.8999999999999995
 30
0.0
 11
0.7500000000000009
 21
-0.6874999999999991
 31
0.0
 70
0
 71
5
 72
0
 41
1.0
 42
0.0
  1

  3
Standard
100
AcDbAlignedDimension
 13
0.2800000000000011
 23
0.0
 33
0.0
 14
1.2200000000000006
 24
0.0
 34
0.0
 50
0.0
100
AcDbRotatedDimension
  0
DIMENSION
  5
F8
100
AcDbEntity
  8
Dimensions
 62
256
370
-1
  6
ByLayer
100
AcDbDimension
 10
1.2400000000000011
 20
-1.4000000000000004
 30
0.0
 11
0.7500000000000009
 21
-1.1875
 31
0.0
 70
0
 71
5
 72
0
 41
1.0
 42
0.0
  1

  3
Standard
100
AcDbAlignedDimension
 13
0.2600000000000007
 23
0.0
 33
0.0
 14
1.2400000000000011
 24
0.0
 34
0.0
 50
0.0
100
AcDbRotatedDimension
  0
DIMENSION
  5
F9
100
AcDbEntity
  8
Dimensions
 62
256
370
-1
  6
ByLayer
100
AcDbDimension
 10
1.3400000000000007
 20
-1.9000000000000004
 30
0.0
 11
0.7500000000000009
 21
-1.6875000000000004
 31
0.0
 70
0
 71
5
 72
0
 41
1.0
 42
0.0
  1

  3
Standard
100
AcDbAlignedDimension
 13
0.160000000000001
 23
0.0
 33
0.0
 14
1.3400000000000007
 24
0.0
 34
0.0
 50
0.0
100
AcDbRotatedDimension
  0
DIMENSION
  5
FA
100
AcDbEntity
  8
Dimensions
 62
256
370
-1
  6
ByLayer
100
AcDbDimension
 10
1.2999999999999998
 20
1.6000000000000005
 30
0.0
 11
0.7500000000000009
 21
1.8125000000000009
 31
0.0
 70
0
 71
5
 72
0
 41
1.0
 42
0.0
  1

  3
Standard
100
AcDbAlignedDimension
 13
0.2000000000000011
 23
0.75
 33
0.0
 14
1.2999999999999998
 24
0.75
 34
0.0
 50
0.0
100
AcDbRotatedDimension
  0
DIMENSION
  5
FB
100
AcDbEntity
  8
Dimensions
 62
256
370
-1
  6
ByLayer
100
AcDbDimension
 10
1.4000000000000012
 20
2.0
 30
0.0
 11
0.7500000000000009
 21
2.2125000000000004
 31
0.0
 70
0
 71
5
 72
0
 41
1.0
 42
0.0
  1

  3
Standard
100
AcDbAlignedDimension
 13
0.1000000000000005
 23
0.75
 33
0.0
 14
1.4000000000000012
 24
0.75
 34
0.0
 50
0.0
100
AcDbRotatedDimension
  0
ENDBLK
  5
FC
100
AcDbEntity
  8
0
100
AcDbBlockEnd
  0
BLOCK
  5
FD
100
AcDbEntity
  8
0
100
AcDbBlockBegin
  2
Side
 70
0
 10
0.0
 20
0.0
 30
0.0
  3
Side
  1

  0
INSERT
  5
FE
100
AcDbEntity
100
AcDbBlockReference
  8
Servo_Brackets
 62
256
370
-1
  6
ByLayer
  2
Servo_Bracket_Side
 10
-0.0000000000000009
 20
0.0000000000000004
 30
0.0
  0
DIMENSION
  5
FF
100
AcDbEntity
  8
Dimensions
 62
256
370
-1
  6
ByLayer
100
AcDbDimension
 10
1.2999999999999994
 20
-0.5999999999999996
 30
0.0
 11
0.8499999999999992
 21
-0.3874999999999996
 31
0.0
 70
0
 71
5
 72
0
 41
1.0
 42
0.0
  1

  3
Standard
100
AcDbAlignedDimension
 13
0.399999999999999
 23
0.0000000000000004
 33
0.0
 14
1.2999999999999994
 24
0.0000000000000004
 34
0.0
 50
0.0
100
AcDbRotatedDimension
  0
DIMENSION
  5
100
100
AcDbEntity
  8
Dimensions
 62
256
370
-1
  6
ByLayer
100
AcDbDimension
 10
0.2999999999999989
 20
3.4000000000000008
 30
0.0
 11
0.149999999999999
 21
3.6125000000000007
 31
0.0
 70
0
 71
5
 72
0
 41
1.0
 42
0.0
  1

  3
Standard
100
AcDbAlignedDimension
 13
-0.0000000000000009
 23
3.2000000000000006
 33
0.0
 14
0.2999999999999989
 24
3.2000000000000006
 34
0.0
 50
0.0
100
AcDbRotatedDimension
  0
DIMENSION
  5
101
100
AcDbEntity
  8
Dimensions
 62
256
370
-1
  6
ByLayer
100
AcDbDimension
 10
1.4999999999999991
 20
1.4000000000000006
 30
0.0
 11
1.4499999999999993
 21
1.6125000000000005
 31
0.0
 70
0
 71
5
 72
0
 41
1.0
 42
0.0
  1

  3
Standard
100
AcDbAlignedDimension
 13
1.3999999999999995
 23
1.0000000000000004
 33
0.0
 14
1.4999999999999991
 24
1.0000000000000004
 34
0.0
 50
0.0
100
AcDbRotatedDimension
  0
ENDBLK
  5
102
100
AcDbEntity
  8
0
100
AcDbBlockEnd
  0
BLOCK
  5
103
100
AcDbEntity
  8
0
100
AcDbBlockBegin
  2
Front
 70
0
 10
0.0
 20
0.0
 30
0.0
  3
Front
  1

  0
INSERT
  5
104
100
AcDbEntity
100
AcDbBlockReference
  8
Servo_Brackets
 62
256
370
-1
  6
ByLayer
  2
Servo_Bracket_Front
 10
0.0
 20
0.0
 30
0.0
  0
DIMENSION
  5
105
100
AcDbEntity
  8
Dimensions
 62
256
370
-1
  6
ByLayer
100
AcDbDimension
 10
1.3000000000000003
 20
-0.6000000000000001
 30
0.0
 11
0.7500000000000002
 21
-0.3875000000000001
 31
0.0
 70
0
 71
5
 72
0
 41
1.0
 42
0.0
  1

  3
Standard
100
AcDbAlignedDimension
 13
0.2000000000000001
 23
0.0
 33
0.0
 14
1.3000000000000003
 24
0.0
 34
0.0
 50
0.0
100
AcDbRotatedDimension
  0
DIMENSION
  5
106
100
AcDbEntity
  8
Dimensions
 62
256
370
-1
  6
ByLayer
100
AcDbDimension
 10
0.1
 20
-1.1000000000000001
 30
0.0
 11
0.7499999999999999
 21
-0.8875000000000001
 31
0.0
 70
0
 71
5
 72
0
 41
1.0
 42
0.0
  1

  3
Standard
100
AcDbAlignedDimension
 13
1.3999999999999999
 23
0.0
 33
0.0
 14
0.1000000000000001
 24
0.0
 34
0.0
 50
0.0
100
AcDbRotatedDimension
  0
DIMENSION
  5
107
100
AcDbEntity
  8
Dimensions
 62
256
370
-1
  6
ByLayer
100
AcDbDimension
 10
1.5000000000000002
 20
-1.7000000000000006
 30
0.0
 11
0.7500000000000001
 21
-1.4875000000000007
 31
0.0
 70
0
 71
5
 72
0
 41
1.0
 42
0.0
  1

  3
Standard
100
AcDbAlignedDimension
 13
0.0
 23
0.3000000000000003
 33
0.0
 14
1.5000000000000004
 24
0.3000000000000003
 34
0.0
 50
0.0
100
AcDbRotatedDimension
  0
DIMENSION
  5
108
100
AcDbEntity
  8
Dimensions
 62
256
370
-1
  6
ByLayer
100
AcDbDimension
 10
1.1999999999999997
 20
3.4000000000000004
 30
0.0
 11
0.7499999999999998
 21
3.6125000000000003
 31
0.0
 70
0
 71
5
 72
0
 41
1.0
 42
0.0
  1

  3
Standard
100
AcDbAlignedDimension
 13
0.2999999999999998
 23
2.3000000000000003
 33
0.0
 14
1.1999999999999997
 24
2.3000000000000003
 34
0.0
 50
0.0
100
AcDbRotatedDimension
  0
DIMENSION
  5
109
100
AcDbEntity
  8
Dimensions
 62
256
370
-1
  6
ByLayer
100
AcDbDimension
 10
1.23
 20
4.0
 30
0.0
 11
0.75
 21
4.2125000000000004
 31
0.0
 70
0
 71
5
 72
0
 41
1.0
 42
0.0
  1

  3
Standard
100
AcDbAlignedDimension
 13
0.27
 23
2.5100000000000002
 33
0.0
 14
1.23
 24
2.5100000000000002
 34
0.0
 50
0.0
100
AcDbRotatedDimension
  0
DIMENSION
  5
10A
100
AcDbEntity
  8
Dimensions
 62
256
370
-1
  6
ByLayer
100
AcDbDimension
 10
0.0000000000000001
 20
4.5000000000000009
 30
0.0
 11
0.1100000000000001
 21
4.7125000000000012
 31
0.0
 70
0
 71
5
 72
0
 41
1.0
 42
0.0
  1

  3
Standard
100
AcDbAlignedDimension
 13
0.22
 23
2.3199999999999998
 33
0.0
 14
-0.0
 24
2.3199999999999998
 34
0.0
 50
0.0
100
AcDbRotatedDimension
  0
ENDBLK
  5
10B
100
AcDbEntity
  8
0
100
AcDbBlockEnd
  0
ENDSEC
  0
SECTION
  2
ENTITIES
  0
LINE
  5
10C
100
AcDbEntity
100
AcDbLine
  8
0
 62
256
370
18
  6
ByLayer
 10
0.0
 20
-4.0
 30
0.0
 11
0.0
 21
-2.5
 31
0.0
  0
MTEXT
  5
10D
100
AcDbEntity
100
AcDbMText
  8
0
 62
256
370
18
  6
ByLayer
 10
0.1999999999999997
 20
-2.6999999999999997
 30
0.0
 40
0.15
 41
100.0
 71
1
 72
2
  1
STANDARD\~TOLERANCE\PUNLESS\~OTHERWISE\~SPECIFIED\P1\~Plc.\~Dec.\~%%p\~.01\P2\~Plc.\~Dec.\~%%p\~.01\P3\~Plc.\~Dec.\~%%p\~.003
  7
normallatin1
 50
0.0
 73
1
 44
1.0
  0
LINE
  5
10E
100
AcDbEntity
100
AcDbLine
  8
0
 62
256
370
18
  6
ByLayer
 10
0.0
 20
-2.5
 30
0.0
 11
4.0000000000000009
 21
-2.5
 31
0.0
  0
LINE
  5
10F
100
AcDbEntity
100
AcDbLine
  8
0
 62
256
370
18
  6
ByLayer
 10
4.0000000000000009
 20
-4.0
 30
0.0
 11
0.0
 21
-4.0
 31
0.0
  0
LINE
  5
110
100
AcDbEntity
100
AcDbLine
  8
0
 62
256
370
18
  6
ByLayer
 10
4.0
 20
-2.5
 30
0.0
 11
4.0
 21
-4.0
 31
0.0
  0
LINE
  5
111
100
AcDbEntity
100
AcDbLine
  8
0
 62
256
370
18
  6
ByLayer
 10
8.0
 20
-3.9999999999999996
 30
0.0
 11
4.0
 21
-4.0
 31
0.0
  0
LINE
  5
112
100
AcDbEntity
100
AcDbLine
  8
0
 62
256
370
18
  6
ByLayer
 10
4.0
 20
-2.5
 30
0.0
 11
8.0
 21
-2.4999999999999991
 31
0.0
  0
LINE
  5
113
100
AcDbEntity
100
AcDbLine
  8
0
 62
256
370
18
  6
ByLayer
 10
4.0
 20
-3.5
 30
0.0
 11
8.0
 21
-3.4999999999999996
 31
0.0
  0
LINE
  5
114
100
AcDbEntity
100
AcDbLine
  8
0
 62
256
370
18
  6
ByLayer
 10
4.0
 20
-3.0
 30
0.0
 11
8.0
 21
-3.0
 31
0.0
  0
LINE
  5
115
100
AcDbEntity
100
AcDbLine
  8
0
 62
256
370
18
  6
ByLayer
 10
8.0
 20
-2.4999999999999991
 30
0.0
 11
8.0
 21
-3.9999999999999996
 31
0.0
  0
LINE
  5
116
100
AcDbEntity
100
AcDbLine
  8
0
 62
256
370
18
  6
ByLayer
 10
6.0
 20
-3.0
 30
0.0
 11
6.0
 21
-3.9999999999999996
 31
0.0
  0
MTEXT
  5
117
100
AcDbEntity
100
AcDbMText
  8
0
 62
256
370
18
  6
ByLayer
 10
4.1000000000000005
 20
-2.5999999999999996
 30
0.0
 40
0.1
 41
100.0
 71
1
 72
2
  1
Part\~Name:
  7
normallatin1
 50
0.0
 73
1
 44
1.0
  0
MTEXT
  5
118
100
AcDbEntity
100
AcDbMText
  8
0
 62
256
370
18
  6
ByLayer
 10
4.1000000000000005
 20
-3.0999999999999996
 30
0.0
 40
0.1
 41
100.0
 71
1
 72
2
  1
Date:
  7
normallatin1
 50
0.0
 73
1
 44
1.0
  0
MTEXT
  5
119
100
AcDbEntity
100
AcDbMText
  8
0
 62
256
370
18
  6
ByLayer
 10
4.1000000000000005
 20
-3.5999999999999996
 30
0.0
 40
0.1
 41
100.0
 71
1
 72
2
  1
Sheet\~No.:
  7
normallatin1
 50
0.0
 73
1
 44
1.0
  0
MTEXT
  5
11A
100
AcDbEntity
100
AcDbMText
  8
0
 62
256
370
18
  6
ByLayer
 10
6.1000000000000005
 20
-3.0999999999999996
 30
0.0
 40
0.1
 41
100.0
 71
1
 72
2
  1
Scale:
  7
normallatin1
 50
0.0
 73
1
 44
1.0
  0
MTEXT
  5
11B
100
AcDbEntity
100
AcDbMText
  8
0
 62
256
370
18
  6
ByLayer
 10
6.1000000000000005
 20
-3.5999999999999996
 30
0.0
 40
0.1
 41
100.0
 71
1
 72
2
  1
No.\~Sheets:
  7
normallatin1
 50
0.0
 73
1
 44
1.0
  0
MTEXT
  5
11C
100
AcDbEntity
100
AcDbMText
  8
Dimensions
 62
256
370
-1
  6
ByLayer
 10
5.0
 20
-2.7000000000000002
 30
0.0
 40
0.2
 41
100.0
 71
1
 72
2
  1
Servo\~Joint\~Bracket
  7
normallatin1
 50
0.0
 73
0
 44
1.0
  0
MTEXT
  5
11D
100
AcDbEntity
100
AcDbMText
  8
0
 62
256
370
18
  6
ByLayer
 10
4.6000000000000005
 20
-3.1999999999999997
 30
0.0
 40
0.15
 41
100.0
 71
1
 72
2
  1
9.10.2010
  7
normallatin1
 50
0.0
 73
1
 44
1.0
  0
MTEXT
  5
11E
100
AcDbEntity
100
AcDbMText
  8
0
 62
256
370
18
  6
ByLayer
 10
4.9000000000000004
 20
-3.6999999999999993
 30
0.0
 40
0.15
 41
100.0
 71
1
 72
2
  1
1
  7
normallatin1
 50
0.0
 73
1
 44
1.0
  0
MTEXT
  5
11F
100
AcDbEntity
100
AcDbMText
  8
0
 62
256
370
18
  6
ByLayer
 10
7.0000000000000009
 20
-3.6999999999999997
 30
0.0
 40
0.15
 41
100.0
 71
1
 72
2
  1
1
  7
normallatin1
 50
0.0
 73
1
 44
1.0
  0
MTEXT
  5
120
100
AcDbEntity
100
AcDbMText
  8
0
 62
256
370
18
  6
ByLayer
 10
6.6000000000000005
 20
-3.1999999999999997
 30
0.0
 40
0.15
 41
100.0
 71
1
 72
2
  1
1:1.25
  7
normallatin1
 50
0.0
 73
1
 44
1.0
  0
DIMENSION
  5
121
100
AcDbEntity
  8
Dimensions
 62
256
370
-1
  6
ByLayer
100
AcDbDimension
 10
-1.1000000000000001
 20
0.0000000000000002
 30
0.0
 11
-1.3125
 21
1.6000000000000001
 31
0.0
 70
0
 71
5
 72
0
 41
1.0
 42
0.0
  1

  3
Standard
100
AcDbAlignedDimension
 13
0.3999999999999999
 23
3.2000000000000002
 33
0.0
 14
0.3999999999999999
 24
0.0
 34
0.0
 50
90.0
100
AcDbRotatedDimension
  0
DIMENSION
  5
122
100
AcDbEntity
  8
Dimensions
 62
256
370
-1
  6
ByLayer
100
AcDbDimension
 10
3.7000000000000006
 20
1.0
 30
0.0
 11
3.4875000000000007
 21
1.1000000000000001
 31
0.0
 70
0
 71
5
 72
0
 41
1.0
 42
0.0
  1

  3
Standard
100
AcDbAlignedDimension
 13
4.2000000000000002
 23
1.2000000000000002
 33
0.0
 14
4.2000000000000002
 24
1.0
 34
0.0
 50
90.0
100
AcDbRotatedDimension
  0
LINE
  5
123
100
AcDbEntity
100
AcDbLine
  8
Dimensions
 62
256
370
-1
  6
ByLayer
 10
-0.14
 20
1.9100000000000001
 30
0.0
 11
-0.14
 21
0.4
 31
0.0
  0
LINE
  5
124
100
AcDbEntity
100
AcDbLine
  8
Dimensions
 62
256
370
-1
  6
ByLayer
 10
-0.14
 20
1.3100000000000001
 30
0.0
 11
-0.1899541589327408
 21
1.6100000000000001
 31
0.0
  0
LINE
  5
125
100
AcDbEntity
100
AcDbLine
  8
Dimensions
 62
256
370
-1
  6
ByLayer
 10
-0.1899541589327408
 20
1.6100000000000001
 30
0.0
 11
-0.0900458410672591
 21
1.6100000000000001
 31
0.0
  0
LINE
  5
126
100
AcDbEntity
100
AcDbLine
  8
Dimensions
 62
256
370
-1
  6
ByLayer
 10
-0.0900458410672591
 20
1.6100000000000001
 30
0.0
 11
-0.14
 21
1.3100000000000001
 31
0.0
  0
LINE
  5
127
100
AcDbEntity
100
AcDbLine
  8
Dimensions
 62
256
370
-1
  6
ByLayer
 10
-0.14
 20
1.0
 30
0.0
 11
-0.0900458410672592
 21
0.7
 31
0.0
  0
LINE
  5
128
100
AcDbEntity
100
AcDbLine
  8
Dimensions
 62
256
370
-1
  6
ByLayer
 10
-0.0900458410672592
 20
0.7
 30
0.0
 11
-0.1899541589327409
 21
0.7
 31
0.0
  0
LINE
  5
129
100
AcDbEntity
100
AcDbLine
  8
Dimensions
 62
256
370
-1
  6
ByLayer
 10
-0.1899541589327409
 20
0.7
 30
0.0
 11
-0.14
 21
1.0
 31
0.0
  0
LINE
  5
12A
100
AcDbEntity
100
AcDbLine
  8
Dimensions
 62
256
370
-1
  6
ByLayer
 10
0.1575
 20
1.3100000000000001
 30
0.0
 11
-0.265
 21
1.3100000000000001
 31
0.0
  0
LINE
  5
12B
100
AcDbEntity
100
AcDbLine
  8
Dimensions
 62
256
370
-1
  6
ByLayer
 10
0.1575
 20
1.0
 30
0.0
 11
-0.265
 21
1.0
 31
0.0
  0
LINE
  5
12C
100
AcDbEntity
100
AcDbLine
  8
Dimensions
 62
256
370
-1
  6
ByLayer
 10
-0.14
 20
2.2560000000000002
 30
0.0
 11
-0.14
 21
1.3100000000000001
 31
0.0
  0
LINE
  5
12D
100
AcDbEntity
100
AcDbLine
  8
Dimensions
 62
256
370
-1
  6
ByLayer
 10
-0.14
 20
2.2560000000000002
 30
0.0
 11
-0.0900458410672591
 21
1.9560000000000002
 31
0.0
  0
LINE
  5
12E
100
AcDbEntity
100
AcDbLine
  8
Dimensions
 62
256
370
-1
  6
ByLayer
 10
-0.0900458410672591
 20
1.9560000000000002
 30
0.0
 11
-0.1899541589327408
 21
1.9560000000000002
 31
0.0
  0
LINE
  5
12F
100
AcDbEntity
100
AcDbLine
  8
Dimensions
 62
256
370
-1
  6
ByLayer
 10
-0.1899541589327408
 20
1.9560000000000002
 30
0.0
 11
-0.14
 21
2.2560000000000002
 31
0.0
  0
LINE
  5
130
100
AcDbEntity
100
AcDbLine
  8
Dimensions
 62
256
370
-1
  6
ByLayer
 10
-0.14
 20
1.3100000000000001
 30
0.0
 11
-0.1899541589327408
 21
1.6100000000000001
 31
0.0
  0
LINE
  5
131
100
AcDbEntity
100
AcDbLine
  8
Dimensions
 62
256
370
-1
  6
ByLayer
 10
-0.1899541589327408
 20
1.6100000000000001
 30
0.0
 11
-0.0900458410672591
 21
1.6100000000000001
 31
0.0
  0
LINE
  5
132
100
AcDbEntity
100
AcDbLine
  8
Dimensions
 62
256
370
-1
  6
ByLayer
 10
-0.0900458410672591
 20
1.6100000000000001
 30
0.0
 11
-0.14
 21
1.3100000000000001
 31
0.0
  0
LINE
  5
133
100
AcDbEntity
100
AcDbLine
  8
Dimensions
 62
256
370
-1
  6
ByLayer
 10
0.1565
 20
2.2560000000000002
 30
0.0
 11
-0.265
 21
2.2560000000000002
 31
0.0
  0
LINE
  5
134
100
AcDbEntity
100
AcDbLine
  8
Dimensions
 62
256
370
-1
  6
ByLayer
 10
0.1565
 20
1.3100000000000001
 30
0.0
 11
-0.265
 21
1.3100000000000001
 31
0.0
  0
MTEXT
  5
135
100
AcDbEntity
100
AcDbMText
  8
Dimensions
 62
256
370
-1
  6
ByLayer
 10
-0.7000000000000002
 20
1.0
 30
0.0
 40
0.3
 41
30.0
 71
5
 72
2
  1
0.31
  7
standard
 50
450.0
 73
0
 44
1.0
  0
MTEXT
  5
136
100
AcDbEntity
100
AcDbMText
  8
Dimensions
 62
256
370
-1
  6
ByLayer
 10
-0.5
 20
2.3000000000000003
 30
0.0
 40
0.3
 41
30.0
 71
5
 72
2
  1
0.946
  7
standard
 50
450.0
 73
0
 44
1.0
  0
DIMENSION
  5
137
100
AcDbEntity
  8
Dimensions
 62
256
370
-1
  6
ByLayer
100
AcDbDimension
 10
4.8000000000000007
 20
2.0000000000000004
 30
0.0
 11
4.5875000000000004
 21
1.6000000000000003
 31
0.0
 70
0
 71
5
 72
0
 41
1.0
 42
0.0
  1

  3
Standard
100
AcDbAlignedDimension
 13
4.3000000000000007
 23
1.2000000000000002
 33
0.0
 14
4.3000000000000007
 24
2.0000000000000004
 34
0.0
 50
90.0
100
AcDbRotatedDimension
  0
INSERT
  5
138
100
AcDbEntity
100
AcDbBlockReference
  8
Servo_Brackets
 62
256
370
-1
  6
ByLayer
  2
Servo_Bracket_Side
 10
4.0000000000000009
 20
0.0
 30
0.0
  0
DIMENSION
  5
139
100
AcDbEntity
  8
Dimensions
 62
256
370
-1
  6
ByLayer
100
AcDbDimension
 10
5.2999999999999989
 20
-0.6
 30
0.0
 11
4.8499999999999996
 21
-0.3875000000000001
 31
0.0
 70
0
 71
5
 72
0
 41
1.0
 42
0.0
  1

  3
Standard
100
AcDbAlignedDimension
 13
4.3999999999999986
 23
0.0
 33
0.0
 14
5.2999999999999989
 24
0.0
 34
0.0
 50
0.0
100
AcDbRotatedDimension
  0
DIMENSION
  5
13A
100
AcDbEntity
  8
Dimensions
 62
256
370
-1
  6
ByLayer
100
AcDbDimension
 10
3.7000000000000002
 20
2.0000000000000004
 30
0.0
 11
3.4875000000000003
 21
2.5000000000000004
 31
0.0
 70
0
 71
5
 72
0
 41
1.0
 42
0.0
  1

  3
Standard
100
AcDbAlignedDimension
 13
4.0
 23
3.0000000000000004
 33
0.0
 14
4.0
 24
2.0000000000000004
 34
0.0
 50
90.0
100
AcDbRotatedDimension
  0
DIMENSION
  5
13B
100
AcDbEntity
  8
Dimensions
 62
256
370
-1
  6
ByLayer
100
AcDbDimension
 10
4.2999999999999998
 20
3.7999999999999998
 30
0.0
 11
4.1499999999999995
 21
4.0125000000000002
 31
0.0
 70
0
 71
5
 72
0
 41
1.0
 42
0.0
  1

  3
Standard
100
AcDbAlignedDimension
 13
4.0
 23
3.2000000000000002
 33
0.0
 14
4.2999999999999998
 24
3.2000000000000002
 34
0.0
 50
0.0
100
AcDbRotatedDimension
  0
DIMENSION
  5
13C
100
AcDbEntity
  8
Dimensions
 62
256
370
-1
  6
ByLayer
100
AcDbDimension
 10
4.3000000000000007
 20
3.2999999999999998
 30
0.0
 11
4.2400000000000002
 21
3.5124999999999997
 31
0.0
 70
0
 71
5
 72
0
 41
1.0
 42
0.0
  1

  3
Standard
100
AcDbAlignedDimension
 13
4.1800000000000006
 23
2.0499999999999998
 33
0.0
 14
4.3000000000000007
 24
3.1699999999999999
 34
0.0
 50
0.0
100
AcDbRotatedDimension
  0
INSERT
  5
13D
100
AcDbEntity
100
AcDbBlockReference
  8
Servo_Brackets
 62
256
370
-1
  6
ByLayer
  2
Servo_Bracket_Front
 10
0.0
 20
0.0
 30
0.0
  0
DIMENSION
  5
13E
100
AcDbEntity
  8
Dimensions
 62
256
370
-1
  6
ByLayer
100
AcDbDimension
 10
1.3000000000000005
 20
-0.5999999999999994
 30
0.0
 11
0.7500000000000001
 21
-0.3875000000000002
 31
0.0
 70
0
 71
5
 72
0
 41
1.0
 42
0.0
  1

  3
Standard
100
AcDbAlignedDimension
 13
0.2000000000000001
 23
0.0
 33
0.0
 14
1.3000000000000003
 24
0.0
 34
0.0
 50
0.0
100
AcDbRotatedDimension
  0
DIMENSION
  5
13F
100
AcDbEntity
  8
Dimensions
 62
256
370
-1
  6
ByLayer
100
AcDbDimension
 10
0.1000000000000001
 20
-1.1000000000000001
 30
0.0
 11
0.75
 21
-0.8875
 31
0.0
 70
0
 71
5
 72
0
 41
1.0
 42
0.0
  1

  3
Standard
100
AcDbAlignedDimension
 13
1.3999999999999999
 23
0.0
 33
0.0
 14
0.1000000000000001
 24
0.0
 34
0.0
 50
0.0
100
AcDbRotatedDimension
  0
DIMENSION
  5
140
100
AcDbEntity
  8
Dimensions
 62
256
370
-1
  6
ByLayer
100
AcDbDimension
 10
1.4999999999999996
 20
-1.7000000000000008
 30
0.0
 11
0.7499999999999998
 21
-1.4875000000000007
 31
0.0
 70
0
 71
5
 72
0
 41
1.0
 42
0.0
  1

  3
Standard
100
AcDbAlignedDimension
 13
0.0
 23
0.3000000000000003
 33
0.0
 14
1.5000000000000004
 24
0.2999999999999996
 34
0.0
 50
0.0
100
AcDbRotatedDimension
  0
DIMENSION
  5
141
100
AcDbEntity
  8
Dimensions
 62
256
370
-1
  6
ByLayer
100
AcDbDimension
 10
1.1999999999999995
 20
3.4000000000000004
 30
0.0
 11
0.7500000000000001
 21
3.6125000000000003
 31
0.0
 70
0
 71
5
 72
0
 41
1.0
 42
0.0
  1

  3
Standard
100
AcDbAlignedDimension
 13
0.2999999999999998
 23
2.3000000000000003
 33
0.0
 14
1.2
 24
2.3000000000000003
 34
0.0
 50
0.0
100
AcDbRotatedDimension
  0
DIMENSION
  5
142
100
AcDbEntity
  8
Dimensions
 62
256
370
-1
  6
ByLayer
100
AcDbDimension
 10
1.2299999999999995
 20
4.0
 30
0.0
 11
0.75
 21
4.2125000000000004
 31
0.0
 70
0
 71
5
 72
0
 41
1.0
 42
0.0
  1

  3
Standard
100
AcDbAlignedDimension
 13
0.2700000000000002
 23
2.5100000000000002
 33
0.0
 14
1.2299999999999998
 24
2.5100000000000007
 34
0.0
 50
0.0
100
AcDbRotatedDimension
  0
DIMENSION
  5
143
100
AcDbEntity
  8
Dimensions
 62
256
370
-1
  6
ByLayer
100
AcDbDimension
 10
0.0000000000000003
 20
4.5000000000000009
 30
0.0
 11
0.1099999999999999
 21
4.7125000000000012
 31
0.0
 70
0
 71
5
 72
0
 41
1.0
 42
0.0
  1

  3
Standard
100
AcDbAlignedDimension
 13
0.2199999999999999
 23
2.3199999999999998
 33
0.0
 14
0.0000000000000001
 24
2.3199999999999998
 34
0.0
 50
0.0
100
AcDbRotatedDimension
  0
INSERT
  5
144
100
AcDbEntity
100
AcDbBlockReference
  8
Servo_Brackets
 62
256
370
-1
  6
ByLayer
  2
Servo_Bracket_Top
 10
7.0000000000000009
 20
0.0
 30
0.0
  0
DIMENSION
  5
145
100
AcDbEntity
  8
Dimensions
 62
256
370
-1
  6
ByLayer
100
AcDbDimension
 10
8.2000000000000011
 20
-0.3999999999999995
 30
0.0
 11
7.7550000000000017
 21
-0.1874999999999994
 31
0.0
 70
0
 71
5
 72
0
 41
1.0
 42
0.0
  1

  3
Standard
100
AcDbAlignedDimension
 13
7.3100000000000014
 23
0.0
 33
0.0
 14
8.2000000000000011
 24
0.0
 34
0.0
 50
0.0
100
AcDbRotatedDimension
  0
DIMENSION
  5
146
100
AcDbEntity
  8
Dimensions
 62
256
370
-1
  6
ByLayer
100
AcDbDimension
 10
8.2200000000000006
 20
-0.899999999999999
 30
0.0
 11
7.7500000000000009
 21
-0.6874999999999989
 31
0.0
 70
0
 71
5
 72
0
 41
1.0
 42
0.0
  1

  3
Standard
100
AcDbAlignedDimension
 13
7.2800000000000011
 23
0.0
 33
0.0
 14
8.2200000000000006
 24
0.0
 34
0.0
 50
0.0
100
AcDbRotatedDimension
  0
DIMENSION
  5
147
100
AcDbEntity
  8
Dimensions
 62
256
370
-1
  6
ByLayer
100
AcDbDimension
 10
8.240000000000002
 20
-1.4000000000000012
 30
0.0
 11
7.7500000000000009
 21
-1.1875
 31
0.0
 70
0
 71
5
 72
0
 41
1.0
 42
0.0
  1

  3
Standard
100
AcDbAlignedDimension
 13
7.2600000000000007
 23
0.0
 33
0.0
 14
8.240000000000002
 24
0.0
 34
0.0
 50
0.0
100
AcDbRotatedDimension
  0
DIMENSION
  5
148
100
AcDbEntity
  8
Dimensions
 62
256
370
-1
  6
ByLayer
100
AcDbDimension
 10
8.3399999999999999
 20
-1.9000000000000001
 30
0.0
 11
7.75
 21
-1.6875000000000007
 31
0.0
 70
0
 71
5
 72
0
 41
1.0
 42
0.0
  1

  3
Standard
100
AcDbAlignedDimension
 13
7.160000000000001
 23
0.0
 33
0.0
 14
8.3399999999999999
 24
0.0
 34
0.0
 50
0.0
100
AcDbRotatedDimension
  0
DIMENSION
  5
149
100
AcDbEntity
  8
Dimensions
 62
256
370
-1
  6
ByLayer
100
AcDbDimension
 10
8.3000000000000007
 20
1.6000000000000008
 30
0.0
 11
7.7500000000000009
 21
1.8125000000000007
 31
0.0
 70
0
 71
5
 72
0
 41
1.0
 42
0.0
  1

  3
Standard
100
AcDbAlignedDimension
 13
7.2000000000000011
 23
0.75
 33
0.0
 14
8.3000000000000007
 24
0.7500000000000004
 34
0.0
 50
0.0
100
AcDbRotatedDimension
  0
DIMENSION
  5
14A
100
AcDbEntity
  8
Dimensions
 62
256
370
-1
  6
ByLayer
100
AcDbDimension
 10
8.4000000000000021
 20
2.0
 30
0.0
 11
7.7500000000000009
 21
2.2125000000000004
 31
0.0
 70
0
 71
5
 72
0
 41
1.0
 42
0.0
  1

  3
Standard
100
AcDbAlignedDimension
 13
7.1000000000000005
 23
0.75
 33
0.0
 14
8.4000000000000021
 24
0.7500000000000002
 34
0.0
 50
0.0
100
AcDbRotatedDimension
  0
INSERT
  5
14B
100
AcDbEntity
100
AcDbBlockReference
  8
Servos
 62
5
370
-1
  6
DASHDOT2
  2
AX_12_Servo_Front-0
 10
6.0
 20
3.0
 30
0.0
  0
INSERT
  5
14C
100
AcDbEntity
100
AcDbBlockReference
  8
Servos
 62
256
370
-1
  6
ByLayer
  2
AX_12_Servo_Side-3
 10
8.0
 20
3.0
 30
0.0
  0
LINE
  5
14D
100
AcDbEntity
100
AcDbLine
  8
NULL
 62
256
370
-1
  6
ByLayer
 10
4.75
 20
1.0
 30
0.0
 11
4.75
 21
0.8
 31
0.0
  0
CIRCLE
  5
14E
100
AcDbEntity
100
AcDbCircle
  8
NULL
 62
256
370
-1
  6
ByLayer
 10
7.75
 20
0.75
 30
0.0
 40
0.0375
  0
ENDSEC
  0
SECTION
  2
OBJECTS
  0
DICTIONARY
  5
C
100
AcDbDictionary
280
0
281
1
  3
ACAD_GROUP
350
D
  3
ACAD_LAYOUT
350
1A
  3
ACAD_MLINESTYLE
350
17
  3
ACAD_PLOTSETTINGS
350
19
  3
ACAD_PLOTSTYLENAME
350
E
  3
AcDbVariableDictionary
350
14F
  0
DICTIONARY
  5
D
100
AcDbDictionary
280
0
281
1
  0
ACDBDICTIONARYWDFLT
  5
E
100
AcDbDictionary
281
1
  3
Normal
350
F
100
AcDbDictionaryWithDefault
340
F
  0
ACDBPLACEHOLDER
  5
F
  0
DICTIONARY
  5
17
100
AcDbDictionary
280
0
281
1
  3
Standard
350
18
  0
MLINESTYLE
  5
18
100
AcDbMlineStyle
  2
STANDARD
 70
0
  3

 62
256
 51
90.0
 52
90.0
 71
2
 49
0.5
 62
256
  6
BYLAYER
 49
-0.5
 62
256
  6
BYLAYER
  0
DICTIONARY
  5
19
100
AcDbDictionary
280
0
281
1
  0
DICTIONARY
  5
1A
100
AcDbDictionary
281
1
  3
Layout1
350
1E
  3
Layout2
350
26
  3
Model
350
22
  0
LAYOUT
  5
1E
100
AcDbPlotSettings
  1

  2
C:\Program Files\AutoCAD 2002\plotters\DWF ePlot (optimized for plotting).pc3
  4

  6

 40
0.0
 41
0.0
 42
0.0
 43
0.0
 44
0.0
 45
0.0
 46
0.0
 47
0.0
 48
0.0
 49
0.0
140
0.0
141
0.0
142
1.0
143
1.0
 70
688
 72
0
 73
0
 74
5
  7

 75
16
147
1.0
148
0.0
149
0.0
100
AcDbLayout
  1
Layout1
 70
1
 71
1
 10
0.0
 20
0.0
 11
420.0
 21
297.0
 12
0.0
 22
0.0
 32
0.0
 14
100000000000000000000.0
 24
100000000000000000000.0
 34
100000000000000000000.0
 15
-100000000000000000000.0
 25
-100000000000000000000.0
 35
-100000000000000000000.0
146
0.0
 13
0.0
 23
0.0
 33
0.0
 16
1.0
 26
0.0
 36
0.0
 17
0.0
 27
1.0
 37
0.0
 76
0
330
1B
  0
LAYOUT
  5
22
100
AcDbPlotSettings
  1

  2
C:\Program Files\AutoCAD 2002\plotters\DWF ePlot (optimized for plotting).pc3
  4

  6

 40
0.0
 41
0.0
 42
0.0
 43
0.0
 44
0.0
 45
0.0
 46
0.0
 47
0.0
 48
0.0
 49
0.0
140
0.0
141
0.0
142
1.0
143
1.0
 70
1712
 72
0
 73
0
 74
0
  7

 75
0
147
1.0
148
0.0
149
0.0
100
AcDbLayout
  1
Model
 70
1
 71
0
 10
0.0
 20
0.0
 11
12.0
 21
9.0
 12
0.0
 22
0.0
 32
0.0
 14
0.0
 24
0.0
 34
0.0
 15
0.0
 25
0.0
 35
0.0
146
0.0
 13
0.0
 23
0.0
 33
0.0
 16
1.0
 26
0.0
 36
0.0
 17
0.0
 27
1.0
 37
0.0
 76
0
330
1F
  0
LAYOUT
  5
26
100
AcDbPlotSettings
  1

  2
C:\Program Files\AutoCAD 2002\plotters\DWF ePlot (optimized for plotting).pc3
  4

  6

 40
0.0
 41
0.0
 42
0.0
 43
0.0
 44
0.0
 45
0.0
 46
0.0
 47
0.0
 48
0.0
 49
0.0
140
0.0
141
0.0
142
1.0
143
1.0
 70
688
 72
0
 73
0
 74
5
  7

 75
16
147
1.0
148
0.0
149
0.0
100
AcDbLayout
  1
Layout2
 70
1
 71
2
 10
0.0
 20
0.0
 11
12.0
 21
9.0
 12
0.0
 22
0.0
 32
0.0
 14
0.0
 24
0.0
 34
0.0
 15
0.0
 25
0.0
 35
0.0
146
0.0
 13
0.0
 23
0.0
 33
0.0
 16
1.0
 26
0.0
 36
0.0
 17
0.0
 27
1.0
 37
0.0
 76
0
330
23
  0
DICTIONARY
  5
14F
100
AcDbDictionary
281
1
  3
DIMASSOC
350
151
  3
HIDETEXT
350
150
  0
DICTIONARYVAR
  5
150
100
DictionaryVariables
280
0
  1
2
  0
DICTIONARYVAR
  5
151
100
DictionaryVariables
280
0
  1
1
  0
ENDSEC
  0
EOF
